<?xml version="1.0" encoding="utf-8"?>
<svg version="1.1" xmlns:xlink="http://www.w3.org/1999/xlink" width="57px" height="44px" xmlns="http://www.w3.org/2000/svg">
  <defs>
    <pattern id="BGPattern" patternUnits="userSpaceOnUse" alignment="0 0" imageRepeat="None" />
    <mask fill="white" id="Clip542">
      <path d="M 26.582959641255606 33  L 28.37219730941704 33  L 32.07847533632287 29.375  L 27.2219730941704 24.624999999999996  L 23.515695067264577 28.25  L 23.515695067264577 30.000000000000004  L 26.582959641255606 30.000000000000004  L 26.582959641255606 33  Z M 42.39854260089686 11.53125  C 42.760650224215254 11.177083333333329  42.771300448430495 10.833333333333329  42.4304932735426 10.5  C 42.08968609865471 10.166666666666663  41.73822869955157 10.177083333333329  41.37612107623318 10.531250000000002  L 30.193385650224215 21.46875  C 29.831278026905828 21.822916666666668  29.820627802690584 22.16666666666666  30.161434977578473 22.5  C 30.502242152466373 22.833333333333332  30.85369955156951 22.82291666666666  31.215807174887896 22.468750000000004  L 42.39854260089686 11.53125  Z M 44.347533632286996 28.15625  C 44.77354260089687 28.32291666666666  44.98654708520179 28.625000000000004  44.98654708520179 29.0625  L 44.98654708520179 35  C 44.98654708520179 37.479166666666664  44.086603139013455 39.598958333333336  42.28671524663677 41.359375  C 40.48682735426009 43.119791666666664  38.3195067264574 44  35.7847533632287 44  L 9.201793721973093 44  C 6.667040358744395 44  4.499719730941704 43.119791666666664  2.6998318385650224 41.359375  C 0.8999439461883407 39.598958333333336  0 37.479166666666664  0 35  L 0 9.000000000000002  C 0 6.520833333333329  0.8999439461883407 4.401041666666664  2.6998318385650224 2.6406250000000018  C 4.499719730941704 0.880208333333329  6.667040358744395 0  9.201793721973093 0  L 35.7847533632287 0  C 37.12668161434978 0  38.37275784753363 0.2604166666666643  39.52298206278027 0.7812499999999978  C 39.84248878923767 0.9270833333333304  40.03419282511211 1.1666666666666656  40.098094170403584 1.4999999999999987  C 40.16199551569507 1.8541666666666656  40.06614349775785 2.156249999999998  39.81053811659193 2.40625  L 38.244955156950674 3.9374999999999996  C 37.94674887892377 4.229166666666664  37.60594170403588 4.3125  37.222533632286996 4.187500000000002  C 36.73262331838565 4.062499999999998  36.253363228699556 4.000000000000002  35.7847533632287 4  L 9.201793721973093 4  C 7.7959641255605385 4.000000000000002  6.592488789237669 4.489583333333329  5.591367713004485 5.468749999999999  C 4.590246636771301 6.447916666666664  4.089686098654709 7.625000000000002  4 9.000000000000002  L 4 35  C 4.089686098654709 36.375  4.590246636771301 37.55208333333333  5.591367713004485 38.53125  C 6.592488789237669 39.510416666666664  7.7959641255605385 40  9.201793721973093 40  L 35.7847533632287 40  C 37.190582959641254 40  38.39405829596412 39.510416666666664  39.39517937219731 38.53125  C 40.396300448430495 37.55208333333333  40.89686098654708 36.375  40.89686098654708 35  L 40.89686098654708 31.062500000000004  C 40.89686098654708 30.791666666666664  40.99271300448431 30.5625  41.184417040358746 30.375000000000004  L 43.2292600896861 28.375  C 43.5487668161435 28.062499999999996  43.92152466367713 27.989583333333332  44.347533632286996 28.15625  Z M 20.44843049327354 27  L 41.91928251121076 6  L 51.12107623318386 15.000000000000002  L 29.650224215246634 36  L 20.44843049327354 36  L 20.44843049327354 27  Z M 57 7.999999999999998  C 57 8.83333333333333  56.7017937219731 9.541666666666664  56.10538116591928 10.125  L 53.16591928251121 12.999999999999998  L 43.964125560538115 4.000000000000002  L 46.90358744394619 1.1249999999999978  C 47.5 0.5416666666666625  48.224215246636774 0.2500000000000022  49.0762331838565 0.2500000000000022  C 49.92825112107624 0.2500000000000022  50.65246636771301 0.5416666666666625  51.24887892376682 1.1249999999999978  L 56.10538116591928 5.875000000000001  C 56.7017937219731 6.458333333333327  57 7.166666666666665  57 7.999999999999998  Z " fill-rule="evenodd" />
    </mask>
  </defs>
  <g transform="matrix(1 0 0 1 -1562 -216 )">
    <path d="M 26.582959641255606 33  L 28.37219730941704 33  L 32.07847533632287 29.375  L 27.2219730941704 24.624999999999996  L 23.515695067264577 28.25  L 23.515695067264577 30.000000000000004  L 26.582959641255606 30.000000000000004  L 26.582959641255606 33  Z M 42.39854260089686 11.53125  C 42.760650224215254 11.177083333333329  42.771300448430495 10.833333333333329  42.4304932735426 10.5  C 42.08968609865471 10.166666666666663  41.73822869955157 10.177083333333329  41.37612107623318 10.531250000000002  L 30.193385650224215 21.46875  C 29.831278026905828 21.822916666666668  29.820627802690584 22.16666666666666  30.161434977578473 22.5  C 30.502242152466373 22.833333333333332  30.85369955156951 22.82291666666666  31.215807174887896 22.468750000000004  L 42.39854260089686 11.53125  Z M 44.347533632286996 28.15625  C 44.77354260089687 28.32291666666666  44.98654708520179 28.625000000000004  44.98654708520179 29.0625  L 44.98654708520179 35  C 44.98654708520179 37.479166666666664  44.086603139013455 39.598958333333336  42.28671524663677 41.359375  C 40.48682735426009 43.119791666666664  38.3195067264574 44  35.7847533632287 44  L 9.201793721973093 44  C 6.667040358744395 44  4.499719730941704 43.119791666666664  2.6998318385650224 41.359375  C 0.8999439461883407 39.598958333333336  0 37.479166666666664  0 35  L 0 9.000000000000002  C 0 6.520833333333329  0.8999439461883407 4.401041666666664  2.6998318385650224 2.6406250000000018  C 4.499719730941704 0.880208333333329  6.667040358744395 0  9.201793721973093 0  L 35.7847533632287 0  C 37.12668161434978 0  38.37275784753363 0.2604166666666643  39.52298206278027 0.7812499999999978  C 39.84248878923767 0.9270833333333304  40.03419282511211 1.1666666666666656  40.098094170403584 1.4999999999999987  C 40.16199551569507 1.8541666666666656  40.06614349775785 2.156249999999998  39.81053811659193 2.40625  L 38.244955156950674 3.9374999999999996  C 37.94674887892377 4.229166666666664  37.60594170403588 4.3125  37.222533632286996 4.187500000000002  C 36.73262331838565 4.062499999999998  36.253363228699556 4.000000000000002  35.7847533632287 4  L 9.201793721973093 4  C 7.7959641255605385 4.000000000000002  6.592488789237669 4.489583333333329  5.591367713004485 5.468749999999999  C 4.590246636771301 6.447916666666664  4.089686098654709 7.625000000000002  4 9.000000000000002  L 4 35  C 4.089686098654709 36.375  4.590246636771301 37.55208333333333  5.591367713004485 38.53125  C 6.592488789237669 39.510416666666664  7.7959641255605385 40  9.201793721973093 40  L 35.7847533632287 40  C 37.190582959641254 40  38.39405829596412 39.510416666666664  39.39517937219731 38.53125  C 40.396300448430495 37.55208333333333  40.89686098654708 36.375  40.89686098654708 35  L 40.89686098654708 31.062500000000004  C 40.89686098654708 30.791666666666664  40.99271300448431 30.5625  41.184417040358746 30.375000000000004  L 43.2292600896861 28.375  C 43.5487668161435 28.062499999999996  43.92152466367713 27.989583333333332  44.347533632286996 28.15625  Z M 20.44843049327354 27  L 41.91928251121076 6  L 51.12107623318386 15.000000000000002  L 29.650224215246634 36  L 20.44843049327354 36  L 20.44843049327354 27  Z M 57 7.999999999999998  C 57 8.83333333333333  56.7017937219731 9.541666666666664  56.10538116591928 10.125  L 53.16591928251121 12.999999999999998  L 43.964125560538115 4.000000000000002  L 46.90358744394619 1.1249999999999978  C 47.5 0.5416666666666625  48.224215246636774 0.2500000000000022  49.0762331838565 0.2500000000000022  C 49.92825112107624 0.2500000000000022  50.65246636771301 0.5416666666666625  51.24887892376682 1.1249999999999978  L 56.10538116591928 5.875000000000001  C 56.7017937219731 6.458333333333327  57 7.166666666666665  57 7.999999999999998  Z " fill-rule="nonzero" fill="rgba(0, 0, 0, 1)" stroke="none" transform="matrix(1 0 0 1 1562 216 )" class="fill" />
    <path d="M 26.582959641255606 33  L 28.37219730941704 33  L 32.07847533632287 29.375  L 27.2219730941704 24.624999999999996  L 23.515695067264577 28.25  L 23.515695067264577 30.000000000000004  L 26.582959641255606 30.000000000000004  L 26.582959641255606 33  Z " stroke-width="0" stroke-dasharray="0" stroke="rgba(255, 255, 255, 0)" fill="none" transform="matrix(1 0 0 1 1562 216 )" class="stroke" mask="url(#Clip542)" />
    <path d="M 42.39854260089686 11.53125  C 42.760650224215254 11.177083333333329  42.771300448430495 10.833333333333329  42.4304932735426 10.5  C 42.08968609865471 10.166666666666663  41.73822869955157 10.177083333333329  41.37612107623318 10.531250000000002  L 30.193385650224215 21.46875  C 29.831278026905828 21.822916666666668  29.820627802690584 22.16666666666666  30.161434977578473 22.5  C 30.502242152466373 22.833333333333332  30.85369955156951 22.82291666666666  31.215807174887896 22.468750000000004  L 42.39854260089686 11.53125  Z " stroke-width="0" stroke-dasharray="0" stroke="rgba(255, 255, 255, 0)" fill="none" transform="matrix(1 0 0 1 1562 216 )" class="stroke" mask="url(#Clip542)" />
    <path d="M 44.347533632286996 28.15625  C 44.77354260089687 28.32291666666666  44.98654708520179 28.625000000000004  44.98654708520179 29.0625  L 44.98654708520179 35  C 44.98654708520179 37.479166666666664  44.086603139013455 39.598958333333336  42.28671524663677 41.359375  C 40.48682735426009 43.119791666666664  38.3195067264574 44  35.7847533632287 44  L 9.201793721973093 44  C 6.667040358744395 44  4.499719730941704 43.119791666666664  2.6998318385650224 41.359375  C 0.8999439461883407 39.598958333333336  0 37.479166666666664  0 35  L 0 9.000000000000002  C 0 6.520833333333329  0.8999439461883407 4.401041666666664  2.6998318385650224 2.6406250000000018  C 4.499719730941704 0.880208333333329  6.667040358744395 0  9.201793721973093 0  L 35.7847533632287 0  C 37.12668161434978 0  38.37275784753363 0.2604166666666643  39.52298206278027 0.7812499999999978  C 39.84248878923767 0.9270833333333304  40.03419282511211 1.1666666666666656  40.098094170403584 1.4999999999999987  C 40.16199551569507 1.8541666666666656  40.06614349775785 2.156249999999998  39.81053811659193 2.40625  L 38.244955156950674 3.9374999999999996  C 37.94674887892377 4.229166666666664  37.60594170403588 4.3125  37.222533632286996 4.187500000000002  C 36.73262331838565 4.062499999999998  36.253363228699556 4.000000000000002  35.7847533632287 4  L 9.201793721973093 4  C 7.7959641255605385 4.000000000000002  6.592488789237669 4.489583333333329  5.591367713004485 5.468749999999999  C 4.590246636771301 6.447916666666664  4.089686098654709 7.625000000000002  4 9.000000000000002  L 4 35  C 4.089686098654709 36.375  4.590246636771301 37.55208333333333  5.591367713004485 38.53125  C 6.592488789237669 39.510416666666664  7.7959641255605385 40  9.201793721973093 40  L 35.7847533632287 40  C 37.190582959641254 40  38.39405829596412 39.510416666666664  39.39517937219731 38.53125  C 40.396300448430495 37.55208333333333  40.89686098654708 36.375  40.89686098654708 35  L 40.89686098654708 31.062500000000004  C 40.89686098654708 30.791666666666664  40.99271300448431 30.5625  41.184417040358746 30.375000000000004  L 43.2292600896861 28.375  C 43.5487668161435 28.062499999999996  43.92152466367713 27.989583333333332  44.347533632286996 28.15625  Z " stroke-width="0" stroke-dasharray="0" stroke="rgba(255, 255, 255, 0)" fill="none" transform="matrix(1 0 0 1 1562 216 )" class="stroke" mask="url(#Clip542)" />
    <path d="M 20.44843049327354 27  L 41.91928251121076 6  L 51.12107623318386 15.000000000000002  L 29.650224215246634 36  L 20.44843049327354 36  L 20.44843049327354 27  Z " stroke-width="0" stroke-dasharray="0" stroke="rgba(255, 255, 255, 0)" fill="none" transform="matrix(1 0 0 1 1562 216 )" class="stroke" mask="url(#Clip542)" />
    <path d="M 57 7.999999999999998  C 57 8.83333333333333  56.7017937219731 9.541666666666664  56.10538116591928 10.125  L 53.16591928251121 12.999999999999998  L 43.964125560538115 4.000000000000002  L 46.90358744394619 1.1249999999999978  C 47.5 0.5416666666666625  48.224215246636774 0.2500000000000022  49.0762331838565 0.2500000000000022  C 49.92825112107624 0.2500000000000022  50.65246636771301 0.5416666666666625  51.24887892376682 1.1249999999999978  L 56.10538116591928 5.875000000000001  C 56.7017937219731 6.458333333333327  57 7.166666666666665  57 7.999999999999998  Z " stroke-width="0" stroke-dasharray="0" stroke="rgba(255, 255, 255, 0)" fill="none" transform="matrix(1 0 0 1 1562 216 )" class="stroke" mask="url(#Clip542)" />
  </g>
</svg>