<?xml version="1.0" encoding="utf-8"?>
<svg version="1.1" xmlns:xlink="http://www.w3.org/1999/xlink" width="42px" height="32px" xmlns="http://www.w3.org/2000/svg">
  <defs>
    <pattern id="BGPattern" patternUnits="userSpaceOnUse" alignment="0 0" imageRepeat="None" />
    <mask fill="white" id="Clip544">
      <path d="M 19.58744394618834 24  L 20.905829596412556 24  L 23.63677130044843 21.363636363636363  L 20.05829596412556 17.909090909090907  L 17.327354260089688 20.545454545454547  L 17.327354260089688 21.81818181818182  L 19.58744394618834 21.81818181818182  L 19.58744394618834 24  Z M 31.24103139013453 8.386363636363637  C 31.507847533632294 8.128787878787875  31.515695067264573 7.878787878787875  31.26457399103139 7.636363636363637  C 31.013452914798208 7.393939393939391  30.75448430493274 7.401515151515149  30.487668161434975 7.65909090909091  L 22.24775784753363 15.613636363636363  C 21.980941704035875 15.871212121212121  21.973094170403588 16.121212121212118  22.22421524663677 16.363636363636363  C 22.475336322869957 16.606060606060606  22.734304932735427 16.598484848484844  23.001121076233186 16.340909090909093  L 31.24103139013453 8.386363636363637  Z M 32.677130044843054 20.477272727272727  C 32.99103139013453 20.598484848484844  33.147982062780265 20.81818181818182  33.147982062780265 21.136363636363637  L 33.147982062780265 25.454545454545453  C 33.147982062780265 27.257575757575758  32.48486547085202 28.799242424242426  31.158632286995513 30.079545454545453  C 29.832399103139018 31.359848484848484  28.235426008968613 32  26.367713004484308 32  L 6.780269058295964 32  C 4.9125560538116595 32  3.315582959641256 31.359848484848484  1.9893497757847534 30.079545454545453  C 0.663116591928251 28.799242424242426  0 27.257575757575758  0 25.454545454545453  L 0 6.545454545454547  C 0 4.742424242424239  0.663116591928251 3.2007575757575744  1.9893497757847534 1.9204545454545467  C 3.315582959641256 0.640151515151512  4.9125560538116595 0  6.780269058295964 0  L 26.367713004484308 0  C 27.35650224215247 0  28.274663677130043 0.18939393939393767  29.122197309417043 0.5681818181818166  C 29.35762331838565 0.6742424242424221  29.498878923766814 0.8484848484848477  29.545964125560538 1.09090909090909  C 29.593049327354258 1.3484848484848477  29.522421524663677 1.5681818181818166  29.33408071748879 1.75  L 28.1804932735426 2.8636363636363633  C 27.960762331838566 3.0757575757575744  27.709641255605383 3.1363636363636367  27.42713004484305 3.0454545454545467  C 27.06614349775785 2.9545454545454533  26.713004484304932 2.90909090909091  26.367713004484308 3  L 6.780269058295964 3  C 5.744394618834081 2.90909090909091  4.857623318385651 3.265151515151512  4.119955156950673 3.9772727272727266  C 3.382286995515696 4.689393939393938  3.013452914798206 5.545454545454547  3 6.545454545454547  L 3 25.454545454545453  C 3.013452914798206 26.454545454545453  3.382286995515696 27.310606060606055  4.119955156950673 28.022727272727273  C 4.857623318385651 28.734848484848484  5.744394618834081 29.09090909090909  6.780269058295964 29  L 26.367713004484308 29  C 27.403587443946186 29.09090909090909  28.29035874439462 28.734848484848484  29.0280269058296 28.022727272727273  C 29.765695067264577 27.310606060606055  30.13452914798206 26.454545454545453  30.13452914798206 25.454545454545453  L 30.13452914798206 22.590909090909093  C 30.13452914798206 22.39393939393939  30.20515695067265 22.227272727272727  30.346412556053814 22.090909090909093  L 31.853139013452914 20.636363636363637  C 32.08856502242152 20.409090909090907  32.36322869955157 20.356060606060606  32.677130044843054 20.477272727272727  Z M 15.06726457399103 19.636363636363637  L 30.887892376681616 4.363636363636363  L 37.66816143497758 10.90909090909091  L 21.847533632286993 26.18181818181818  L 15.06726457399103 26.18181818181818  L 15.06726457399103 19.636363636363637  Z M 42 5.818181818181817  C 42 6.424242424242422  41.780269058295964 6.939393939393938  41.34080717488789 7.363636363636363  L 39.17488789237668 9.454545454545453  L 32.39461883408072 2.90909090909091  L 34.56053811659193 0.8181818181818166  C 35 0.3939393939393909  35.53363228699552 0.18181818181818343  36.16143497757848 0.18181818181818343  C 36.789237668161434 0.18181818181818343  37.32286995515695 0.3939393939393909  37.762331838565025 0.8181818181818166  L 41.34080717488789 4.272727272727273  C 41.780269058295964 4.696969696969692  42 5.212121212121211  42 5.818181818181817  Z " fill-rule="evenodd" />
    </mask>
  </defs>
  <g transform="matrix(1 0 0 1 -1660 -259 )">
    <path d="M 19.58744394618834 24  L 20.905829596412556 24  L 23.63677130044843 21.363636363636363  L 20.05829596412556 17.909090909090907  L 17.327354260089688 20.545454545454547  L 17.327354260089688 21.81818181818182  L 19.58744394618834 21.81818181818182  L 19.58744394618834 24  Z M 31.24103139013453 8.386363636363637  C 31.507847533632294 8.128787878787875  31.515695067264573 7.878787878787875  31.26457399103139 7.636363636363637  C 31.013452914798208 7.393939393939391  30.75448430493274 7.401515151515149  30.487668161434975 7.65909090909091  L 22.24775784753363 15.613636363636363  C 21.980941704035875 15.871212121212121  21.973094170403588 16.121212121212118  22.22421524663677 16.363636363636363  C 22.475336322869957 16.606060606060606  22.734304932735427 16.598484848484844  23.001121076233186 16.340909090909093  L 31.24103139013453 8.386363636363637  Z M 32.677130044843054 20.477272727272727  C 32.99103139013453 20.598484848484844  33.147982062780265 20.81818181818182  33.147982062780265 21.136363636363637  L 33.147982062780265 25.454545454545453  C 33.147982062780265 27.257575757575758  32.48486547085202 28.799242424242426  31.158632286995513 30.079545454545453  C 29.832399103139018 31.359848484848484  28.235426008968613 32  26.367713004484308 32  L 6.780269058295964 32  C 4.9125560538116595 32  3.315582959641256 31.359848484848484  1.9893497757847534 30.079545454545453  C 0.663116591928251 28.799242424242426  0 27.257575757575758  0 25.454545454545453  L 0 6.545454545454547  C 0 4.742424242424239  0.663116591928251 3.2007575757575744  1.9893497757847534 1.9204545454545467  C 3.315582959641256 0.640151515151512  4.9125560538116595 0  6.780269058295964 0  L 26.367713004484308 0  C 27.35650224215247 0  28.274663677130043 0.18939393939393767  29.122197309417043 0.5681818181818166  C 29.35762331838565 0.6742424242424221  29.498878923766814 0.8484848484848477  29.545964125560538 1.09090909090909  C 29.593049327354258 1.3484848484848477  29.522421524663677 1.5681818181818166  29.33408071748879 1.75  L 28.1804932735426 2.8636363636363633  C 27.960762331838566 3.0757575757575744  27.709641255605383 3.1363636363636367  27.42713004484305 3.0454545454545467  C 27.06614349775785 2.9545454545454533  26.713004484304932 2.90909090909091  26.367713004484308 3  L 6.780269058295964 3  C 5.744394618834081 2.90909090909091  4.857623318385651 3.265151515151512  4.119955156950673 3.9772727272727266  C 3.382286995515696 4.689393939393938  3.013452914798206 5.545454545454547  3 6.545454545454547  L 3 25.454545454545453  C 3.013452914798206 26.454545454545453  3.382286995515696 27.310606060606055  4.119955156950673 28.022727272727273  C 4.857623318385651 28.734848484848484  5.744394618834081 29.09090909090909  6.780269058295964 29  L 26.367713004484308 29  C 27.403587443946186 29.09090909090909  28.29035874439462 28.734848484848484  29.0280269058296 28.022727272727273  C 29.765695067264577 27.310606060606055  30.13452914798206 26.454545454545453  30.13452914798206 25.454545454545453  L 30.13452914798206 22.590909090909093  C 30.13452914798206 22.39393939393939  30.20515695067265 22.227272727272727  30.346412556053814 22.090909090909093  L 31.853139013452914 20.636363636363637  C 32.08856502242152 20.409090909090907  32.36322869955157 20.356060606060606  32.677130044843054 20.477272727272727  Z M 15.06726457399103 19.636363636363637  L 30.887892376681616 4.363636363636363  L 37.66816143497758 10.90909090909091  L 21.847533632286993 26.18181818181818  L 15.06726457399103 26.18181818181818  L 15.06726457399103 19.636363636363637  Z M 42 5.818181818181817  C 42 6.424242424242422  41.780269058295964 6.939393939393938  41.34080717488789 7.363636363636363  L 39.17488789237668 9.454545454545453  L 32.39461883408072 2.90909090909091  L 34.56053811659193 0.8181818181818166  C 35 0.3939393939393909  35.53363228699552 0.18181818181818343  36.16143497757848 0.18181818181818343  C 36.789237668161434 0.18181818181818343  37.32286995515695 0.3939393939393909  37.762331838565025 0.8181818181818166  L 41.34080717488789 4.272727272727273  C 41.780269058295964 4.696969696969692  42 5.212121212121211  42 5.818181818181817  Z " fill-rule="nonzero" fill="rgba(0, 0, 0, 1)" stroke="none" transform="matrix(1 0 0 1 1660 259 )" class="fill" />
    <path d="M 19.58744394618834 24  L 20.905829596412556 24  L 23.63677130044843 21.363636363636363  L 20.05829596412556 17.909090909090907  L 17.327354260089688 20.545454545454547  L 17.327354260089688 21.81818181818182  L 19.58744394618834 21.81818181818182  L 19.58744394618834 24  Z " stroke-width="0" stroke-dasharray="0" stroke="rgba(255, 255, 255, 0)" fill="none" transform="matrix(1 0 0 1 1660 259 )" class="stroke" mask="url(#Clip544)" />
    <path d="M 31.24103139013453 8.386363636363637  C 31.507847533632294 8.128787878787875  31.515695067264573 7.878787878787875  31.26457399103139 7.636363636363637  C 31.013452914798208 7.393939393939391  30.75448430493274 7.401515151515149  30.487668161434975 7.65909090909091  L 22.24775784753363 15.613636363636363  C 21.980941704035875 15.871212121212121  21.973094170403588 16.121212121212118  22.22421524663677 16.363636363636363  C 22.475336322869957 16.606060606060606  22.734304932735427 16.598484848484844  23.001121076233186 16.340909090909093  L 31.24103139013453 8.386363636363637  Z " stroke-width="0" stroke-dasharray="0" stroke="rgba(255, 255, 255, 0)" fill="none" transform="matrix(1 0 0 1 1660 259 )" class="stroke" mask="url(#Clip544)" />
    <path d="M 32.677130044843054 20.477272727272727  C 32.99103139013453 20.598484848484844  33.147982062780265 20.81818181818182  33.147982062780265 21.136363636363637  L 33.147982062780265 25.454545454545453  C 33.147982062780265 27.257575757575758  32.48486547085202 28.799242424242426  31.158632286995513 30.079545454545453  C 29.832399103139018 31.359848484848484  28.235426008968613 32  26.367713004484308 32  L 6.780269058295964 32  C 4.9125560538116595 32  3.315582959641256 31.359848484848484  1.9893497757847534 30.079545454545453  C 0.663116591928251 28.799242424242426  0 27.257575757575758  0 25.454545454545453  L 0 6.545454545454547  C 0 4.742424242424239  0.663116591928251 3.2007575757575744  1.9893497757847534 1.9204545454545467  C 3.315582959641256 0.640151515151512  4.9125560538116595 0  6.780269058295964 0  L 26.367713004484308 0  C 27.35650224215247 0  28.274663677130043 0.18939393939393767  29.122197309417043 0.5681818181818166  C 29.35762331838565 0.6742424242424221  29.498878923766814 0.8484848484848477  29.545964125560538 1.09090909090909  C 29.593049327354258 1.3484848484848477  29.522421524663677 1.5681818181818166  29.33408071748879 1.75  L 28.1804932735426 2.8636363636363633  C 27.960762331838566 3.0757575757575744  27.709641255605383 3.1363636363636367  27.42713004484305 3.0454545454545467  C 27.06614349775785 2.9545454545454533  26.713004484304932 2.90909090909091  26.367713004484308 3  L 6.780269058295964 3  C 5.744394618834081 2.90909090909091  4.857623318385651 3.265151515151512  4.119955156950673 3.9772727272727266  C 3.382286995515696 4.689393939393938  3.013452914798206 5.545454545454547  3 6.545454545454547  L 3 25.454545454545453  C 3.013452914798206 26.454545454545453  3.382286995515696 27.310606060606055  4.119955156950673 28.022727272727273  C 4.857623318385651 28.734848484848484  5.744394618834081 29.09090909090909  6.780269058295964 29  L 26.367713004484308 29  C 27.403587443946186 29.09090909090909  28.29035874439462 28.734848484848484  29.0280269058296 28.022727272727273  C 29.765695067264577 27.310606060606055  30.13452914798206 26.454545454545453  30.13452914798206 25.454545454545453  L 30.13452914798206 22.590909090909093  C 30.13452914798206 22.39393939393939  30.20515695067265 22.227272727272727  30.346412556053814 22.090909090909093  L 31.853139013452914 20.636363636363637  C 32.08856502242152 20.409090909090907  32.36322869955157 20.356060606060606  32.677130044843054 20.477272727272727  Z " stroke-width="0" stroke-dasharray="0" stroke="rgba(255, 255, 255, 0)" fill="none" transform="matrix(1 0 0 1 1660 259 )" class="stroke" mask="url(#Clip544)" />
    <path d="M 15.06726457399103 19.636363636363637  L 30.887892376681616 4.363636363636363  L 37.66816143497758 10.90909090909091  L 21.847533632286993 26.18181818181818  L 15.06726457399103 26.18181818181818  L 15.06726457399103 19.636363636363637  Z " stroke-width="0" stroke-dasharray="0" stroke="rgba(255, 255, 255, 0)" fill="none" transform="matrix(1 0 0 1 1660 259 )" class="stroke" mask="url(#Clip544)" />
    <path d="M 42 5.818181818181817  C 42 6.424242424242422  41.780269058295964 6.939393939393938  41.34080717488789 7.363636363636363  L 39.17488789237668 9.454545454545453  L 32.39461883408072 2.90909090909091  L 34.56053811659193 0.8181818181818166  C 35 0.3939393939393909  35.53363228699552 0.18181818181818343  36.16143497757848 0.18181818181818343  C 36.789237668161434 0.18181818181818343  37.32286995515695 0.3939393939393909  37.762331838565025 0.8181818181818166  L 41.34080717488789 4.272727272727273  C 41.780269058295964 4.696969696969692  42 5.212121212121211  42 5.818181818181817  Z " stroke-width="0" stroke-dasharray="0" stroke="rgba(255, 255, 255, 0)" fill="none" transform="matrix(1 0 0 1 1660 259 )" class="stroke" mask="url(#Clip544)" />
  </g>
</svg>