<?xml version="1.0" encoding="utf-8"?>
<svg version="1.1" xmlns:xlink="http://www.w3.org/1999/xlink" width="14px" height="13px" xmlns="http://www.w3.org/2000/svg">
  <defs>
    <pattern id="BGPattern" patternUnits="userSpaceOnUse" alignment="0 0" imageRepeat="None" />
    <mask fill="white" id="Clip535">
      <path d="M 13.528846153846153 4.660995589161941  C 13.842948717948719 4.710144927536232  14 4.835748792270532  14 5.03780718336484  C 14 5.157950010501994  13.927083333333334 5.289014912833437  13.78125 5.431001890359168  L 10.727163461538462 8.330812854442344  L 11.450721153846153 12.426591052299937  C 11.45633012820513 12.464818315479942  11.459134615384617 12.519428691451374  11.459134615384617 12.59042218021424  C 11.459134615384617 12.705103969754253  11.4296875 12.80203738710355  11.37079326923077 12.88122243226213  C 11.311899038461538 12.960407477420711  11.22636217948718 13  11.114182692307692 13  C 11.00761217948718 13  10.895432692307692 12.967233774417139  10.77764423076923 12.901701323251418  L 7 10.968494013862633  L 3.222355769230769 12.901701323251418  C 3.0989583333333335 12.967233774417139  2.986778846153846 13  2.8858173076923075 13  C 2.768028846153846 13  2.6796875 12.960407477420711  2.620793269230769 12.88122243226213  C 2.5618990384615383 12.80203738710355  2.532451923076923 12.705103969754253  2.532451923076923 12.59042218021424  C 2.532451923076923 12.55765595463138  2.538060897435898 12.503045578659945  2.549278846153846 12.426591052299937  L 3.2728365384615383 8.330812854442344  L 0.21033653846153846 5.431001890359168  C 0.07011217948717949 5.2835538752362945  0 5.152488972904853  0 5.03780718336484  C 0 4.835748792270532  0.15705128205128202 4.710144927536232  0.47115384615384615 4.660995589161941  L 4.694711538461538 4.063011972274731  L 6.587740384615385 0.335853812224322  C 6.694310897435898 0.11195127074144018  6.831730769230769 0  7 0  C 7.16826923076923 0  7.305689102564102 0.11195127074144018  7.412259615384616 0.335853812224322  L 9.305288461538462 4.063011972274731  L 13.528846153846153 4.660995589161941  Z " fill-rule="evenodd" />
    </mask>
  </defs>
  <g transform="matrix(1 0 0 1 -354 -693 )">
    <path d="M 13.528846153846153 4.660995589161941  C 13.842948717948719 4.710144927536232  14 4.835748792270532  14 5.03780718336484  C 14 5.157950010501994  13.927083333333334 5.289014912833437  13.78125 5.431001890359168  L 10.727163461538462 8.330812854442344  L 11.450721153846153 12.426591052299937  C 11.45633012820513 12.464818315479942  11.459134615384617 12.519428691451374  11.459134615384617 12.59042218021424  C 11.459134615384617 12.705103969754253  11.4296875 12.80203738710355  11.37079326923077 12.88122243226213  C 11.311899038461538 12.960407477420711  11.22636217948718 13  11.114182692307692 13  C 11.00761217948718 13  10.895432692307692 12.967233774417139  10.77764423076923 12.901701323251418  L 7 10.968494013862633  L 3.222355769230769 12.901701323251418  C 3.0989583333333335 12.967233774417139  2.986778846153846 13  2.8858173076923075 13  C 2.768028846153846 13  2.6796875 12.960407477420711  2.620793269230769 12.88122243226213  C 2.5618990384615383 12.80203738710355  2.532451923076923 12.705103969754253  2.532451923076923 12.59042218021424  C 2.532451923076923 12.55765595463138  2.538060897435898 12.503045578659945  2.549278846153846 12.426591052299937  L 3.2728365384615383 8.330812854442344  L 0.21033653846153846 5.431001890359168  C 0.07011217948717949 5.2835538752362945  0 5.152488972904853  0 5.03780718336484  C 0 4.835748792270532  0.15705128205128202 4.710144927536232  0.47115384615384615 4.660995589161941  L 4.694711538461538 4.063011972274731  L 6.587740384615385 0.335853812224322  C 6.694310897435898 0.11195127074144018  6.831730769230769 0  7 0  C 7.16826923076923 0  7.305689102564102 0.11195127074144018  7.412259615384616 0.335853812224322  L 9.305288461538462 4.063011972274731  L 13.528846153846153 4.660995589161941  Z " fill-rule="nonzero" fill="rgba(0, 0, 0, 1)" stroke="none" transform="matrix(1 0 0 1 354 693 )" class="fill" />
    <path d="M 13.528846153846153 4.660995589161941  C 13.842948717948719 4.710144927536232  14 4.835748792270532  14 5.03780718336484  C 14 5.157950010501994  13.927083333333334 5.289014912833437  13.78125 5.431001890359168  L 10.727163461538462 8.330812854442344  L 11.450721153846153 12.426591052299937  C 11.45633012820513 12.464818315479942  11.459134615384617 12.519428691451374  11.459134615384617 12.59042218021424  C 11.459134615384617 12.705103969754253  11.4296875 12.80203738710355  11.37079326923077 12.88122243226213  C 11.311899038461538 12.960407477420711  11.22636217948718 13  11.114182692307692 13  C 11.00761217948718 13  10.895432692307692 12.967233774417139  10.77764423076923 12.901701323251418  L 7 10.968494013862633  L 3.222355769230769 12.901701323251418  C 3.0989583333333335 12.967233774417139  2.986778846153846 13  2.8858173076923075 13  C 2.768028846153846 13  2.6796875 12.960407477420711  2.620793269230769 12.88122243226213  C 2.5618990384615383 12.80203738710355  2.532451923076923 12.705103969754253  2.532451923076923 12.59042218021424  C 2.532451923076923 12.55765595463138  2.538060897435898 12.503045578659945  2.549278846153846 12.426591052299937  L 3.2728365384615383 8.330812854442344  L 0.21033653846153846 5.431001890359168  C 0.07011217948717949 5.2835538752362945  0 5.152488972904853  0 5.03780718336484  C 0 4.835748792270532  0.15705128205128202 4.710144927536232  0.47115384615384615 4.660995589161941  L 4.694711538461538 4.063011972274731  L 6.587740384615385 0.335853812224322  C 6.694310897435898 0.11195127074144018  6.831730769230769 0  7 0  C 7.16826923076923 0  7.305689102564102 0.11195127074144018  7.412259615384616 0.335853812224322  L 9.305288461538462 4.063011972274731  L 13.528846153846153 4.660995589161941  Z " stroke-width="0" stroke-dasharray="0" stroke="rgba(255, 255, 255, 0)" fill="none" transform="matrix(1 0 0 1 354 693 )" class="stroke" mask="url(#Clip535)" />
  </g>
</svg>