<svg class="svg-icon" style="width: 1em; height: 1em;vertical-align: middle;fill: currentColor;overflow: hidden;" viewBox="0 0 1024 1024" version="1.1" xmlns="http://www.w3.org/2000/svg"><path d="M625.683 746.667c-14.139 0-25.6-11.462-25.6-25.6 0-14.139 11.461-25.6 25.6-25.6h170.666c14.139 0 25.6 11.461 25.6 25.6 0 14.138-11.461 25.6-25.6 25.6H625.683z m59.733-110.934c0-14.138 11.461-25.6 25.6-25.6 14.138 0 25.6 11.462 25.6 25.6V806.4c0 14.138-11.462 25.6-25.6 25.6-14.139 0-25.6-11.462-25.6-25.6V635.733zM488.05 470.561c20.53-5.32 41.485 7.011 46.804 27.541 5.32 20.53-7.011 41.485-27.541 46.804-170.981 44.3-269.3 127.283-300.987 249.736-6.494 25.094 8.585 50.701 33.678 57.195a46.933 46.933 0 0 0 11.758 1.496h249.862c21.207 0 38.4 17.193 38.4 38.4 0 21.208-17.193 38.4-38.4 38.4H251.763a123.733 123.733 0 0 1-30.998-3.945c-66.156-17.12-105.909-84.63-88.79-150.786 39.382-152.185 160.085-254.061 356.076-304.841z m9.632 75.572c-115.465 0-209.067-93.602-209.067-209.066C288.616 221.602 382.218 128 497.683 128c115.464 0 209.066 93.602 209.066 209.067 0 115.464-93.602 209.066-209.066 209.066z m0-76.8c73.048 0 132.266-59.217 132.266-132.266 0-73.05-59.218-132.267-132.266-132.267-73.05 0-132.267 59.218-132.267 132.267 0 73.049 59.218 132.266 132.267 132.266z m213.333 456.534c-113.108 0-204.8-91.692-204.8-204.8 0-113.108 91.692-204.8 204.8-204.8 113.108 0 204.8 91.692 204.8 204.8 0 113.108-91.692 204.8-204.8 204.8z m0-68.267c75.405 0 136.533-61.128 136.533-136.533 0-75.406-61.128-136.534-136.533-136.534-75.405 0-136.533 61.128-136.533 136.534 0 75.405 61.128 136.533 136.533 136.533z"  /></svg>