<?xml version="1.0" encoding="utf-8"?>
<svg version="1.1" xmlns:xlink="http://www.w3.org/1999/xlink" width="14px" height="13px" xmlns="http://www.w3.org/2000/svg">
  <defs>
    <pattern id="BGPattern" patternUnits="userSpaceOnUse" alignment="0 0" imageRepeat="None" />
    <mask fill="white" id="Clip536">
      <path d="M 9.56610576923077 7.962192816635161  L 9.978365384615383 7.5771896660365465  L 12.140625 5.52930056710775  L 9.145432692307692 5.103339634530561  L 8.59014423076923 5.021424070573409  L 8.337740384615383 4.529930686830498  L 7 1.8922495274102071  L 7 9.78071833648393  L 7.49639423076923 10.034656584751103  L 10.171875 11.410838059231255  L 9.667067307692308 8.502835538752363  L 9.56610576923077 7.962192816635161  Z M 13.983173076923077 4.943604284814115  C 14.033653846153847 5.093782818735559  13.966346153846155 5.256248687250577  13.78125 5.431001890359168  L 10.727163461538462 8.330812854442344  L 11.450721153846153 12.426591052299937  C 11.478766025641026 12.60680529300567  11.461939102564104 12.747427011132116  11.400240384615383 12.848456206679268  C 11.338541666666668 12.949485402226422  11.243189102564104 13  11.114182692307692 13  C 11.01883012820513 13  10.906650641025642 12.967233774417139  10.77764423076923 12.901701323251418  L 7 10.968494013862633  L 3.222355769230769 12.901701323251418  C 3.0933493589743595 12.967233774417139  2.9811698717948723 13  2.8858173076923075 13  C 2.756810897435898 13  2.6614583333333335 12.949485402226422  2.5997596153846154 12.848456206679268  C 2.538060897435898 12.747427011132116  2.5212339743589745 12.60680529300567  2.549278846153846 12.426591052299937  L 3.2728365384615383 8.330812854442344  L 0.21033653846153846 5.431001890359168  C 0.030849358974358962 5.256248687250577  -0.03365384615384616 5.093782818735559  0.01682692307692308 4.943604284814115  C 0.06730769230769232 4.793425750892669  0.21875 4.699222852341945  0.47115384615384615 4.660995589161941  L 4.694711538461538 4.063011972274731  L 6.587740384615385 0.335853812224322  C 6.699919871794872 0.11195127074144018  6.8373397435897445 0  7 0  C 7.157051282051283 0  7.294471153846154 0.11195127074144018  7.412259615384616 0.335853812224322  L 9.305288461538462 4.063011972274731  L 13.528846153846153 4.660995589161941  C 13.781250000000002 4.699222852341945  13.93269230769231 4.793425750892669  13.983173076923077 4.943604284814115  Z " fill-rule="evenodd" />
    </mask>
  </defs>
  <g transform="matrix(1 0 0 1 -384 -693 )">
    <path d="M 9.56610576923077 7.962192816635161  L 9.978365384615383 7.5771896660365465  L 12.140625 5.52930056710775  L 9.145432692307692 5.103339634530561  L 8.59014423076923 5.021424070573409  L 8.337740384615383 4.529930686830498  L 7 1.8922495274102071  L 7 9.78071833648393  L 7.49639423076923 10.034656584751103  L 10.171875 11.410838059231255  L 9.667067307692308 8.502835538752363  L 9.56610576923077 7.962192816635161  Z M 13.983173076923077 4.943604284814115  C 14.033653846153847 5.093782818735559  13.966346153846155 5.256248687250577  13.78125 5.431001890359168  L 10.727163461538462 8.330812854442344  L 11.450721153846153 12.426591052299937  C 11.478766025641026 12.60680529300567  11.461939102564104 12.747427011132116  11.400240384615383 12.848456206679268  C 11.338541666666668 12.949485402226422  11.243189102564104 13  11.114182692307692 13  C 11.01883012820513 13  10.906650641025642 12.967233774417139  10.77764423076923 12.901701323251418  L 7 10.968494013862633  L 3.222355769230769 12.901701323251418  C 3.0933493589743595 12.967233774417139  2.9811698717948723 13  2.8858173076923075 13  C 2.756810897435898 13  2.6614583333333335 12.949485402226422  2.5997596153846154 12.848456206679268  C 2.538060897435898 12.747427011132116  2.5212339743589745 12.60680529300567  2.549278846153846 12.426591052299937  L 3.2728365384615383 8.330812854442344  L 0.21033653846153846 5.431001890359168  C 0.030849358974358962 5.256248687250577  -0.03365384615384616 5.093782818735559  0.01682692307692308 4.943604284814115  C 0.06730769230769232 4.793425750892669  0.21875 4.699222852341945  0.47115384615384615 4.660995589161941  L 4.694711538461538 4.063011972274731  L 6.587740384615385 0.335853812224322  C 6.699919871794872 0.11195127074144018  6.8373397435897445 0  7 0  C 7.157051282051283 0  7.294471153846154 0.11195127074144018  7.412259615384616 0.335853812224322  L 9.305288461538462 4.063011972274731  L 13.528846153846153 4.660995589161941  C 13.781250000000002 4.699222852341945  13.93269230769231 4.793425750892669  13.983173076923077 4.943604284814115  Z " fill-rule="nonzero" fill="rgba(0, 0, 0, 1)" stroke="none" transform="matrix(1 0 0 1 384 693 )" class="fill" />
    <path d="M 9.56610576923077 7.962192816635161  L 9.978365384615383 7.5771896660365465  L 12.140625 5.52930056710775  L 9.145432692307692 5.103339634530561  L 8.59014423076923 5.021424070573409  L 8.337740384615383 4.529930686830498  L 7 1.8922495274102071  L 7 9.78071833648393  L 7.49639423076923 10.034656584751103  L 10.171875 11.410838059231255  L 9.667067307692308 8.502835538752363  L 9.56610576923077 7.962192816635161  Z " stroke-width="0" stroke-dasharray="0" stroke="rgba(255, 255, 255, 0)" fill="none" transform="matrix(1 0 0 1 384 693 )" class="stroke" mask="url(#Clip536)" />
    <path d="M 13.983173076923077 4.943604284814115  C 14.033653846153847 5.093782818735559  13.966346153846155 5.256248687250577  13.78125 5.431001890359168  L 10.727163461538462 8.330812854442344  L 11.450721153846153 12.426591052299937  C 11.478766025641026 12.60680529300567  11.461939102564104 12.747427011132116  11.400240384615383 12.848456206679268  C 11.338541666666668 12.949485402226422  11.243189102564104 13  11.114182692307692 13  C 11.01883012820513 13  10.906650641025642 12.967233774417139  10.77764423076923 12.901701323251418  L 7 10.968494013862633  L 3.222355769230769 12.901701323251418  C 3.0933493589743595 12.967233774417139  2.9811698717948723 13  2.8858173076923075 13  C 2.756810897435898 13  2.6614583333333335 12.949485402226422  2.5997596153846154 12.848456206679268  C 2.538060897435898 12.747427011132116  2.5212339743589745 12.60680529300567  2.549278846153846 12.426591052299937  L 3.2728365384615383 8.330812854442344  L 0.21033653846153846 5.431001890359168  C 0.030849358974358962 5.256248687250577  -0.03365384615384616 5.093782818735559  0.01682692307692308 4.943604284814115  C 0.06730769230769232 4.793425750892669  0.21875 4.699222852341945  0.47115384615384615 4.660995589161941  L 4.694711538461538 4.063011972274731  L 6.587740384615385 0.335853812224322  C 6.699919871794872 0.11195127074144018  6.8373397435897445 0  7 0  C 7.157051282051283 0  7.294471153846154 0.11195127074144018  7.412259615384616 0.335853812224322  L 9.305288461538462 4.063011972274731  L 13.528846153846153 4.660995589161941  C 13.781250000000002 4.699222852341945  13.93269230769231 4.793425750892669  13.983173076923077 4.943604284814115  Z " stroke-width="0" stroke-dasharray="0" stroke="rgba(255, 255, 255, 0)" fill="none" transform="matrix(1 0 0 1 384 693 )" class="stroke" mask="url(#Clip536)" />
  </g>
</svg>