<svg class="svg-icon" style="width: 1em; height: 1em;vertical-align: middle;fill: currentColor;overflow: hidden;" viewBox="0 0 1024 1024" version="1.1" xmlns="http://www.w3.org/2000/svg"><path d="M159.288889 887.466667V307.2c0-28.444444 22.755556-51.2 51.2-51.2h45.511111v62.577778c0 11.377778 11.377778 22.755556 22.755556 22.755555h375.466666c11.377778 0 22.755556-11.377778 22.755556-22.755555v-56.888889h28.444444c28.444444 0 51.2 22.755556 51.2 51.2V455.111111h56.888889V307.2c0-56.888889-45.511111-102.4-102.4-102.4H682.666667v-11.377778c0-11.377778-11.377778-22.755556-22.755556-22.755555H568.888889v-28.444445c0-62.577778-45.511111-113.777778-108.088889-113.777778-62.577778 0-113.777778 51.2-113.777778 113.777778V170.666667H273.066667c-11.377778 0-22.755556 11.377778-22.755556 22.755555v11.377778h-45.511111c-56.888889 0-102.4 45.511111-102.4 102.4v580.266667c0 56.888889 45.511111 102.4 102.4 102.4h256v-56.888889H204.8c-22.755556 5.688889-45.511111-17.066667-45.511111-45.511111zM295.822222 216.177778H398.222222V142.222222c0-34.133333 34.133333-62.577778 68.266667-62.577778 17.066667 0 28.444444 5.688889 39.822222 17.066667 11.377778 11.377778 17.066667 28.444444 17.066667 45.511111v73.955556H625.777778v79.644444H295.822222V216.177778z"  /><path d="M227.555556 694.044444h267.377777v45.511112H227.555556zM227.555556 785.066667h170.666666v45.511111H227.555556zM563.2 597.333333V438.044444H403.911111v45.511112h79.644445l-96.711112 96.711111-68.266666-62.577778L210.488889 625.777778l34.133333 34.133333 73.955556-79.644444 68.266666 62.577777L517.688889 512v85.333333zM910.222222 591.644444l-56.888889-51.2c-11.377778-5.688889-22.755556-11.377778-34.133333-11.377777-17.066667 0-28.444444 5.688889-39.822222 17.066666l-199.111111 204.8-5.688889 5.688889-51.2 142.222222c-5.688889 5.688889 0 17.066667 5.688889 22.755556 5.688889 5.688889 11.377778 5.688889 17.066666 5.688889h5.688889l136.533334-56.888889c5.688889 0 5.688889-5.688889 5.688888-5.688889l199.111112-204.8c34.133333-17.066667 34.133333-51.2 17.066666-68.266667z m-301.511111 216.177778l39.822222 39.822222-62.577777 22.755556 22.755555-62.577778z m261.688889-176.355555l-182.044444 187.733333-56.888889-56.888889 182.044444-187.733333c5.688889-5.688889 11.377778-5.688889 11.377778-5.688889l51.2 51.2c0 5.688889 0 5.688889-5.688889 11.377778z"  /></svg>