<svg class="svg-icon" style="width: 1em;height: 1em;vertical-align: middle;fill: currentColor;overflow: hidden;" viewBox="0 0 1024 1024" version="1.1" xmlns="http://www.w3.org/2000/svg"><path d="M198.2 864.8h-90c-5.5 0-10-4.5-10-10v-50c0-5.5 4.5-10 10-10h90c5.5 0 10 4.5 10 10v50c0 5.5-4.5 10-10 10zM916.2 864.8h-90c-5.5 0-10-4.5-10-10v-580c0-5.5 4.5-10 10-10h90c5.5 0 10 4.5 10 10v580c0 5.5-4.5 10-10 10zM736.7 864.8h-90c-5.5 0-10-4.5-10-10v-390c0-5.5 4.5-10 10-10h90c5.5 0 10 4.5 10 10v390c0 5.5-4.5 10-10 10zM557.2 864.8h-90c-5.5 0-10-4.5-10-10v-240c0-5.5 4.5-10 10-10h90c5.5 0 10 4.5 10 10v240c0 5.5-4.5 10-10 10zM377.7 864.8h-90c-5.5 0-10-4.5-10-10v-130c0-5.5 4.5-10 10-10h90c5.5 0 10 4.5 10 10v130c0 5.5-4.5 10-10 10zM950 959.7H70c-5.5 0-10-4.5-10-10v-40c0-5.5 4.5-10 10-10h880c5.5 0 10 4.5 10 10v40c0 5.5-4.5 10-10 10zM118.2 711.3l476.1-558.7-57.5-57.5c-11.7-11.7-3.4-31.6 13.1-31.6h199.5c9.8 0 17.9 8.1 17.9 17.9V281c0 16.5-19.9 24.8-31.6 13.1l-57.6-57.6-559.9 474.8z"  /></svg>