<?xml version="1.0" encoding="utf-8"?>
<svg version="1.1" xmlns:xlink="http://www.w3.org/1999/xlink" width="16px" height="18px" xmlns="http://www.w3.org/2000/svg">
  <defs>
    <pattern id="BGPattern" patternUnits="userSpaceOnUse" alignment="0 0" imageRepeat="None" />
    <mask fill="white" id="Clip548">
      <path d="M 12.041666666666666 0.6830357142857149  L 15.291666666666666 3.816964285714285  C 15.486111111111112 4.004464285714285  15.652777777777779 4.258928571428572  15.791666666666666 4.580357142857142  C 15.930555555555555 4.901785714285715  16 5.196428571428571  16 5.464285714285715  L 16 17.035714285714285  C 16 17.30357142857143  15.902777777777777 17.53125  15.708333333333334 17.71875  C 15.513888888888891 17.90625  15.277777777777779 18  15 18  L 1 18  C 0.7222222222222223 18  0.48611111111111116 17.90625  0.2916666666666667 17.71875  C 0.09722222222222221 17.53125  0 17.30357142857143  0 17.035714285714285  L 0 0.9642857142857149  C 0 0.696428571428571  0.09722222222222221 0.46874999999999933  0.2916666666666667 0.28125  C 0.48611111111111116 0.09375000000000067  0.7222222222222223 0  1 0  L 10.333333333333334 0  C 10.611111111111112 0  10.916666666666666 0.06696428571428648  11.25 0.20089285714285743  C 11.583333333333334 0.3348214285714284  11.847222222222223 0.4955357142857135  12.041666666666666 0.6830357142857149  Z M 11.09375 1.5870535714285723  C 11.010416666666666 1.5066964285714277  10.868055555555557 1.4330357142857122  10.666666666666666 1.3660714285714277  L 10.666666666666666 5.142857142857142  L 14.583333333333334 5.142857142857142  C 14.513888888888891 4.948660714285712  14.4375 4.811383928571428  14.354166666666666 4.731026785714285  L 11.09375 1.5870535714285723  Z M 1.3333333333333333 16.714285714285715  L 14.666666666666666 16.714285714285715  L 14.666666666666666 6.428571428571428  L 10.333333333333334 6.428571428571428  C 10.055555555555555 6.428571428571428  9.819444444444445 6.334821428571427  9.625 6.147321428571428  C 9.430555555555555 5.959821428571429  9.333333333333334 5.732142857142855  9.333333333333334 5.464285714285715  L 9.333333333333334 1.2857142857142851  L 1.3333333333333333 1.2857142857142851  L 1.3333333333333333 16.714285714285715  Z M 7.791666666666667 8.3671875  C 8.173611111111112 9.465401785714285  8.680555555555555 10.262276785714286  9.3125 10.7578125  C 9.541666666666668 10.931919642857142  9.833333333333334 11.119419642857142  10.1875 11.3203125  C 10.597222222222223 11.273437499999998  11.003472222222223 11.25  11.40625 11.25  C 12.427083333333334 11.25  13.041666666666666 11.414062499999998  13.25 11.7421875  C 13.361111111111112 11.889508928571427  13.368055555555557 12.06361607142857  13.270833333333334 12.26450892857143  C 13.270833333333334 12.271205357142858  13.267361111111112 12.277901785714285  13.260416666666666 12.284598214285715  L 13.239583333333334 12.3046875  L 13.239583333333334 12.314732142857142  C 13.197916666666666 12.569196428571429  12.951388888888891 12.69642857142857  12.5 12.69642857142857  C 12.166666666666666 12.69642857142857  11.767361111111112 12.629464285714285  11.302083333333334 12.495535714285715  C 10.836805555555557 12.361607142857142  10.385416666666666 12.184151785714285  9.947916666666666 11.963169642857142  C 8.413194444444445 12.12388392857143  7.052083333333333 12.401785714285712  5.864583333333333 12.796875  C 4.802083333333333 14.551339285714286  3.961805555555556 15.42857142857143  3.34375 15.42857142857143  C 3.2395833333333335 15.42857142857143  3.142361111111111 15.405133928571429  3.0520833333333335 15.35825892857143  L 2.8020833333333335 15.237723214285715  C 2.7951388888888893 15.231026785714285  2.774305555555556 15.214285714285715  2.7395833333333335 15.1875  C 2.6701388888888893 15.120535714285714  2.649305555555556 14.999999999999998  2.6770833333333335 14.825892857142858  C 2.7395833333333335 14.558035714285714  2.934027777777778 14.251674107142856  3.2604166666666665 13.906808035714285  C 3.586805555555556 13.561941964285715  4.045138888888889 13.238839285714285  4.635416666666667 12.9375  C 4.732638888888889 12.877232142857142  4.812500000000001 12.89732142857143  4.875 12.997767857142858  C 4.888888888888889 13.011160714285714  4.895833333333333 13.02455357142857  4.895833333333333 13.03794642857143  C 5.2569444444444455 12.468749999999998  5.628472222222222 11.809151785714285  6.010416666666667 11.059151785714285  C 6.482638888888889 10.148437499999998  6.84375 9.271205357142858  7.09375 8.427455357142858  C 6.927083333333333 7.8783482142857135  6.821180555555556 7.344308035714285  6.776041666666667 6.825334821428572  C 6.730902777777779 6.306361607142856  6.753472222222222 5.879464285714286  6.84375 5.544642857142858  C 6.920138888888889 5.2767857142857135  7.065972222222222 5.142857142857142  7.28125 5.142857142857142  L 7.5 5.142857142857142  L 7.510416666666667 5.142857142857142  C 7.670138888888889 5.142857142857142  7.791666666666667 5.193080357142858  7.875 5.293526785714285  C 8.000000000000002 5.434151785714285  8.031250000000002 5.661830357142855  7.96875 5.9765625  C 7.954861111111112 6.016741071428572  7.940972222222222 6.043526785714285  7.927083333333333 6.056919642857142  C 7.934027777777779 6.077008928571428  7.9375 6.103794642857142  7.9375 6.137276785714285  L 7.9375 6.438616071428572  C 7.923611111111112 7.262276785714285  7.875 7.905133928571428  7.791666666666667 8.3671875  Z M 3.828125 14.142857142857142  C 3.574652777777778 14.437499999999998  3.402777777777778 14.685267857142858  3.3125 14.886160714285715  C 3.673611111111111 14.72544642857143  4.149305555555556 14.196428571428571  4.739583333333333 13.299107142857142  C 4.385416666666667 13.566964285714286  4.081597222222222 13.848214285714286  3.828125 14.142857142857142  Z M 7.458333333333333 5.625  L 7.458333333333333 5.645089285714285  C 7.354166666666667 5.926339285714285  7.347222222222222 6.368303571428572  7.4375 6.970982142857142  C 7.4444444444444455 6.9241071428571415  7.46875 6.776785714285712  7.510416666666667 6.529017857142858  C 7.510416666666667 6.508928571428572  7.534722222222222 6.364955357142855  7.583333333333333 6.097098214285715  C 7.590277777777779 6.070312499999998  7.604166666666667 6.043526785714285  7.625 6.016741071428572  C 7.618055555555556 6.0100446428571415  7.614583333333333 6.003348214285712  7.614583333333333 5.996651785714285  C 7.607638888888889 5.983258928571427  7.604166666666667 5.973214285714285  7.604166666666667 5.966517857142858  C 7.597222222222222 5.819196428571429  7.552083333333333 5.6986607142857135  7.46875 5.604910714285715  C 7.46875 5.611607142857142  7.465277777777779 5.618303571428571  7.458333333333333 5.625  Z M 6.635416666666667 11.450892857142858  C 6.427083333333333 11.825892857142856  6.270833333333333 12.103794642857142  6.166666666666667 12.284598214285715  C 7.104166666666667 11.92299107142857  8.090277777777779 11.651785714285715  9.125 11.470982142857142  C 9.111111111111112 11.464285714285714  9.065972222222223 11.432477678571427  8.989583333333334 11.375558035714285  C 8.913194444444445 11.318638392857142  8.857638888888891 11.273437499999998  8.822916666666666 11.239955357142858  C 8.295138888888891 10.791294642857142  7.854166666666668 10.202008928571427  7.5 9.472098214285715  C 7.3125 10.047991071428571  7.024305555555556 10.707589285714285  6.635416666666667 11.450892857142858  Z M 12.916666666666666 12.154017857142858  C 12.916666666666666 12.147321428571429  12.909722222222223 12.137276785714285  12.895833333333334 12.12388392857143  C 12.729166666666666 11.963169642857142  12.243055555555557 11.8828125  11.4375 11.8828125  C 11.965277777777779 12.070312499999996  12.395833333333334 12.1640625  12.729166666666666 12.1640625  C 12.826388888888891 12.1640625  12.888888888888891 12.160714285714285  12.916666666666666 12.154017857142858  Z " fill-rule="evenodd" />
    </mask>
  </defs>
  <g transform="matrix(1 0 0 1 -64 -1157 )">
    <path d="M 12.041666666666666 0.6830357142857149  L 15.291666666666666 3.816964285714285  C 15.486111111111112 4.004464285714285  15.652777777777779 4.258928571428572  15.791666666666666 4.580357142857142  C 15.930555555555555 4.901785714285715  16 5.196428571428571  16 5.464285714285715  L 16 17.035714285714285  C 16 17.30357142857143  15.902777777777777 17.53125  15.708333333333334 17.71875  C 15.513888888888891 17.90625  15.277777777777779 18  15 18  L 1 18  C 0.7222222222222223 18  0.48611111111111116 17.90625  0.2916666666666667 17.71875  C 0.09722222222222221 17.53125  0 17.30357142857143  0 17.035714285714285  L 0 0.9642857142857149  C 0 0.696428571428571  0.09722222222222221 0.46874999999999933  0.2916666666666667 0.28125  C 0.48611111111111116 0.09375000000000067  0.7222222222222223 0  1 0  L 10.333333333333334 0  C 10.611111111111112 0  10.916666666666666 0.06696428571428648  11.25 0.20089285714285743  C 11.583333333333334 0.3348214285714284  11.847222222222223 0.4955357142857135  12.041666666666666 0.6830357142857149  Z M 11.09375 1.5870535714285723  C 11.010416666666666 1.5066964285714277  10.868055555555557 1.4330357142857122  10.666666666666666 1.3660714285714277  L 10.666666666666666 5.142857142857142  L 14.583333333333334 5.142857142857142  C 14.513888888888891 4.948660714285712  14.4375 4.811383928571428  14.354166666666666 4.731026785714285  L 11.09375 1.5870535714285723  Z M 1.3333333333333333 16.714285714285715  L 14.666666666666666 16.714285714285715  L 14.666666666666666 6.428571428571428  L 10.333333333333334 6.428571428571428  C 10.055555555555555 6.428571428571428  9.819444444444445 6.334821428571427  9.625 6.147321428571428  C 9.430555555555555 5.959821428571429  9.333333333333334 5.732142857142855  9.333333333333334 5.464285714285715  L 9.333333333333334 1.2857142857142851  L 1.3333333333333333 1.2857142857142851  L 1.3333333333333333 16.714285714285715  Z M 7.791666666666667 8.3671875  C 8.173611111111112 9.465401785714285  8.680555555555555 10.262276785714286  9.3125 10.7578125  C 9.541666666666668 10.931919642857142  9.833333333333334 11.119419642857142  10.1875 11.3203125  C 10.597222222222223 11.273437499999998  11.003472222222223 11.25  11.40625 11.25  C 12.427083333333334 11.25  13.041666666666666 11.414062499999998  13.25 11.7421875  C 13.361111111111112 11.889508928571427  13.368055555555557 12.06361607142857  13.270833333333334 12.26450892857143  C 13.270833333333334 12.271205357142858  13.267361111111112 12.277901785714285  13.260416666666666 12.284598214285715  L 13.239583333333334 12.3046875  L 13.239583333333334 12.314732142857142  C 13.197916666666666 12.569196428571429  12.951388888888891 12.69642857142857  12.5 12.69642857142857  C 12.166666666666666 12.69642857142857  11.767361111111112 12.629464285714285  11.302083333333334 12.495535714285715  C 10.836805555555557 12.361607142857142  10.385416666666666 12.184151785714285  9.947916666666666 11.963169642857142  C 8.413194444444445 12.12388392857143  7.052083333333333 12.401785714285712  5.864583333333333 12.796875  C 4.802083333333333 14.551339285714286  3.961805555555556 15.42857142857143  3.34375 15.42857142857143  C 3.2395833333333335 15.42857142857143  3.142361111111111 15.405133928571429  3.0520833333333335 15.35825892857143  L 2.8020833333333335 15.237723214285715  C 2.7951388888888893 15.231026785714285  2.774305555555556 15.214285714285715  2.7395833333333335 15.1875  C 2.6701388888888893 15.120535714285714  2.649305555555556 14.999999999999998  2.6770833333333335 14.825892857142858  C 2.7395833333333335 14.558035714285714  2.934027777777778 14.251674107142856  3.2604166666666665 13.906808035714285  C 3.586805555555556 13.561941964285715  4.045138888888889 13.238839285714285  4.635416666666667 12.9375  C 4.732638888888889 12.877232142857142  4.812500000000001 12.89732142857143  4.875 12.997767857142858  C 4.888888888888889 13.011160714285714  4.895833333333333 13.02455357142857  4.895833333333333 13.03794642857143  C 5.2569444444444455 12.468749999999998  5.628472222222222 11.809151785714285  6.010416666666667 11.059151785714285  C 6.482638888888889 10.148437499999998  6.84375 9.271205357142858  7.09375 8.427455357142858  C 6.927083333333333 7.8783482142857135  6.821180555555556 7.344308035714285  6.776041666666667 6.825334821428572  C 6.730902777777779 6.306361607142856  6.753472222222222 5.879464285714286  6.84375 5.544642857142858  C 6.920138888888889 5.2767857142857135  7.065972222222222 5.142857142857142  7.28125 5.142857142857142  L 7.5 5.142857142857142  L 7.510416666666667 5.142857142857142  C 7.670138888888889 5.142857142857142  7.791666666666667 5.193080357142858  7.875 5.293526785714285  C 8.000000000000002 5.434151785714285  8.031250000000002 5.661830357142855  7.96875 5.9765625  C 7.954861111111112 6.016741071428572  7.940972222222222 6.043526785714285  7.927083333333333 6.056919642857142  C 7.934027777777779 6.077008928571428  7.9375 6.103794642857142  7.9375 6.137276785714285  L 7.9375 6.438616071428572  C 7.923611111111112 7.262276785714285  7.875 7.905133928571428  7.791666666666667 8.3671875  Z M 3.828125 14.142857142857142  C 3.574652777777778 14.437499999999998  3.402777777777778 14.685267857142858  3.3125 14.886160714285715  C 3.673611111111111 14.72544642857143  4.149305555555556 14.196428571428571  4.739583333333333 13.299107142857142  C 4.385416666666667 13.566964285714286  4.081597222222222 13.848214285714286  3.828125 14.142857142857142  Z M 7.458333333333333 5.625  L 7.458333333333333 5.645089285714285  C 7.354166666666667 5.926339285714285  7.347222222222222 6.368303571428572  7.4375 6.970982142857142  C 7.4444444444444455 6.9241071428571415  7.46875 6.776785714285712  7.510416666666667 6.529017857142858  C 7.510416666666667 6.508928571428572  7.534722222222222 6.364955357142855  7.583333333333333 6.097098214285715  C 7.590277777777779 6.070312499999998  7.604166666666667 6.043526785714285  7.625 6.016741071428572  C 7.618055555555556 6.0100446428571415  7.614583333333333 6.003348214285712  7.614583333333333 5.996651785714285  C 7.607638888888889 5.983258928571427  7.604166666666667 5.973214285714285  7.604166666666667 5.966517857142858  C 7.597222222222222 5.819196428571429  7.552083333333333 5.6986607142857135  7.46875 5.604910714285715  C 7.46875 5.611607142857142  7.465277777777779 5.618303571428571  7.458333333333333 5.625  Z M 6.635416666666667 11.450892857142858  C 6.427083333333333 11.825892857142856  6.270833333333333 12.103794642857142  6.166666666666667 12.284598214285715  C 7.104166666666667 11.92299107142857  8.090277777777779 11.651785714285715  9.125 11.470982142857142  C 9.111111111111112 11.464285714285714  9.065972222222223 11.432477678571427  8.989583333333334 11.375558035714285  C 8.913194444444445 11.318638392857142  8.857638888888891 11.273437499999998  8.822916666666666 11.239955357142858  C 8.295138888888891 10.791294642857142  7.854166666666668 10.202008928571427  7.5 9.472098214285715  C 7.3125 10.047991071428571  7.024305555555556 10.707589285714285  6.635416666666667 11.450892857142858  Z M 12.916666666666666 12.154017857142858  C 12.916666666666666 12.147321428571429  12.909722222222223 12.137276785714285  12.895833333333334 12.12388392857143  C 12.729166666666666 11.963169642857142  12.243055555555557 11.8828125  11.4375 11.8828125  C 11.965277777777779 12.070312499999996  12.395833333333334 12.1640625  12.729166666666666 12.1640625  C 12.826388888888891 12.1640625  12.888888888888891 12.160714285714285  12.916666666666666 12.154017857142858  Z " fill-rule="nonzero" fill="rgba(255, 255, 255, 0.9921568627450981)" stroke="none" transform="matrix(1 0 0 1 64 1157 )" class="fill" />
    <path d="M 12.041666666666666 0.6830357142857149  L 15.291666666666666 3.816964285714285  C 15.486111111111112 4.004464285714285  15.652777777777779 4.258928571428572  15.791666666666666 4.580357142857142  C 15.930555555555555 4.901785714285715  16 5.196428571428571  16 5.464285714285715  L 16 17.035714285714285  C 16 17.30357142857143  15.902777777777777 17.53125  15.708333333333334 17.71875  C 15.513888888888891 17.90625  15.277777777777779 18  15 18  L 1 18  C 0.7222222222222223 18  0.48611111111111116 17.90625  0.2916666666666667 17.71875  C 0.09722222222222221 17.53125  0 17.30357142857143  0 17.035714285714285  L 0 0.9642857142857149  C 0 0.696428571428571  0.09722222222222221 0.46874999999999933  0.2916666666666667 0.28125  C 0.48611111111111116 0.09375000000000067  0.7222222222222223 0  1 0  L 10.333333333333334 0  C 10.611111111111112 0  10.916666666666666 0.06696428571428648  11.25 0.20089285714285743  C 11.583333333333334 0.3348214285714284  11.847222222222223 0.4955357142857135  12.041666666666666 0.6830357142857149  Z " stroke-width="0" stroke-dasharray="0" stroke="rgba(255, 255, 255, 0)" fill="none" transform="matrix(1 0 0 1 64 1157 )" class="stroke" mask="url(#Clip548)" />
    <path d="M 11.09375 1.5870535714285723  C 11.010416666666666 1.5066964285714277  10.868055555555557 1.4330357142857122  10.666666666666666 1.3660714285714277  L 10.666666666666666 5.142857142857142  L 14.583333333333334 5.142857142857142  C 14.513888888888891 4.948660714285712  14.4375 4.811383928571428  14.354166666666666 4.731026785714285  L 11.09375 1.5870535714285723  Z " stroke-width="0" stroke-dasharray="0" stroke="rgba(255, 255, 255, 0)" fill="none" transform="matrix(1 0 0 1 64 1157 )" class="stroke" mask="url(#Clip548)" />
    <path d="M 1.3333333333333333 16.714285714285715  L 14.666666666666666 16.714285714285715  L 14.666666666666666 6.428571428571428  L 10.333333333333334 6.428571428571428  C 10.055555555555555 6.428571428571428  9.819444444444445 6.334821428571427  9.625 6.147321428571428  C 9.430555555555555 5.959821428571429  9.333333333333334 5.732142857142855  9.333333333333334 5.464285714285715  L 9.333333333333334 1.2857142857142851  L 1.3333333333333333 1.2857142857142851  L 1.3333333333333333 16.714285714285715  Z " stroke-width="0" stroke-dasharray="0" stroke="rgba(255, 255, 255, 0)" fill="none" transform="matrix(1 0 0 1 64 1157 )" class="stroke" mask="url(#Clip548)" />
    <path d="M 7.791666666666667 8.3671875  C 8.173611111111112 9.465401785714285  8.680555555555555 10.262276785714286  9.3125 10.7578125  C 9.541666666666668 10.931919642857142  9.833333333333334 11.119419642857142  10.1875 11.3203125  C 10.597222222222223 11.273437499999998  11.003472222222223 11.25  11.40625 11.25  C 12.427083333333334 11.25  13.041666666666666 11.414062499999998  13.25 11.7421875  C 13.361111111111112 11.889508928571427  13.368055555555557 12.06361607142857  13.270833333333334 12.26450892857143  C 13.270833333333334 12.271205357142858  13.267361111111112 12.277901785714285  13.260416666666666 12.284598214285715  L 13.239583333333334 12.3046875  L 13.239583333333334 12.314732142857142  C 13.197916666666666 12.569196428571429  12.951388888888891 12.69642857142857  12.5 12.69642857142857  C 12.166666666666666 12.69642857142857  11.767361111111112 12.629464285714285  11.302083333333334 12.495535714285715  C 10.836805555555557 12.361607142857142  10.385416666666666 12.184151785714285  9.947916666666666 11.963169642857142  C 8.413194444444445 12.12388392857143  7.052083333333333 12.401785714285712  5.864583333333333 12.796875  C 4.802083333333333 14.551339285714286  3.961805555555556 15.42857142857143  3.34375 15.42857142857143  C 3.2395833333333335 15.42857142857143  3.142361111111111 15.405133928571429  3.0520833333333335 15.35825892857143  L 2.8020833333333335 15.237723214285715  C 2.7951388888888893 15.231026785714285  2.774305555555556 15.214285714285715  2.7395833333333335 15.1875  C 2.6701388888888893 15.120535714285714  2.649305555555556 14.999999999999998  2.6770833333333335 14.825892857142858  C 2.7395833333333335 14.558035714285714  2.934027777777778 14.251674107142856  3.2604166666666665 13.906808035714285  C 3.586805555555556 13.561941964285715  4.045138888888889 13.238839285714285  4.635416666666667 12.9375  C 4.732638888888889 12.877232142857142  4.812500000000001 12.89732142857143  4.875 12.997767857142858  C 4.888888888888889 13.011160714285714  4.895833333333333 13.02455357142857  4.895833333333333 13.03794642857143  C 5.2569444444444455 12.468749999999998  5.628472222222222 11.809151785714285  6.010416666666667 11.059151785714285  C 6.482638888888889 10.148437499999998  6.84375 9.271205357142858  7.09375 8.427455357142858  C 6.927083333333333 7.8783482142857135  6.821180555555556 7.344308035714285  6.776041666666667 6.825334821428572  C 6.730902777777779 6.306361607142856  6.753472222222222 5.879464285714286  6.84375 5.544642857142858  C 6.920138888888889 5.2767857142857135  7.065972222222222 5.142857142857142  7.28125 5.142857142857142  L 7.5 5.142857142857142  L 7.510416666666667 5.142857142857142  C 7.670138888888889 5.142857142857142  7.791666666666667 5.193080357142858  7.875 5.293526785714285  C 8.000000000000002 5.434151785714285  8.031250000000002 5.661830357142855  7.96875 5.9765625  C 7.954861111111112 6.016741071428572  7.940972222222222 6.043526785714285  7.927083333333333 6.056919642857142  C 7.934027777777779 6.077008928571428  7.9375 6.103794642857142  7.9375 6.137276785714285  L 7.9375 6.438616071428572  C 7.923611111111112 7.262276785714285  7.875 7.905133928571428  7.791666666666667 8.3671875  Z " stroke-width="0" stroke-dasharray="0" stroke="rgba(255, 255, 255, 0)" fill="none" transform="matrix(1 0 0 1 64 1157 )" class="stroke" mask="url(#Clip548)" />
    <path d="M 3.828125 14.142857142857142  C 3.574652777777778 14.437499999999998  3.402777777777778 14.685267857142858  3.3125 14.886160714285715  C 3.673611111111111 14.72544642857143  4.149305555555556 14.196428571428571  4.739583333333333 13.299107142857142  C 4.385416666666667 13.566964285714286  4.081597222222222 13.848214285714286  3.828125 14.142857142857142  Z " stroke-width="0" stroke-dasharray="0" stroke="rgba(255, 255, 255, 0)" fill="none" transform="matrix(1 0 0 1 64 1157 )" class="stroke" mask="url(#Clip548)" />
    <path d="M 7.458333333333333 5.625  L 7.458333333333333 5.645089285714285  C 7.354166666666667 5.926339285714285  7.347222222222222 6.368303571428572  7.4375 6.970982142857142  C 7.4444444444444455 6.9241071428571415  7.46875 6.776785714285712  7.510416666666667 6.529017857142858  C 7.510416666666667 6.508928571428572  7.534722222222222 6.364955357142855  7.583333333333333 6.097098214285715  C 7.590277777777779 6.070312499999998  7.604166666666667 6.043526785714285  7.625 6.016741071428572  C 7.618055555555556 6.0100446428571415  7.614583333333333 6.003348214285712  7.614583333333333 5.996651785714285  C 7.607638888888889 5.983258928571427  7.604166666666667 5.973214285714285  7.604166666666667 5.966517857142858  C 7.597222222222222 5.819196428571429  7.552083333333333 5.6986607142857135  7.46875 5.604910714285715  C 7.46875 5.611607142857142  7.465277777777779 5.618303571428571  7.458333333333333 5.625  Z " stroke-width="0" stroke-dasharray="0" stroke="rgba(255, 255, 255, 0)" fill="none" transform="matrix(1 0 0 1 64 1157 )" class="stroke" mask="url(#Clip548)" />
    <path d="M 6.635416666666667 11.450892857142858  C 6.427083333333333 11.825892857142856  6.270833333333333 12.103794642857142  6.166666666666667 12.284598214285715  C 7.104166666666667 11.92299107142857  8.090277777777779 11.651785714285715  9.125 11.470982142857142  C 9.111111111111112 11.464285714285714  9.065972222222223 11.432477678571427  8.989583333333334 11.375558035714285  C 8.913194444444445 11.318638392857142  8.857638888888891 11.273437499999998  8.822916666666666 11.239955357142858  C 8.295138888888891 10.791294642857142  7.854166666666668 10.202008928571427  7.5 9.472098214285715  C 7.3125 10.047991071428571  7.024305555555556 10.707589285714285  6.635416666666667 11.450892857142858  Z " stroke-width="0" stroke-dasharray="0" stroke="rgba(255, 255, 255, 0)" fill="none" transform="matrix(1 0 0 1 64 1157 )" class="stroke" mask="url(#Clip548)" />
    <path d="M 12.916666666666666 12.154017857142858  C 12.916666666666666 12.147321428571429  12.909722222222223 12.137276785714285  12.895833333333334 12.12388392857143  C 12.729166666666666 11.963169642857142  12.243055555555557 11.8828125  11.4375 11.8828125  C 11.965277777777779 12.070312499999996  12.395833333333334 12.1640625  12.729166666666666 12.1640625  C 12.826388888888891 12.1640625  12.888888888888891 12.160714285714285  12.916666666666666 12.154017857142858  Z " stroke-width="0" stroke-dasharray="0" stroke="rgba(255, 255, 255, 0)" fill="none" transform="matrix(1 0 0 1 64 1157 )" class="stroke" mask="url(#Clip548)" />
  </g>
</svg>