<?xml version="1.0" encoding="utf-8"?>
<svg version="1.1" xmlns:xlink="http://www.w3.org/1999/xlink" width="25px" height="19px" xmlns="http://www.w3.org/2000/svg">
  <defs>
    <pattern id="BGPattern" patternUnits="userSpaceOnUse" alignment="0 0" imageRepeat="None" />
    <mask fill="white" id="Clip529">
      <path d="M 11.659192825112108 14.25  L 12.443946188340806 14.25  L 14.069506726457398 12.68465909090909  L 11.939461883408072 10.633522727272727  L 10.31390134529148 12.198863636363637  L 10.31390134529148 12.954545454545455  L 11.659192825112108 12.954545454545455  L 11.659192825112108 14.25  Z M 18.59585201793722 4.979403409090909  C 18.754671150971603 4.826467803030301  18.7593423019432 4.678030303030301  18.609865470852018 4.534090909090909  C 18.46038863976084 4.390151515151514  18.30624065769806 4.394649621212119  18.147421524663677 4.5475852272727275  L 13.242713004484305 9.27059659090909  C 13.083893871449925 9.423532196969697  13.079222720478326 9.571969696969695  13.228699551569505 9.71590909090909  C 13.378176382660689 9.859848484848484  13.532324364723468 9.855350378787875  13.69114349775785 9.702414772727273  L 18.59585201793722 4.979403409090909  Z M 19.45067264573991 12.158380681818182  C 19.63751868460389 12.230350378787875  19.730941704035875 12.360795454545455  19.730941704035875 12.54971590909091  L 19.730941704035875 15.113636363636363  C 19.730941704035875 16.184185606060606  19.336229446935725 17.09955018939394  18.546804932735427 17.859730113636363  C 17.757380418535128 18.61991003787879  16.80680119581465 19  15.695067264573993 19  L 4.0358744394618835 19  C 2.924140508221226 19  1.9735612855007474 18.61991003787879  1.1841367713004485 17.859730113636363  C 0.39471225710014946 17.09955018939394  0 16.184185606060606  0 15.113636363636363  L 0 3.886363636363637  C 0 2.815814393939392  0.39471225710014946 1.9004498106060597  1.1841367713004485 1.1402698863636371  C 1.9735612855007474 0.38008996212121027  2.924140508221226 0  4.0358744394618835 0  L 15.695067264573993 0  C 16.283632286995516 0  16.830156950672645 0.11245265151515049  17.334641255605383 0.3373579545454536  C 17.474775784753362 0.4003314393939381  17.55885650224215 0.5037878787878783  17.58688340807175 0.6477272727272722  C 17.614910313901344 0.8006628787878783  17.57286995515695 0.9311079545454536  17.460762331838563 1.0390625  L 16.77410313901345 1.7002840909090908  C 16.64331091180867 1.8262310606060597  16.49383408071749 1.8622159090909092  16.32567264573991 1.8082386363636371  C 16.11079970104634 1.7542613636363629  15.900597907324364 1.727272727272728  15.695067264573993 2  L 4.0358744394618835 2  C 3.4192825112107625 1.727272727272728  2.8914424514200303 1.9386837121212102  2.4523542600896864 2.3615056818181817  C 2.013266068759343 2.7843276515151505  1.7937219730941705 3.292613636363637  2 3.886363636363637  L 2 15.113636363636363  C 1.7937219730941705 15.707386363636363  2.013266068759343 16.215672348484844  2.4523542600896864 16.63849431818182  C 2.8914424514200303 17.06131628787879  3.4192825112107625 17.272727272727273  4.0358744394618835 17  L 15.695067264573993 17  C 16.31165919282511 17.272727272727273  16.839499252615845 17.06131628787879  17.27858744394619 16.63849431818182  C 17.717675635276535 16.215672348484844  17.937219730941703 15.707386363636363  17.937219730941703 15.113636363636363  L 17.937219730941703 13.413352272727273  C 17.937219730941703 13.296401515151514  17.9792600896861 13.197443181818182  18.06334080717489 13.116477272727273  L 18.96020179372197 12.25284090909091  C 19.100336322869953 12.117897727272727  19.263826606875938 12.086410984848484  19.45067264573991 12.158380681818182  Z M 8.968609865470851 11.65909090909091  L 18.385650224215247 2.590909090909091  L 22.421524663677133 6.4772727272727275  L 13.004484304932735 15.545454545454545  L 8.968609865470851 15.545454545454545  L 8.968609865470851 11.65909090909091  Z M 25 3.4545454545454537  C 25 3.814393939393938  24.869207772795217 4.1202651515151505  24.60762331838565 4.372159090909091  L 23.318385650224215 5.613636363636363  L 19.282511210762333 1.727272727272728  L 20.571748878923767 0.4857954545454536  C 20.833333333333336 0.23390151515151336  21.150971599402094 0.10795454545454641  21.524663677130047 0.10795454545454641  C 21.898355754858 0.10795454545454641  22.215994020926757 0.23390151515151336  22.477578475336323 0.4857954545454536  L 24.60762331838565 2.5369318181818183  C 24.869207772795217 2.7888257575757547  25 3.094696969696969  25 3.4545454545454537  Z " fill-rule="evenodd" />
    </mask>
  </defs>
  <g transform="matrix(1 0 0 1 -10 -8 )">
    <path d="M 11.659192825112108 14.25  L 12.443946188340806 14.25  L 14.069506726457398 12.68465909090909  L 11.939461883408072 10.633522727272727  L 10.31390134529148 12.198863636363637  L 10.31390134529148 12.954545454545455  L 11.659192825112108 12.954545454545455  L 11.659192825112108 14.25  Z M 18.59585201793722 4.979403409090909  C 18.754671150971603 4.826467803030301  18.7593423019432 4.678030303030301  18.609865470852018 4.534090909090909  C 18.46038863976084 4.390151515151514  18.30624065769806 4.394649621212119  18.147421524663677 4.5475852272727275  L 13.242713004484305 9.27059659090909  C 13.083893871449925 9.423532196969697  13.079222720478326 9.571969696969695  13.228699551569505 9.71590909090909  C 13.378176382660689 9.859848484848484  13.532324364723468 9.855350378787875  13.69114349775785 9.702414772727273  L 18.59585201793722 4.979403409090909  Z M 19.45067264573991 12.158380681818182  C 19.63751868460389 12.230350378787875  19.730941704035875 12.360795454545455  19.730941704035875 12.54971590909091  L 19.730941704035875 15.113636363636363  C 19.730941704035875 16.184185606060606  19.336229446935725 17.09955018939394  18.546804932735427 17.859730113636363  C 17.757380418535128 18.61991003787879  16.80680119581465 19  15.695067264573993 19  L 4.0358744394618835 19  C 2.924140508221226 19  1.9735612855007474 18.61991003787879  1.1841367713004485 17.859730113636363  C 0.39471225710014946 17.09955018939394  0 16.184185606060606  0 15.113636363636363  L 0 3.886363636363637  C 0 2.815814393939392  0.39471225710014946 1.9004498106060597  1.1841367713004485 1.1402698863636371  C 1.9735612855007474 0.38008996212121027  2.924140508221226 0  4.0358744394618835 0  L 15.695067264573993 0  C 16.283632286995516 0  16.830156950672645 0.11245265151515049  17.334641255605383 0.3373579545454536  C 17.474775784753362 0.4003314393939381  17.55885650224215 0.5037878787878783  17.58688340807175 0.6477272727272722  C 17.614910313901344 0.8006628787878783  17.57286995515695 0.9311079545454536  17.460762331838563 1.0390625  L 16.77410313901345 1.7002840909090908  C 16.64331091180867 1.8262310606060597  16.49383408071749 1.8622159090909092  16.32567264573991 1.8082386363636371  C 16.11079970104634 1.7542613636363629  15.900597907324364 1.727272727272728  15.695067264573993 2  L 4.0358744394618835 2  C 3.4192825112107625 1.727272727272728  2.8914424514200303 1.9386837121212102  2.4523542600896864 2.3615056818181817  C 2.013266068759343 2.7843276515151505  1.7937219730941705 3.292613636363637  2 3.886363636363637  L 2 15.113636363636363  C 1.7937219730941705 15.707386363636363  2.013266068759343 16.215672348484844  2.4523542600896864 16.63849431818182  C 2.8914424514200303 17.06131628787879  3.4192825112107625 17.272727272727273  4.0358744394618835 17  L 15.695067264573993 17  C 16.31165919282511 17.272727272727273  16.839499252615845 17.06131628787879  17.27858744394619 16.63849431818182  C 17.717675635276535 16.215672348484844  17.937219730941703 15.707386363636363  17.937219730941703 15.113636363636363  L 17.937219730941703 13.413352272727273  C 17.937219730941703 13.296401515151514  17.9792600896861 13.197443181818182  18.06334080717489 13.116477272727273  L 18.96020179372197 12.25284090909091  C 19.100336322869953 12.117897727272727  19.263826606875938 12.086410984848484  19.45067264573991 12.158380681818182  Z M 8.968609865470851 11.65909090909091  L 18.385650224215247 2.590909090909091  L 22.421524663677133 6.4772727272727275  L 13.004484304932735 15.545454545454545  L 8.968609865470851 15.545454545454545  L 8.968609865470851 11.65909090909091  Z M 25 3.4545454545454537  C 25 3.814393939393938  24.869207772795217 4.1202651515151505  24.60762331838565 4.372159090909091  L 23.318385650224215 5.613636363636363  L 19.282511210762333 1.727272727272728  L 20.571748878923767 0.4857954545454536  C 20.833333333333336 0.23390151515151336  21.150971599402094 0.10795454545454641  21.524663677130047 0.10795454545454641  C 21.898355754858 0.10795454545454641  22.215994020926757 0.23390151515151336  22.477578475336323 0.4857954545454536  L 24.60762331838565 2.5369318181818183  C 24.869207772795217 2.7888257575757547  25 3.094696969696969  25 3.4545454545454537  Z " fill-rule="nonzero" fill="rgba(255, 255, 255, 0.9921568627450981)" stroke="none" transform="matrix(1 0 0 1 10 8 )" class="fill" />
    <path d="M 11.659192825112108 14.25  L 12.443946188340806 14.25  L 14.069506726457398 12.68465909090909  L 11.939461883408072 10.633522727272727  L 10.31390134529148 12.198863636363637  L 10.31390134529148 12.954545454545455  L 11.659192825112108 12.954545454545455  L 11.659192825112108 14.25  Z " stroke-width="0" stroke-dasharray="0" stroke="rgba(255, 255, 255, 0)" fill="none" transform="matrix(1 0 0 1 10 8 )" class="stroke" mask="url(#Clip529)" />
    <path d="M 18.59585201793722 4.979403409090909  C 18.754671150971603 4.826467803030301  18.7593423019432 4.678030303030301  18.609865470852018 4.534090909090909  C 18.46038863976084 4.390151515151514  18.30624065769806 4.394649621212119  18.147421524663677 4.5475852272727275  L 13.242713004484305 9.27059659090909  C 13.083893871449925 9.423532196969697  13.079222720478326 9.571969696969695  13.228699551569505 9.71590909090909  C 13.378176382660689 9.859848484848484  13.532324364723468 9.855350378787875  13.69114349775785 9.702414772727273  L 18.59585201793722 4.979403409090909  Z " stroke-width="0" stroke-dasharray="0" stroke="rgba(255, 255, 255, 0)" fill="none" transform="matrix(1 0 0 1 10 8 )" class="stroke" mask="url(#Clip529)" />
    <path d="M 19.45067264573991 12.158380681818182  C 19.63751868460389 12.230350378787875  19.730941704035875 12.360795454545455  19.730941704035875 12.54971590909091  L 19.730941704035875 15.113636363636363  C 19.730941704035875 16.184185606060606  19.336229446935725 17.09955018939394  18.546804932735427 17.859730113636363  C 17.757380418535128 18.61991003787879  16.80680119581465 19  15.695067264573993 19  L 4.0358744394618835 19  C 2.924140508221226 19  1.9735612855007474 18.61991003787879  1.1841367713004485 17.859730113636363  C 0.39471225710014946 17.09955018939394  0 16.184185606060606  0 15.113636363636363  L 0 3.886363636363637  C 0 2.815814393939392  0.39471225710014946 1.9004498106060597  1.1841367713004485 1.1402698863636371  C 1.9735612855007474 0.38008996212121027  2.924140508221226 0  4.0358744394618835 0  L 15.695067264573993 0  C 16.283632286995516 0  16.830156950672645 0.11245265151515049  17.334641255605383 0.3373579545454536  C 17.474775784753362 0.4003314393939381  17.55885650224215 0.5037878787878783  17.58688340807175 0.6477272727272722  C 17.614910313901344 0.8006628787878783  17.57286995515695 0.9311079545454536  17.460762331838563 1.0390625  L 16.77410313901345 1.7002840909090908  C 16.64331091180867 1.8262310606060597  16.49383408071749 1.8622159090909092  16.32567264573991 1.8082386363636371  C 16.11079970104634 1.7542613636363629  15.900597907324364 1.727272727272728  15.695067264573993 2  L 4.0358744394618835 2  C 3.4192825112107625 1.727272727272728  2.8914424514200303 1.9386837121212102  2.4523542600896864 2.3615056818181817  C 2.013266068759343 2.7843276515151505  1.7937219730941705 3.292613636363637  2 3.886363636363637  L 2 15.113636363636363  C 1.7937219730941705 15.707386363636363  2.013266068759343 16.215672348484844  2.4523542600896864 16.63849431818182  C 2.8914424514200303 17.06131628787879  3.4192825112107625 17.272727272727273  4.0358744394618835 17  L 15.695067264573993 17  C 16.31165919282511 17.272727272727273  16.839499252615845 17.06131628787879  17.27858744394619 16.63849431818182  C 17.717675635276535 16.215672348484844  17.937219730941703 15.707386363636363  17.937219730941703 15.113636363636363  L 17.937219730941703 13.413352272727273  C 17.937219730941703 13.296401515151514  17.9792600896861 13.197443181818182  18.06334080717489 13.116477272727273  L 18.96020179372197 12.25284090909091  C 19.100336322869953 12.117897727272727  19.263826606875938 12.086410984848484  19.45067264573991 12.158380681818182  Z " stroke-width="0" stroke-dasharray="0" stroke="rgba(255, 255, 255, 0)" fill="none" transform="matrix(1 0 0 1 10 8 )" class="stroke" mask="url(#Clip529)" />
    <path d="M 8.968609865470851 11.65909090909091  L 18.385650224215247 2.590909090909091  L 22.421524663677133 6.4772727272727275  L 13.004484304932735 15.545454545454545  L 8.968609865470851 15.545454545454545  L 8.968609865470851 11.65909090909091  Z " stroke-width="0" stroke-dasharray="0" stroke="rgba(255, 255, 255, 0)" fill="none" transform="matrix(1 0 0 1 10 8 )" class="stroke" mask="url(#Clip529)" />
    <path d="M 25 3.4545454545454537  C 25 3.814393939393938  24.869207772795217 4.1202651515151505  24.60762331838565 4.372159090909091  L 23.318385650224215 5.613636363636363  L 19.282511210762333 1.727272727272728  L 20.571748878923767 0.4857954545454536  C 20.833333333333336 0.23390151515151336  21.150971599402094 0.10795454545454641  21.524663677130047 0.10795454545454641  C 21.898355754858 0.10795454545454641  22.215994020926757 0.23390151515151336  22.477578475336323 0.4857954545454536  L 24.60762331838565 2.5369318181818183  C 24.869207772795217 2.7888257575757547  25 3.094696969696969  25 3.4545454545454537  Z " stroke-width="0" stroke-dasharray="0" stroke="rgba(255, 255, 255, 0)" fill="none" transform="matrix(1 0 0 1 10 8 )" class="stroke" mask="url(#Clip529)" />
  </g>
</svg>