<?xml version="1.0" encoding="utf-8"?>
<svg version="1.1" xmlns:xlink="http://www.w3.org/1999/xlink" width="24px" height="24px" xmlns="http://www.w3.org/2000/svg">
  <defs>
    <pattern id="BGPattern" patternUnits="userSpaceOnUse" alignment="0 0" imageRepeat="None" />
    <mask fill="white" id="Clip510">
      <path d="M 13.941371599833172 2.391961177190145  C 15.472918669382732 3.9235082467397056  16.333333301058396 6.000732024510702  16.333333333333336 8.166666666666668  C 16.333333349314266 9.239128629366558  16.122096995512646 10.301089475552242  15.711683591206867 11.291915098826092  C 15.301270186901093 12.282740722099941  14.699716726938885 13.183026472727459  13.941371599833172 13.941371599833172  C 13.183026472727459 14.699716726938885  12.282740722099941 15.301270152131718  11.291915098826092 15.711683591206867  C 10.301089475552242 16.12209703028202  9.239128629366558 16.333333333333332  8.166666666666668 16.333333333333336  C 7.094204703966778 16.333333333333332  6.03224441409111 16.12209703028202  5.041418790817261 15.711683591206867  C 4.050593167543411 15.301270152131718  3.1503063042958575 14.699716726938885  2.391961177190145 13.941371599833172  C 1.6336160500844321 13.183026472727459  1.0320639808972678 12.282740722099941  0.6216505765914917 11.291915098826092  C 0.2112371722857157 10.301089475552242  0 9.239128629366558  0 8.166666666666668  C 0 6.000732024510702  0.8604141076405845 3.9235082467397056  2.391961177190145 2.391961177190145  C 3.9235082467397056 0.8604141076405845  6.000732024510702 0  8.166666666666668 0  C 10.332601308822634 0  12.409824530283611 0.8604141076405845  13.941371599833172 2.391961177190145  Z " fill-rule="evenodd" />
    </mask>
  </defs>
  <g transform="matrix(1 0 0 1 -118 -12 )">
    <path d="M 13.941371599833172 2.391961177190145  C 15.472918669382732 3.9235082467397056  16.333333301058396 6.000732024510702  16.333333333333336 8.166666666666668  C 16.333333349314266 9.239128629366558  16.122096995512646 10.301089475552242  15.711683591206867 11.291915098826092  C 15.301270186901093 12.282740722099941  14.699716726938885 13.183026472727459  13.941371599833172 13.941371599833172  C 13.183026472727459 14.699716726938885  12.282740722099941 15.301270152131718  11.291915098826092 15.711683591206867  C 10.301089475552242 16.12209703028202  9.239128629366558 16.333333333333332  8.166666666666668 16.333333333333336  C 7.094204703966778 16.333333333333332  6.03224441409111 16.12209703028202  5.041418790817261 15.711683591206867  C 4.050593167543411 15.301270152131718  3.1503063042958575 14.699716726938885  2.391961177190145 13.941371599833172  C 1.6336160500844321 13.183026472727459  1.0320639808972678 12.282740722099941  0.6216505765914917 11.291915098826092  C 0.2112371722857157 10.301089475552242  0 9.239128629366558  0 8.166666666666668  C 0 6.000732024510702  0.8604141076405845 3.9235082467397056  2.391961177190145 2.391961177190145  C 3.9235082467397056 0.8604141076405845  6.000732024510702 0  8.166666666666668 0  C 10.332601308822634 0  12.409824530283611 0.8604141076405845  13.941371599833172 2.391961177190145  Z " fill-rule="nonzero" fill="rgba(255, 255, 255, 0)" stroke="none" transform="matrix(1 0 0 1 119 13 )" class="fill" />
    <path d="M 13.941371599833172 2.391961177190145  C 15.472918669382732 3.9235082467397056  16.333333301058396 6.000732024510702  16.333333333333336 8.166666666666668  C 16.333333349314266 9.239128629366558  16.122096995512646 10.301089475552242  15.711683591206867 11.291915098826092  C 15.301270186901093 12.282740722099941  14.699716726938885 13.183026472727459  13.941371599833172 13.941371599833172  C 13.183026472727459 14.699716726938885  12.282740722099941 15.301270152131718  11.291915098826092 15.711683591206867  C 10.301089475552242 16.12209703028202  9.239128629366558 16.333333333333332  8.166666666666668 16.333333333333336  C 7.094204703966778 16.333333333333332  6.03224441409111 16.12209703028202  5.041418790817261 15.711683591206867  C 4.050593167543411 15.301270152131718  3.1503063042958575 14.699716726938885  2.391961177190145 13.941371599833172  C 1.6336160500844321 13.183026472727459  1.0320639808972678 12.282740722099941  0.6216505765914917 11.291915098826092  C 0.2112371722857157 10.301089475552242  0 9.239128629366558  0 8.166666666666668  C 0 6.000732024510702  0.8604141076405845 3.9235082467397056  2.391961177190145 2.391961177190145  C 3.9235082467397056 0.8604141076405845  6.000732024510702 0  8.166666666666668 0  C 10.332601308822634 0  12.409824530283611 0.8604141076405845  13.941371599833172 2.391961177190145  Z " stroke-width="4.666666507720947" stroke-dasharray="0" stroke="rgba(34, 211, 238, 1)" fill="none" transform="matrix(1 0 0 1 119 13 )" class="stroke" mask="url(#Clip510)" />
    <path d="M 21 21  L 14 14  " stroke-width="2.3333332538604736" stroke-dasharray="0" stroke="rgba(34, 211, 238, 1)" fill="none" transform="matrix(1 0 0 1 119 13 )" class="stroke" />
  </g>
</svg>