<?xml version="1.0" encoding="utf-8"?>
<svg version="1.1" xmlns:xlink="http://www.w3.org/1999/xlink" width="13px" height="13px" xmlns="http://www.w3.org/2000/svg">
  <defs>
    <pattern id="BGPattern" patternUnits="userSpaceOnUse" alignment="0 0" imageRepeat="None" />
    <mask fill="white" id="Clip513">
      <path d="M 10.517654318815785 11.843531467955026  C 11.633351285105944 11.089786548740923  12.497882813247323 10.019550769885653  13 8.77054290523245  C 11.773405485394674 9.263606245577567  10.42889391746207 9.38544672200696  9.133592854072084 9.120918747652084  C 7.838291790682103 8.856390773297207  6.6493264683665805 8.217160609217306  5.714491169294677 7.282687387605026  C 4.779655870222771 6.348214165992745  4.140178025600964 5.159709707177913  3.8755475554069996 3.864910335710503  C 3.610917085213035 2.5701109642430935  3.732804770796385 1.2261194338865309  4.226059156874624 0  C 2.7735102823318822 0.5848515665065009  1.5697171657795461 1.656567367082948  0.8210427577001354 3.031425970056143  C 0.07236834962072437 4.406284573029338  -0.17455739013570137 5.998655423084304  0.12259511902595611 7.5355628085263335  C 0.4197476281876136 9.072470193968364  1.2424707901730296 10.458191308913321  2.449727651658004 11.455174339841294  C 3.656984513142979 12.45215737076927  5.173583434030019 12.99830720014529  6.739537403641793 13  C 8.086144862215049 13.000042560580095  9.401957352525626 12.59727638716913  10.517654318815785 11.843531467955026  Z " fill-rule="evenodd" />
    </mask>
  </defs>
  <g transform="matrix(1 0 0 1 -6 -7 )">
    <path d="M 10.517654318815785 11.843531467955026  C 11.633351285105944 11.089786548740923  12.497882813247323 10.019550769885653  13 8.77054290523245  C 11.773405485394674 9.263606245577567  10.42889391746207 9.38544672200696  9.133592854072084 9.120918747652084  C 7.838291790682103 8.856390773297207  6.6493264683665805 8.217160609217306  5.714491169294677 7.282687387605026  C 4.779655870222771 6.348214165992745  4.140178025600964 5.159709707177913  3.8755475554069996 3.864910335710503  C 3.610917085213035 2.5701109642430935  3.732804770796385 1.2261194338865309  4.226059156874624 0  C 2.7735102823318822 0.5848515665065009  1.5697171657795461 1.656567367082948  0.8210427577001354 3.031425970056143  C 0.07236834962072437 4.406284573029338  -0.17455739013570137 5.998655423084304  0.12259511902595611 7.5355628085263335  C 0.4197476281876136 9.072470193968364  1.2424707901730296 10.458191308913321  2.449727651658004 11.455174339841294  C 3.656984513142979 12.45215737076927  5.173583434030019 12.99830720014529  6.739537403641793 13  C 8.086144862215049 13.000042560580095  9.401957352525626 12.59727638716913  10.517654318815785 11.843531467955026  Z " fill-rule="nonzero" fill="rgba(255, 255, 255, 0)" stroke="none" transform="matrix(1 0 0 1 6 7 )" class="fill" />
    <path d="M 10.517654318815785 11.843531467955026  C 11.633351285105944 11.089786548740923  12.497882813247323 10.019550769885653  13 8.77054290523245  C 11.773405485394674 9.263606245577567  10.42889391746207 9.38544672200696  9.133592854072084 9.120918747652084  C 7.838291790682103 8.856390773297207  6.6493264683665805 8.217160609217306  5.714491169294677 7.282687387605026  C 4.779655870222771 6.348214165992745  4.140178025600964 5.159709707177913  3.8755475554069996 3.864910335710503  C 3.610917085213035 2.5701109642430935  3.732804770796385 1.2261194338865309  4.226059156874624 0  C 2.7735102823318822 0.5848515665065009  1.5697171657795461 1.656567367082948  0.8210427577001354 3.031425970056143  C 0.07236834962072437 4.406284573029338  -0.17455739013570137 5.998655423084304  0.12259511902595611 7.5355628085263335  C 0.4197476281876136 9.072470193968364  1.2424707901730296 10.458191308913321  2.449727651658004 11.455174339841294  C 3.656984513142979 12.45215737076927  5.173583434030019 12.99830720014529  6.739537403641793 13  C 8.086144862215049 13.000042560580095  9.401957352525626 12.59727638716913  10.517654318815785 11.843531467955026  Z " stroke-width="2.6666667461395264" stroke-dasharray="0" stroke="rgba(14, 116, 144, 1)" fill="none" transform="matrix(1 0 0 1 6 7 )" class="stroke" mask="url(#Clip513)" />
  </g>
</svg>