<?xml version="1.0" encoding="utf-8"?>
<svg version="1.1" xmlns:xlink="http://www.w3.org/1999/xlink" width="13px" height="10px" xmlns="http://www.w3.org/2000/svg">
  <defs>
    <pattern id="BGPattern" patternUnits="userSpaceOnUse" alignment="0 0" imageRepeat="None" />
    <mask fill="white" id="Clip518">
      <path d="M 8.941314553990612 2  C 9.04303599131499 1.75  9.093896713615024 1.5208333283662796  9.093896713615024 1.3125  C 9.093896713615024 1.3125  9.093896713615024 0  9.093896713615024 0  L 0 0  L 0 1.3125  C 0 1.3125  0.03051643192488263 1.59375  0.03051643192488263 1.59375  C 0.07120500903734019 1.8229166716337204  0.15258215962441313 2.0416666716337204  0.27464788732394363 2.25  C 0.45774647887323944 2.5625  0.691705799998252 2.8333333283662796  0.9765258215962441 3.0625  C 1.3427230046948357 3.333333343267441  1.7902973201912893 3.5520833283662796  2.3192488262910795 3.71875  C 2.9499217333368293 3.90625  3.692488262910798 4  4.546948356807512 4  C 5.889671361502347 4  6.957746478873239 3.770833343267441  7.751173708920187 3.3125  C 8.320813752116173 2.979166656732559  8.717527381691015 2.5416666865348816  8.941314553990612 2  Z M 6.164319248826291 6  C 6.611893593425481 6.458333343267441  6.83568075117371 7.010416686534882  6.83568075117371 7.65625  C 6.83568075117371 8.13541665673256  6.70344288920013 8.56770834326744  6.438967136150235 8.953125  C 6.17449138310034 9.33854165673256  5.833724579340974 9.625  5.416666666666667 9.8125  C 4.999608753992359 10  4.562206572769953 10.046875  4.104460093896714 9.953125  C 3.646713615023474 9.859375  3.255086081688393 9.64583334326744  2.9295774647887325 9.3125  C 2.604068847889072 8.97916665673256  2.3955399061032865 8.578125  2.3039906103286385 8.109375  C 2.212441314553991 7.640625  2.2582159624413145 7.192708343267441  2.44131455399061 6.765625  C 2.624413145539906 6.338541656732559  2.9041471145522424 5.989583343267441  3.2805164319248825 5.71875  C 3.6568857492975226 5.447916656732559  4.079029743660224 5.3125  4.546948356807512 5.3125  C 5.177621263853261 5.3125  5.716744904227101 5.541666656732559  6.164319248826291 6  Z M 10.985915492957746 3.625  C 10.43661971830986 3.8125  9.795774647887324 3.9375  9.06338028169014 4  C 9.470266030987665 3.666666656732559  9.7906885807503 3.265625  10.024647887323944 2.796875  C 10.258607193897587 2.328125  10.385758997828747 1.8333333134651184  10.406103286384976 1.3125  C 10.406103286384976 1.3125  10.406103286384976 0  10.406103286384976 0  L 13 0  L 13 1.3125  C 13 1.3125  12.969483568075116 1.5625  12.969483568075116 1.5625  C 12.92879499096266 1.7708333283662796  12.857589981925319 1.9791666716337204  12.755868544600938 2.1875  C 12.613458533801943 2.479166656732559  12.410015659153181 2.7291666716337204  12.145539906103288 2.9375  C 11.84037558685446 3.229166656732559  11.453834106105035 3.4583333283662796  10.985915492957746 3.625  Z M 10.070422535211268 9.3125  C 9.622848190612077 9.77083334326744  9.083724550238237 10  8.453051643192488 10  C 7.985133030045201 10  7.568075117370892 9.86458334326744  7.2018779342723 9.59375  C 7.608763683569823 9.010416686534882  7.812206572769953 8.364583313465118  7.812206572769953 7.65625  C 7.812206572769953 6.947916686534882  7.608763683569823 6.302083313465118  7.2018779342723 5.71875  C 7.568075117370892 5.447916656732559  7.985133030045201 5.3125  8.453051643192488 5.3125  C 9.083724550238237 5.3125  9.622848190612077 5.541666656732559  10.070422535211268 6  C 10.517996879810458 6.458333343267441  10.741784037558686 7.010416686534882  10.741784037558686 7.65625  C 10.741784037558686 8.302083313465118  10.517996879810458 8.85416665673256  10.070422535211268 9.3125  Z " fill-rule="evenodd" />
    </mask>
  </defs>
  <g transform="matrix(1 0 0 1 -1 -7 )">
    <path d="M 8.941314553990612 2  C 9.04303599131499 1.75  9.093896713615024 1.5208333283662796  9.093896713615024 1.3125  C 9.093896713615024 1.3125  9.093896713615024 0  9.093896713615024 0  L 0 0  L 0 1.3125  C 0 1.3125  0.03051643192488263 1.59375  0.03051643192488263 1.59375  C 0.07120500903734019 1.8229166716337204  0.15258215962441313 2.0416666716337204  0.27464788732394363 2.25  C 0.45774647887323944 2.5625  0.691705799998252 2.8333333283662796  0.9765258215962441 3.0625  C 1.3427230046948357 3.333333343267441  1.7902973201912893 3.5520833283662796  2.3192488262910795 3.71875  C 2.9499217333368293 3.90625  3.692488262910798 4  4.546948356807512 4  C 5.889671361502347 4  6.957746478873239 3.770833343267441  7.751173708920187 3.3125  C 8.320813752116173 2.979166656732559  8.717527381691015 2.5416666865348816  8.941314553990612 2  Z M 6.164319248826291 6  C 6.611893593425481 6.458333343267441  6.83568075117371 7.010416686534882  6.83568075117371 7.65625  C 6.83568075117371 8.13541665673256  6.70344288920013 8.56770834326744  6.438967136150235 8.953125  C 6.17449138310034 9.33854165673256  5.833724579340974 9.625  5.416666666666667 9.8125  C 4.999608753992359 10  4.562206572769953 10.046875  4.104460093896714 9.953125  C 3.646713615023474 9.859375  3.255086081688393 9.64583334326744  2.9295774647887325 9.3125  C 2.604068847889072 8.97916665673256  2.3955399061032865 8.578125  2.3039906103286385 8.109375  C 2.212441314553991 7.640625  2.2582159624413145 7.192708343267441  2.44131455399061 6.765625  C 2.624413145539906 6.338541656732559  2.9041471145522424 5.989583343267441  3.2805164319248825 5.71875  C 3.6568857492975226 5.447916656732559  4.079029743660224 5.3125  4.546948356807512 5.3125  C 5.177621263853261 5.3125  5.716744904227101 5.541666656732559  6.164319248826291 6  Z M 10.985915492957746 3.625  C 10.43661971830986 3.8125  9.795774647887324 3.9375  9.06338028169014 4  C 9.470266030987665 3.666666656732559  9.7906885807503 3.265625  10.024647887323944 2.796875  C 10.258607193897587 2.328125  10.385758997828747 1.8333333134651184  10.406103286384976 1.3125  C 10.406103286384976 1.3125  10.406103286384976 0  10.406103286384976 0  L 13 0  L 13 1.3125  C 13 1.3125  12.969483568075116 1.5625  12.969483568075116 1.5625  C 12.92879499096266 1.7708333283662796  12.857589981925319 1.9791666716337204  12.755868544600938 2.1875  C 12.613458533801943 2.479166656732559  12.410015659153181 2.7291666716337204  12.145539906103288 2.9375  C 11.84037558685446 3.229166656732559  11.453834106105035 3.4583333283662796  10.985915492957746 3.625  Z M 10.070422535211268 9.3125  C 9.622848190612077 9.77083334326744  9.083724550238237 10  8.453051643192488 10  C 7.985133030045201 10  7.568075117370892 9.86458334326744  7.2018779342723 9.59375  C 7.608763683569823 9.010416686534882  7.812206572769953 8.364583313465118  7.812206572769953 7.65625  C 7.812206572769953 6.947916686534882  7.608763683569823 6.302083313465118  7.2018779342723 5.71875  C 7.568075117370892 5.447916656732559  7.985133030045201 5.3125  8.453051643192488 5.3125  C 9.083724550238237 5.3125  9.622848190612077 5.541666656732559  10.070422535211268 6  C 10.517996879810458 6.458333343267441  10.741784037558686 7.010416686534882  10.741784037558686 7.65625  C 10.741784037558686 8.302083313465118  10.517996879810458 8.85416665673256  10.070422535211268 9.3125  Z " fill-rule="nonzero" fill="rgba(0, 0, 0, 1)" stroke="none" transform="matrix(1 0 0 1 1 7 )" class="fill" />
    <path d="M 8.941314553990612 2  C 9.04303599131499 1.75  9.093896713615024 1.5208333283662796  9.093896713615024 1.3125  C 9.093896713615024 1.3125  9.093896713615024 0  9.093896713615024 0  L 0 0  L 0 1.3125  C 0 1.3125  0.03051643192488263 1.59375  0.03051643192488263 1.59375  C 0.07120500903734019 1.8229166716337204  0.15258215962441313 2.0416666716337204  0.27464788732394363 2.25  C 0.45774647887323944 2.5625  0.691705799998252 2.8333333283662796  0.9765258215962441 3.0625  C 1.3427230046948357 3.333333343267441  1.7902973201912893 3.5520833283662796  2.3192488262910795 3.71875  C 2.9499217333368293 3.90625  3.692488262910798 4  4.546948356807512 4  C 5.889671361502347 4  6.957746478873239 3.770833343267441  7.751173708920187 3.3125  C 8.320813752116173 2.979166656732559  8.717527381691015 2.5416666865348816  8.941314553990612 2  Z " stroke-width="0" stroke-dasharray="0" stroke="rgba(121, 121, 121, 1)" fill="none" transform="matrix(1 0 0 1 1 7 )" class="stroke" mask="url(#Clip518)" />
    <path d="M 6.164319248826291 6  C 6.611893593425481 6.458333343267441  6.83568075117371 7.010416686534882  6.83568075117371 7.65625  C 6.83568075117371 8.13541665673256  6.70344288920013 8.56770834326744  6.438967136150235 8.953125  C 6.17449138310034 9.33854165673256  5.833724579340974 9.625  5.416666666666667 9.8125  C 4.999608753992359 10  4.562206572769953 10.046875  4.104460093896714 9.953125  C 3.646713615023474 9.859375  3.255086081688393 9.64583334326744  2.9295774647887325 9.3125  C 2.604068847889072 8.97916665673256  2.3955399061032865 8.578125  2.3039906103286385 8.109375  C 2.212441314553991 7.640625  2.2582159624413145 7.192708343267441  2.44131455399061 6.765625  C 2.624413145539906 6.338541656732559  2.9041471145522424 5.989583343267441  3.2805164319248825 5.71875  C 3.6568857492975226 5.447916656732559  4.079029743660224 5.3125  4.546948356807512 5.3125  C 5.177621263853261 5.3125  5.716744904227101 5.541666656732559  6.164319248826291 6  Z " stroke-width="0" stroke-dasharray="0" stroke="rgba(121, 121, 121, 1)" fill="none" transform="matrix(1 0 0 1 1 7 )" class="stroke" mask="url(#Clip518)" />
    <path d="M 10.985915492957746 3.625  C 10.43661971830986 3.8125  9.795774647887324 3.9375  9.06338028169014 4  C 9.470266030987665 3.666666656732559  9.7906885807503 3.265625  10.024647887323944 2.796875  C 10.258607193897587 2.328125  10.385758997828747 1.8333333134651184  10.406103286384976 1.3125  C 10.406103286384976 1.3125  10.406103286384976 0  10.406103286384976 0  L 13 0  L 13 1.3125  C 13 1.3125  12.969483568075116 1.5625  12.969483568075116 1.5625  C 12.92879499096266 1.7708333283662796  12.857589981925319 1.9791666716337204  12.755868544600938 2.1875  C 12.613458533801943 2.479166656732559  12.410015659153181 2.7291666716337204  12.145539906103288 2.9375  C 11.84037558685446 3.229166656732559  11.453834106105035 3.4583333283662796  10.985915492957746 3.625  Z " stroke-width="0" stroke-dasharray="0" stroke="rgba(121, 121, 121, 1)" fill="none" transform="matrix(1 0 0 1 1 7 )" class="stroke" mask="url(#Clip518)" />
    <path d="M 10.070422535211268 9.3125  C 9.622848190612077 9.77083334326744  9.083724550238237 10  8.453051643192488 10  C 7.985133030045201 10  7.568075117370892 9.86458334326744  7.2018779342723 9.59375  C 7.608763683569823 9.010416686534882  7.812206572769953 8.364583313465118  7.812206572769953 7.65625  C 7.812206572769953 6.947916686534882  7.608763683569823 6.302083313465118  7.2018779342723 5.71875  C 7.568075117370892 5.447916656732559  7.985133030045201 5.3125  8.453051643192488 5.3125  C 9.083724550238237 5.3125  9.622848190612077 5.541666656732559  10.070422535211268 6  C 10.517996879810458 6.458333343267441  10.741784037558686 7.010416686534882  10.741784037558686 7.65625  C 10.741784037558686 8.302083313465118  10.517996879810458 8.85416665673256  10.070422535211268 9.3125  Z " stroke-width="0" stroke-dasharray="0" stroke="rgba(121, 121, 121, 1)" fill="none" transform="matrix(1 0 0 1 1 7 )" class="stroke" mask="url(#Clip518)" />
  </g>
</svg>