<?xml version="1.0" encoding="utf-8"?>
<svg version="1.1" xmlns:xlink="http://www.w3.org/1999/xlink" width="13px" height="11px" xmlns="http://www.w3.org/2000/svg">
  <defs>
    <pattern id="BGPattern" patternUnits="userSpaceOnUse" alignment="0 0" imageRepeat="None" />
    <mask fill="white" id="Clip530">
      <path d="M 11.71830985915493 9.616959064327485  L 11.71830985915493 8.23391812865497  L 1.2816901408450703 8.23391812865497  L 1.2816901408450703 9.616959064327485  L 11.71830985915493 9.616959064327485  Z M 11.71830985915493 5.5  L 11.71830985915493 1.3830409356725146  L 1.2816901408450703 1.3830409356725146  L 1.2816901408450703 5.5  L 11.71830985915493 5.5  Z M 12.618544600938966 10.597953216374268  C 12.364241011265857 10.865984395233511  12.064162744602687 11  11.71830985915493 11  C 11.71830985915493 11  1.2816901408450703 11  1.2816901408450703 11  C 0.9358372553973131 11  0.6357589887341423 10.865984395233511  0.3814553990610329 10.597953216374268  C 0.1271518093879234 10.329922037515027  0 10.002923976608187  0 9.616959064327485  C 0 9.616959064327485  0 1.3830409356725146  0 1.3830409356725146  C 0 0.9970760233918128  0.1271518093879234 0.6700779624849732  0.3814553990610329 0.402046783625731  C 0.6357589887341423 0.13401560476648877  0.9358372553973131 0  1.2816901408450703 0  C 1.2816901408450703 0  11.71830985915493 0  11.71830985915493 0  C 12.064162744602687 0  12.364241011265857 0.13401560476648877  12.618544600938966 0.402046783625731  C 12.872848190612077 0.6700779624849732  13 0.9970760233918128  13 1.3830409356725146  C 13 1.3830409356725146  13 9.616959064327485  13 9.616959064327485  C 13 10.002923976608187  12.872848190612077 10.329922037515027  12.618544600938966 10.597953216374268  Z " fill-rule="evenodd" />
    </mask>
  </defs>
  <g transform="matrix(1 0 0 1 -1 -7 )">
    <path d="M 11.71830985915493 9.616959064327485  L 11.71830985915493 8.23391812865497  L 1.2816901408450703 8.23391812865497  L 1.2816901408450703 9.616959064327485  L 11.71830985915493 9.616959064327485  Z M 11.71830985915493 5.5  L 11.71830985915493 1.3830409356725146  L 1.2816901408450703 1.3830409356725146  L 1.2816901408450703 5.5  L 11.71830985915493 5.5  Z M 12.618544600938966 10.597953216374268  C 12.364241011265857 10.865984395233511  12.064162744602687 11  11.71830985915493 11  C 11.71830985915493 11  1.2816901408450703 11  1.2816901408450703 11  C 0.9358372553973131 11  0.6357589887341423 10.865984395233511  0.3814553990610329 10.597953216374268  C 0.1271518093879234 10.329922037515027  0 10.002923976608187  0 9.616959064327485  C 0 9.616959064327485  0 1.3830409356725146  0 1.3830409356725146  C 0 0.9970760233918128  0.1271518093879234 0.6700779624849732  0.3814553990610329 0.402046783625731  C 0.6357589887341423 0.13401560476648877  0.9358372553973131 0  1.2816901408450703 0  C 1.2816901408450703 0  11.71830985915493 0  11.71830985915493 0  C 12.064162744602687 0  12.364241011265857 0.13401560476648877  12.618544600938966 0.402046783625731  C 12.872848190612077 0.6700779624849732  13 0.9970760233918128  13 1.3830409356725146  C 13 1.3830409356725146  13 9.616959064327485  13 9.616959064327485  C 13 10.002923976608187  12.872848190612077 10.329922037515027  12.618544600938966 10.597953216374268  Z " fill-rule="nonzero" fill="rgba(255, 255, 255, 1)" stroke="none" transform="matrix(1 0 0 1 1 7 )" class="fill" />
    <path d="M 11.71830985915493 9.616959064327485  L 11.71830985915493 8.23391812865497  L 1.2816901408450703 8.23391812865497  L 1.2816901408450703 9.616959064327485  L 11.71830985915493 9.616959064327485  Z " stroke-width="0" stroke-dasharray="0" stroke="rgba(121, 121, 121, 1)" fill="none" transform="matrix(1 0 0 1 1 7 )" class="stroke" mask="url(#Clip530)" />
    <path d="M 11.71830985915493 5.5  L 11.71830985915493 1.3830409356725146  L 1.2816901408450703 1.3830409356725146  L 1.2816901408450703 5.5  L 11.71830985915493 5.5  Z " stroke-width="0" stroke-dasharray="0" stroke="rgba(121, 121, 121, 1)" fill="none" transform="matrix(1 0 0 1 1 7 )" class="stroke" mask="url(#Clip530)" />
    <path d="M 12.618544600938966 10.597953216374268  C 12.364241011265857 10.865984395233511  12.064162744602687 11  11.71830985915493 11  C 11.71830985915493 11  1.2816901408450703 11  1.2816901408450703 11  C 0.9358372553973131 11  0.6357589887341423 10.865984395233511  0.3814553990610329 10.597953216374268  C 0.1271518093879234 10.329922037515027  0 10.002923976608187  0 9.616959064327485  C 0 9.616959064327485  0 1.3830409356725146  0 1.3830409356725146  C 0 0.9970760233918128  0.1271518093879234 0.6700779624849732  0.3814553990610329 0.402046783625731  C 0.6357589887341423 0.13401560476648877  0.9358372553973131 0  1.2816901408450703 0  C 1.2816901408450703 0  11.71830985915493 0  11.71830985915493 0  C 12.064162744602687 0  12.364241011265857 0.13401560476648877  12.618544600938966 0.402046783625731  C 12.872848190612077 0.6700779624849732  13 0.9970760233918128  13 1.3830409356725146  C 13 1.3830409356725146  13 9.616959064327485  13 9.616959064327485  C 13 10.002923976608187  12.872848190612077 10.329922037515027  12.618544600938966 10.597953216374268  Z " stroke-width="0" stroke-dasharray="0" stroke="rgba(121, 121, 121, 1)" fill="none" transform="matrix(1 0 0 1 1 7 )" class="stroke" mask="url(#Clip530)" />
  </g>
</svg>