<?xml version="1.0" encoding="utf-8"?>
<svg version="1.1" xmlns:xlink="http://www.w3.org/1999/xlink" width="7px" height="7px" xmlns="http://www.w3.org/2000/svg">
  <defs>
    <pattern id="BGPattern" patternUnits="userSpaceOnUse" alignment="0 0" imageRepeat="None" />
    <mask fill="white" id="Clip512">
      <path d="M 5.974874178568522 1.025125821431478  C 6.63125150402387 1.6815031468868258  6.999999999999998 2.5717422862847643  7 3.5  C 7 4.428257713715236  6.63125150402387 5.318496853113174  5.974874178568522 5.974874178568522  C 5.318496853113174 6.63125150402387  4.428257713715236 7  3.5 7  C 2.5717422862847643 7  1.6815031468868258 6.63125150402387  1.025125821431478 5.974874178568522  C 0.36874849597613024 5.318496853113174  0 4.428257713715236  0 3.5  C 0 2.5717422862847643  0.36874849597613024 1.6815031468868258  1.025125821431478 1.025125821431478  C 1.6815031468868258 0.36874849597613024  2.5717422862847643 0  3.5 0  C 4.428257713715236 0  5.318496853113174 0.36874849597613024  5.974874178568522 1.025125821431478  Z " fill-rule="evenodd" />
    </mask>
  </defs>
  <g transform="matrix(1 0 0 1 -178 -20 )">
    <path d="M 5.974874178568522 1.025125821431478  C 6.63125150402387 1.6815031468868258  6.999999999999998 2.5717422862847643  7 3.5  C 7 4.428257713715236  6.63125150402387 5.318496853113174  5.974874178568522 5.974874178568522  C 5.318496853113174 6.63125150402387  4.428257713715236 7  3.5 7  C 2.5717422862847643 7  1.6815031468868258 6.63125150402387  1.025125821431478 5.974874178568522  C 0.36874849597613024 5.318496853113174  0 4.428257713715236  0 3.5  C 0 2.5717422862847643  0.36874849597613024 1.6815031468868258  1.025125821431478 1.025125821431478  C 1.6815031468868258 0.36874849597613024  2.5717422862847643 0  3.5 0  C 4.428257713715236 0  5.318496853113174 0.36874849597613024  5.974874178568522 1.025125821431478  Z " fill-rule="nonzero" fill="rgba(255, 255, 255, 0)" stroke="none" transform="matrix(1 0 0 1 178 20 )" class="fill" />
    <path d="M 5.974874178568522 1.025125821431478  C 6.63125150402387 1.6815031468868258  6.999999999999998 2.5717422862847643  7 3.5  C 7 4.428257713715236  6.63125150402387 5.318496853113174  5.974874178568522 5.974874178568522  C 5.318496853113174 6.63125150402387  4.428257713715236 7  3.5 7  C 2.5717422862847643 7  1.6815031468868258 6.63125150402387  1.025125821431478 5.974874178568522  C 0.36874849597613024 5.318496853113174  0 4.428257713715236  0 3.5  C 0 2.5717422862847643  0.36874849597613024 1.6815031468868258  1.025125821431478 1.025125821431478  C 1.6815031468868258 0.36874849597613024  2.5717422862847643 0  3.5 0  C 4.428257713715236 0  5.318496853113174 0.36874849597613024  5.974874178568522 1.025125821431478  Z " stroke-width="4.666666507720947" stroke-dasharray="0" stroke="rgba(34, 211, 238, 1)" fill="none" transform="matrix(1 0 0 1 178 20 )" class="stroke" mask="url(#Clip512)" />
  </g>
</svg>