<?xml version="1.0" encoding="utf-8"?>
<svg version="1.1" xmlns:xlink="http://www.w3.org/1999/xlink" width="28px" height="32px" xmlns="http://www.w3.org/2000/svg">
  <defs>
    <pattern id="BGPattern" patternUnits="userSpaceOnUse" alignment="0 0" imageRepeat="None" />
    <mask fill="white" id="Clip282">
      <path d="M 23.333333333333336 9.142857142857142  C 23.333333333333336 10.892857142857142  22.853298611111114 12.51190476190476  21.893229166666664 14  C 22.464409722222225 14.166666666666664  23.00824652777778 14.392857142857142  23.524739583333336 14.678571428571427  C 24.04123263888889 14.964285714285715  24.58203125 15.398809523809522  25.147135416666664 15.982142857142858  C 25.712239583333336 16.56547619047619  26.1953125 17.25297619047619  26.596354166666664 18.044642857142858  C 26.997395833333336 18.836309523809522  27.331597222222225 19.860119047619044  27.598958333333336 21.11607142857143  C 27.86631944444444 22.37202380952381  28 23.779761904761905  28 25.339285714285715  C 28 27.17261904761905  27.39236111111111 28.741071428571427  26.177083333333336 30.044642857142858  C 24.96180555555556 31.348214285714285  23.497395833333336 32  21.783854166666664 32  L 6.216145833333334 32  C 4.502604166666666 32  3.038194444444445 31.348214285714285  1.8229166666666667 30.044642857142858  C 0.6076388888888887 28.741071428571427  0 27.17261904761905  0 25.339285714285715  C 0 23.779761904761905  0.13368055555555555 22.37202380952381  0.40104166666666663 21.11607142857143  C 0.6684027777777778 19.860119047619044  1.0026041666666665 18.836309523809522  1.4036458333333335 18.044642857142858  C 1.8046875 17.25297619047619  2.287760416666667 16.56547619047619  2.852864583333333 15.982142857142858  C 3.41796875 15.398809523809522  3.9587673611111116 14.964285714285715  4.475260416666666 14.678571428571427  C 4.991753472222222 14.392857142857142  5.535590277777779 14.166666666666664  6.106770833333334 14  C 5.14670138888889 12.51190476190476  4.666666666666666 10.892857142857142  4.666666666666666 9.142857142857142  C 4.666666666666666 7.9047619047619015  4.912760416666666 6.723214285714285  5.404947916666666 5.598214285714285  C 5.897135416666666 4.473214285714285  6.5625 3.5  7.401041666666667 2.678571428571427  C 8.239583333333332 1.8571428571428577  9.233072916666668 1.2053571428571423  10.381510416666668 0.7232142857142847  C 11.529947916666668 0.24107142857142705  12.736111111111112 0  14 0  C 15.263888888888891 0  16.470052083333336 0.24107142857142705  17.618489583333336 0.7232142857142847  C 18.766927083333336 1.2053571428571423  19.760416666666664 1.8571428571428577  20.598958333333336 2.678571428571427  C 21.4375 3.5  22.102864583333336 4.473214285714285  22.595052083333336 5.598214285714285  C 23.087239583333336 6.723214285714285  23.333333333333336 7.9047619047619015  23.333333333333336 9.142857142857142  Z M 18.94921875 4.294642857142858  C 17.582031250000004 2.9553571428571423  15.932291666666668 2.2857142857142847  14 2.2857142857142847  C 12.067708333333332 2.2857142857142847  10.41796875 2.9553571428571423  9.05078125 4.294642857142858  C 7.68359375 5.633928571428573  7 7.25  7 9.142857142857142  C 7 11.035714285714285  7.68359375 12.651785714285715  9.05078125 13.991071428571427  C 10.41796875 15.330357142857142  12.067708333333332 16  14 16  C 15.932291666666668 16  17.582031250000004 15.330357142857142  18.94921875 13.991071428571427  C 20.31640625 12.651785714285715  21 11.035714285714285  21 9.142857142857142  C 21 7.25  20.31640625 5.633928571428573  18.94921875 4.294642857142858  Z M 6.216145833333334 29.714285714285715  L 21.783854166666664 29.714285714285715  C 22.853298611111114 29.714285714285715  23.76779513888889 29.288690476190478  24.52734375 28.4375  C 25.286892361111114 27.586309523809522  25.666666666666664 26.55357142857143  25.666666666666664 25.339285714285715  C 25.666666666666664 22.494047619047617  25.18967013888889 20.25  24.235677083333336 18.607142857142858  C 23.28168402777778 16.964285714285715  21.911458333333336 16.101190476190474  20.125 16.017857142857142  C 18.36284722222222 17.529761904761905  16.321180555555557 18.285714285714285  14 18.285714285714285  C 11.678819444444445 18.285714285714285  9.63715277777778 17.529761904761905  7.875 16.017857142857142  C 6.088541666666666 16.101190476190474  4.718315972222222 16.964285714285715  3.7643229166666665 18.607142857142858  C 2.810329861111111 20.25  2.333333333333333 22.494047619047617  2.333333333333333 25.339285714285715  C 2.333333333333333 26.55357142857143  2.7131076388888893 27.586309523809522  3.47265625 28.4375  C 4.232204861111112 29.288690476190478  5.14670138888889 29.714285714285715  6.216145833333334 29.714285714285715  Z " fill-rule="evenodd" />
    </mask>
  </defs>
  <g transform="matrix(1 0 0 1 -1842 -30 )">
    <path d="M 23.333333333333336 9.142857142857142  C 23.333333333333336 10.892857142857142  22.853298611111114 12.51190476190476  21.893229166666664 14  C 22.464409722222225 14.166666666666664  23.00824652777778 14.392857142857142  23.524739583333336 14.678571428571427  C 24.04123263888889 14.964285714285715  24.58203125 15.398809523809522  25.147135416666664 15.982142857142858  C 25.712239583333336 16.56547619047619  26.1953125 17.25297619047619  26.596354166666664 18.044642857142858  C 26.997395833333336 18.836309523809522  27.331597222222225 19.860119047619044  27.598958333333336 21.11607142857143  C 27.86631944444444 22.37202380952381  28 23.779761904761905  28 25.339285714285715  C 28 27.17261904761905  27.39236111111111 28.741071428571427  26.177083333333336 30.044642857142858  C 24.96180555555556 31.348214285714285  23.497395833333336 32  21.783854166666664 32  L 6.216145833333334 32  C 4.502604166666666 32  3.038194444444445 31.348214285714285  1.8229166666666667 30.044642857142858  C 0.6076388888888887 28.741071428571427  0 27.17261904761905  0 25.339285714285715  C 0 23.779761904761905  0.13368055555555555 22.37202380952381  0.40104166666666663 21.11607142857143  C 0.6684027777777778 19.860119047619044  1.0026041666666665 18.836309523809522  1.4036458333333335 18.044642857142858  C 1.8046875 17.25297619047619  2.287760416666667 16.56547619047619  2.852864583333333 15.982142857142858  C 3.41796875 15.398809523809522  3.9587673611111116 14.964285714285715  4.475260416666666 14.678571428571427  C 4.991753472222222 14.392857142857142  5.535590277777779 14.166666666666664  6.106770833333334 14  C 5.14670138888889 12.51190476190476  4.666666666666666 10.892857142857142  4.666666666666666 9.142857142857142  C 4.666666666666666 7.9047619047619015  4.912760416666666 6.723214285714285  5.404947916666666 5.598214285714285  C 5.897135416666666 4.473214285714285  6.5625 3.5  7.401041666666667 2.678571428571427  C 8.239583333333332 1.8571428571428577  9.233072916666668 1.2053571428571423  10.381510416666668 0.7232142857142847  C 11.529947916666668 0.24107142857142705  12.736111111111112 0  14 0  C 15.263888888888891 0  16.470052083333336 0.24107142857142705  17.618489583333336 0.7232142857142847  C 18.766927083333336 1.2053571428571423  19.760416666666664 1.8571428571428577  20.598958333333336 2.678571428571427  C 21.4375 3.5  22.102864583333336 4.473214285714285  22.595052083333336 5.598214285714285  C 23.087239583333336 6.723214285714285  23.333333333333336 7.9047619047619015  23.333333333333336 9.142857142857142  Z M 18.94921875 4.294642857142858  C 17.582031250000004 2.9553571428571423  15.932291666666668 2.2857142857142847  14 2.2857142857142847  C 12.067708333333332 2.2857142857142847  10.41796875 2.9553571428571423  9.05078125 4.294642857142858  C 7.68359375 5.633928571428573  7 7.25  7 9.142857142857142  C 7 11.035714285714285  7.68359375 12.651785714285715  9.05078125 13.991071428571427  C 10.41796875 15.330357142857142  12.067708333333332 16  14 16  C 15.932291666666668 16  17.582031250000004 15.330357142857142  18.94921875 13.991071428571427  C 20.31640625 12.651785714285715  21 11.035714285714285  21 9.142857142857142  C 21 7.25  20.31640625 5.633928571428573  18.94921875 4.294642857142858  Z M 6.216145833333334 29.714285714285715  L 21.783854166666664 29.714285714285715  C 22.853298611111114 29.714285714285715  23.76779513888889 29.288690476190478  24.52734375 28.4375  C 25.286892361111114 27.586309523809522  25.666666666666664 26.55357142857143  25.666666666666664 25.339285714285715  C 25.666666666666664 22.494047619047617  25.18967013888889 20.25  24.235677083333336 18.607142857142858  C 23.28168402777778 16.964285714285715  21.911458333333336 16.101190476190474  20.125 16.017857142857142  C 18.36284722222222 17.529761904761905  16.321180555555557 18.285714285714285  14 18.285714285714285  C 11.678819444444445 18.285714285714285  9.63715277777778 17.529761904761905  7.875 16.017857142857142  C 6.088541666666666 16.101190476190474  4.718315972222222 16.964285714285715  3.7643229166666665 18.607142857142858  C 2.810329861111111 20.25  2.333333333333333 22.494047619047617  2.333333333333333 25.339285714285715  C 2.333333333333333 26.55357142857143  2.7131076388888893 27.586309523809522  3.47265625 28.4375  C 4.232204861111112 29.288690476190478  5.14670138888889 29.714285714285715  6.216145833333334 29.714285714285715  Z " fill-rule="nonzero" fill="rgba(140, 140, 140, 1)" stroke="none" transform="matrix(1 0 0 1 1842 30 )" class="fill" />
    <path d="M 23.333333333333336 9.142857142857142  C 23.333333333333336 10.892857142857142  22.853298611111114 12.51190476190476  21.893229166666664 14  C 22.464409722222225 14.166666666666664  23.00824652777778 14.392857142857142  23.524739583333336 14.678571428571427  C 24.04123263888889 14.964285714285715  24.58203125 15.398809523809522  25.147135416666664 15.982142857142858  C 25.712239583333336 16.56547619047619  26.1953125 17.25297619047619  26.596354166666664 18.044642857142858  C 26.997395833333336 18.836309523809522  27.331597222222225 19.860119047619044  27.598958333333336 21.11607142857143  C 27.86631944444444 22.37202380952381  28 23.779761904761905  28 25.339285714285715  C 28 27.17261904761905  27.39236111111111 28.741071428571427  26.177083333333336 30.044642857142858  C 24.96180555555556 31.348214285714285  23.497395833333336 32  21.783854166666664 32  L 6.216145833333334 32  C 4.502604166666666 32  3.038194444444445 31.348214285714285  1.8229166666666667 30.044642857142858  C 0.6076388888888887 28.741071428571427  0 27.17261904761905  0 25.339285714285715  C 0 23.779761904761905  0.13368055555555555 22.37202380952381  0.40104166666666663 21.11607142857143  C 0.6684027777777778 19.860119047619044  1.0026041666666665 18.836309523809522  1.4036458333333335 18.044642857142858  C 1.8046875 17.25297619047619  2.287760416666667 16.56547619047619  2.852864583333333 15.982142857142858  C 3.41796875 15.398809523809522  3.9587673611111116 14.964285714285715  4.475260416666666 14.678571428571427  C 4.991753472222222 14.392857142857142  5.535590277777779 14.166666666666664  6.106770833333334 14  C 5.14670138888889 12.51190476190476  4.666666666666666 10.892857142857142  4.666666666666666 9.142857142857142  C 4.666666666666666 7.9047619047619015  4.912760416666666 6.723214285714285  5.404947916666666 5.598214285714285  C 5.897135416666666 4.473214285714285  6.5625 3.5  7.401041666666667 2.678571428571427  C 8.239583333333332 1.8571428571428577  9.233072916666668 1.2053571428571423  10.381510416666668 0.7232142857142847  C 11.529947916666668 0.24107142857142705  12.736111111111112 0  14 0  C 15.263888888888891 0  16.470052083333336 0.24107142857142705  17.618489583333336 0.7232142857142847  C 18.766927083333336 1.2053571428571423  19.760416666666664 1.8571428571428577  20.598958333333336 2.678571428571427  C 21.4375 3.5  22.102864583333336 4.473214285714285  22.595052083333336 5.598214285714285  C 23.087239583333336 6.723214285714285  23.333333333333336 7.9047619047619015  23.333333333333336 9.142857142857142  Z " stroke-width="0" stroke-dasharray="0" stroke="rgba(255, 255, 255, 0)" fill="none" transform="matrix(1 0 0 1 1842 30 )" class="stroke" mask="url(#Clip282)" />
    <path d="M 18.94921875 4.294642857142858  C 17.582031250000004 2.9553571428571423  15.932291666666668 2.2857142857142847  14 2.2857142857142847  C 12.067708333333332 2.2857142857142847  10.41796875 2.9553571428571423  9.05078125 4.294642857142858  C 7.68359375 5.633928571428573  7 7.25  7 9.142857142857142  C 7 11.035714285714285  7.68359375 12.651785714285715  9.05078125 13.991071428571427  C 10.41796875 15.330357142857142  12.067708333333332 16  14 16  C 15.932291666666668 16  17.582031250000004 15.330357142857142  18.94921875 13.991071428571427  C 20.31640625 12.651785714285715  21 11.035714285714285  21 9.142857142857142  C 21 7.25  20.31640625 5.633928571428573  18.94921875 4.294642857142858  Z " stroke-width="0" stroke-dasharray="0" stroke="rgba(255, 255, 255, 0)" fill="none" transform="matrix(1 0 0 1 1842 30 )" class="stroke" mask="url(#Clip282)" />
    <path d="M 6.216145833333334 29.714285714285715  L 21.783854166666664 29.714285714285715  C 22.853298611111114 29.714285714285715  23.76779513888889 29.288690476190478  24.52734375 28.4375  C 25.286892361111114 27.586309523809522  25.666666666666664 26.55357142857143  25.666666666666664 25.339285714285715  C 25.666666666666664 22.494047619047617  25.18967013888889 20.25  24.235677083333336 18.607142857142858  C 23.28168402777778 16.964285714285715  21.911458333333336 16.101190476190474  20.125 16.017857142857142  C 18.36284722222222 17.529761904761905  16.321180555555557 18.285714285714285  14 18.285714285714285  C 11.678819444444445 18.285714285714285  9.63715277777778 17.529761904761905  7.875 16.017857142857142  C 6.088541666666666 16.101190476190474  4.718315972222222 16.964285714285715  3.7643229166666665 18.607142857142858  C 2.810329861111111 20.25  2.333333333333333 22.494047619047617  2.333333333333333 25.339285714285715  C 2.333333333333333 26.55357142857143  2.7131076388888893 27.586309523809522  3.47265625 28.4375  C 4.232204861111112 29.288690476190478  5.14670138888889 29.714285714285715  6.216145833333334 29.714285714285715  Z " stroke-width="0" stroke-dasharray="0" stroke="rgba(255, 255, 255, 0)" fill="none" transform="matrix(1 0 0 1 1842 30 )" class="stroke" mask="url(#Clip282)" />
  </g>
</svg>