<?xml version="1.0" encoding="utf-8"?>
<svg version="1.1" xmlns:xlink="http://www.w3.org/1999/xlink" width="14px" height="20px" xmlns="http://www.w3.org/2000/svg">
  <defs>
    <pattern id="BGPattern" patternUnits="userSpaceOnUse" alignment="0 0" imageRepeat="None" />
    <mask fill="white" id="Clip289">
      <path d="M 13.740234375 12.088068181818183  C 13.913411458333334 12.267992424242422  14 12.481060606060606  14 12.727272727272727  C 14 12.973484848484848  13.913411458333334 13.186553030303028  13.740234375 13.366477272727273  L 7.615234375 19.730113636363637  C 7.442057291666667 19.910037878787882  7.236979166666667 20  7 20  C 6.763020833333334 20  6.557942708333334 19.910037878787882  6.384765625 19.730113636363637  L 0.259765625 13.366477272727273  C 0.08658854166666666 13.186553030303028  0 12.973484848484848  0 12.727272727272727  C 0 12.481060606060606  0.08658854166666666 12.267992424242422  0.259765625 12.088068181818183  C 0.43294270833333337 11.908143939393938  0.6380208333333334 11.818181818181817  0.875 11.818181818181817  L 13.125 11.818181818181817  C 13.361979166666668 11.818181818181817  13.567057291666668 11.908143939393938  13.740234375 12.088068181818183  Z M 13.740234375 6.633522727272727  C 13.913411458333334 6.813446969696968  14 7.026515151515149  14 7.272727272727273  C 14 7.518939393939393  13.913411458333334 7.732007575757576  13.740234375 7.911931818181818  C 13.567057291666668 8.091856060606062  13.361979166666668 8.181818181818182  13.125 8.181818181818182  L 0.875 8.181818181818182  C 0.6380208333333334 8.181818181818182  0.43294270833333337 8.091856060606062  0.259765625 7.911931818181818  C 0.08658854166666666 7.732007575757576  0 7.518939393939393  0 7.272727272727273  C 0 7.026515151515149  0.08658854166666666 6.813446969696968  0.259765625 6.633522727272727  L 6.384765625 0.26988636363636465  C 6.557942708333334 0.08996212121211933  6.763020833333334 0  7 0  C 7.236979166666667 0  7.442057291666667 0.08996212121211933  7.615234375 0.26988636363636465  L 13.740234375 6.633522727272727  Z " fill-rule="evenodd" />
    </mask>
  </defs>
  <g transform="matrix(1 0 0 1 -133 -259 )">
    <path d="M 13.740234375 12.088068181818183  C 13.913411458333334 12.267992424242422  14 12.481060606060606  14 12.727272727272727  C 14 12.973484848484848  13.913411458333334 13.186553030303028  13.740234375 13.366477272727273  L 7.615234375 19.730113636363637  C 7.442057291666667 19.910037878787882  7.236979166666667 20  7 20  C 6.763020833333334 20  6.557942708333334 19.910037878787882  6.384765625 19.730113636363637  L 0.259765625 13.366477272727273  C 0.08658854166666666 13.186553030303028  0 12.973484848484848  0 12.727272727272727  C 0 12.481060606060606  0.08658854166666666 12.267992424242422  0.259765625 12.088068181818183  C 0.43294270833333337 11.908143939393938  0.6380208333333334 11.818181818181817  0.875 11.818181818181817  L 13.125 11.818181818181817  C 13.361979166666668 11.818181818181817  13.567057291666668 11.908143939393938  13.740234375 12.088068181818183  Z M 13.740234375 6.633522727272727  C 13.913411458333334 6.813446969696968  14 7.026515151515149  14 7.272727272727273  C 14 7.518939393939393  13.913411458333334 7.732007575757576  13.740234375 7.911931818181818  C 13.567057291666668 8.091856060606062  13.361979166666668 8.181818181818182  13.125 8.181818181818182  L 0.875 8.181818181818182  C 0.6380208333333334 8.181818181818182  0.43294270833333337 8.091856060606062  0.259765625 7.911931818181818  C 0.08658854166666666 7.732007575757576  0 7.518939393939393  0 7.272727272727273  C 0 7.026515151515149  0.08658854166666666 6.813446969696968  0.259765625 6.633522727272727  L 6.384765625 0.26988636363636465  C 6.557942708333334 0.08996212121211933  6.763020833333334 0  7 0  C 7.236979166666667 0  7.442057291666667 0.08996212121211933  7.615234375 0.26988636363636465  L 13.740234375 6.633522727272727  Z " fill-rule="nonzero" fill="rgba(0, 0, 0, 1)" stroke="none" transform="matrix(1 0 0 1 133 259 )" class="fill" />
    <path d="M 13.740234375 12.088068181818183  C 13.913411458333334 12.267992424242422  14 12.481060606060606  14 12.727272727272727  C 14 12.973484848484848  13.913411458333334 13.186553030303028  13.740234375 13.366477272727273  L 7.615234375 19.730113636363637  C 7.442057291666667 19.910037878787882  7.236979166666667 20  7 20  C 6.763020833333334 20  6.557942708333334 19.910037878787882  6.384765625 19.730113636363637  L 0.259765625 13.366477272727273  C 0.08658854166666666 13.186553030303028  0 12.973484848484848  0 12.727272727272727  C 0 12.481060606060606  0.08658854166666666 12.267992424242422  0.259765625 12.088068181818183  C 0.43294270833333337 11.908143939393938  0.6380208333333334 11.818181818181817  0.875 11.818181818181817  L 13.125 11.818181818181817  C 13.361979166666668 11.818181818181817  13.567057291666668 11.908143939393938  13.740234375 12.088068181818183  Z " stroke-width="0" stroke-dasharray="0" stroke="rgba(255, 255, 255, 0)" fill="none" transform="matrix(1 0 0 1 133 259 )" class="stroke" mask="url(#Clip289)" />
    <path d="M 13.740234375 6.633522727272727  C 13.913411458333334 6.813446969696968  14 7.026515151515149  14 7.272727272727273  C 14 7.518939393939393  13.913411458333334 7.732007575757576  13.740234375 7.911931818181818  C 13.567057291666668 8.091856060606062  13.361979166666668 8.181818181818182  13.125 8.181818181818182  L 0.875 8.181818181818182  C 0.6380208333333334 8.181818181818182  0.43294270833333337 8.091856060606062  0.259765625 7.911931818181818  C 0.08658854166666666 7.732007575757576  0 7.518939393939393  0 7.272727272727273  C 0 7.026515151515149  0.08658854166666666 6.813446969696968  0.259765625 6.633522727272727  L 6.384765625 0.26988636363636465  C 6.557942708333334 0.08996212121211933  6.763020833333334 0  7 0  C 7.236979166666667 0  7.442057291666667 0.08996212121211933  7.615234375 0.26988636363636465  L 13.740234375 6.633522727272727  Z " stroke-width="0" stroke-dasharray="0" stroke="rgba(255, 255, 255, 0)" fill="none" transform="matrix(1 0 0 1 133 259 )" class="stroke" mask="url(#Clip289)" />
  </g>
</svg>