<!-- Generator: Adobe Illustrator 23.1.0, SVG Export Plug-In  -->
<svg version="1.1" xmlns="http://www.w3.org/2000/svg" xmlns:xlink="http://www.w3.org/1999/xlink" x="0px" y="0px"
	 width="628.96px" height="629.09px" viewBox="0 0 628.96 629.09" style="enable-background:new 0 0 628.96 629.09;"
	 xml:space="preserve">
<style type="text/css">
	.st0{fill:#FFFFFF;}
</style>
<defs>
</defs>
<g>
	<path d="M0.03,314.57c0-63.17-0.08-126.34,0.02-189.51C0.15,67.1,37.17,18.28,92.27,4.19c10.69-2.73,22.05-3.96,33.1-3.99
		c126.15-0.27,252.3-0.23,378.45-0.15c64.3,0.04,115.6,44.82,124.17,108.26c0.76,5.59,0.92,11.3,0.92,16.96
		c0.05,126.17,0.09,252.35,0.01,378.52c-0.04,61.71-41.31,111.96-101.21,123.18c-7.97,1.49-16.23,2-24.35,2.01
		c-125.98,0.12-251.97,0.14-377.95,0.06C60.95,629.01,9.73,584.49,1.04,521.03c-0.83-6.08-0.96-12.3-0.97-18.45
		C0,439.91,0.03,377.24,0.03,314.57z M294.39,363.16c1.44,1.89,2.65,3.42,3.81,4.99c31.18,42.22,62.39,84.43,93.49,126.72
		c2.09,2.84,4.24,4,7.81,3.98c33.66-0.14,67.32-0.08,100.98-0.09c1.58,0,3.15-0.17,5.71-0.32
		c-52.16-71.42-103.8-142.13-155.63-213.09c43.52-51.52,86.84-102.8,130.94-155c-15.56,0-29.55,0.1-43.53-0.07
		c-3.33-0.04-5.48,1.04-7.6,3.57c-32.19,38.25-64.47,76.43-96.73,114.62c-1.69,2-3.41,3.96-5.36,6.22c-1.57-2.11-2.77-3.7-3.94-5.3
		c-28.01-38.35-56.05-76.68-83.97-115.1c-2.07-2.85-4.21-4.02-7.79-4.01c-34.66,0.14-69.32,0.08-103.98,0.09
		c-1.59,0-3.18,0.15-5.58,0.28c1.51,2.18,2.56,3.8,3.7,5.35c47.31,64.08,94.59,128.18,142.03,192.17c2.61,3.52,2.37,5.52-0.36,8.73
		c-44.31,52.23-88.48,104.57-132.67,156.9c-1.12,1.33-2.14,2.75-3.67,4.74c2.44,0.11,4.04,0.25,5.63,0.25
		c12.16,0.02,24.33-0.12,36.49,0.09c3.82,0.07,6.38-1.03,8.9-4.03c35.71-42.47,71.57-84.83,107.39-127.21
		C291.61,366.23,292.83,364.92,294.39,363.16z"/>
	<path class="st0" d="M294.39,363.16c-1.56,1.76-2.78,3.08-3.94,4.44c-35.82,42.38-71.68,84.74-107.39,127.21
		c-2.53,3-5.08,4.1-8.9,4.03c-12.16-0.21-24.33-0.07-36.49-0.09c-1.6,0-3.19-0.14-5.63-0.25c1.53-1.98,2.54-3.41,3.67-4.74
		c44.19-52.33,88.37-104.67,132.67-156.9c2.73-3.22,2.97-5.21,0.36-8.73c-47.44-63.99-94.72-128.09-142.03-192.17
		c-1.14-1.55-2.2-3.17-3.7-5.35c2.4-0.12,3.99-0.28,5.58-0.28c34.66-0.01,69.32,0.04,103.98-0.09c3.58-0.01,5.71,1.16,7.79,4.01
		c27.92,38.42,55.96,76.75,83.97,115.1c1.17,1.6,2.37,3.19,3.94,5.3c1.95-2.26,3.67-4.22,5.36-6.22
		c32.26-38.19,64.55-76.36,96.73-114.62c2.13-2.53,4.27-3.61,7.6-3.57c13.99,0.18,27.98,0.07,43.53,0.07
		c-44.1,52.2-87.42,103.48-130.94,155c51.83,70.97,103.47,141.67,155.63,213.09c-2.55,0.15-4.13,0.32-5.71,0.32
		c-33.66,0.02-67.32-0.04-100.98,0.09c-3.57,0.01-5.72-1.14-7.81-3.98c-31.09-42.29-62.3-84.5-93.49-126.72
		C297.04,366.58,295.84,365.05,294.39,363.16z M174.12,156.11c1.48,2.18,2.18,3.28,2.95,4.32
		c75.62,102.39,151.25,204.77,226.8,307.2c1.92,2.61,3.95,3.5,7.08,3.46c12.49-0.15,24.99-0.05,37.48-0.08c1.52,0,3.05-0.22,5.3-0.4
		c-1.8-2.51-3.03-4.26-4.29-5.98C377.22,365.75,304.87,266.96,233,167.81c-6.35-8.77-12.49-13-23.47-11.95
		C198.18,156.96,186.65,156.11,174.12,156.11z"/>
	<path d="M174.12,156.11c12.53,0,24.07,0.85,35.42-0.24c10.98-1.06,17.12,3.18,23.47,11.95c71.87,99.14,144.22,197.94,216.44,296.82
		c1.26,1.72,2.49,3.47,4.29,5.98c-2.25,0.18-3.78,0.4-5.3,0.4c-12.49,0.03-24.99-0.07-37.48,0.08c-3.12,0.04-5.16-0.85-7.08-3.46
		c-75.55-102.44-151.18-204.81-226.8-307.2C176.3,159.39,175.6,158.29,174.12,156.11z"/>
</g>
</svg>
