<?xml version="1.0" encoding="utf-8"?>
<svg version="1.1" xmlns:xlink="http://www.w3.org/1999/xlink" width="14px" height="14px" xmlns="http://www.w3.org/2000/svg">
  <defs>
    <pattern id="BGPattern" patternUnits="userSpaceOnUse" alignment="0 0" imageRepeat="None" />
    <mask fill="white" id="Clip256">
      <path d="M 3.5 9.333333333333334  L 3.5 12.833333333333332  L 10.5 12.833333333333332  L 10.5 9.333333333333334  L 3.5 9.333333333333334  Z M 11.666666666666668 9.041666666666666  L 11.666666666666668 12.833333333333332  L 12.833333333333332 12.833333333333332  L 12.833333333333332 4.666666666666667  C 12.833333333333332 4.5815972222222205  12.80295138888889 4.464626736111111  12.7421875 4.315755208333333  C 12.681423611111112 4.1668836805555545  12.620659722222223 4.0620659722222205  12.559895833333332 4.001302083333333  L 9.998697916666668 1.4401041666666672  C 9.93793402777778 1.3793402777777766  9.834635416666668 1.3185763888888875  9.688802083333332 1.2578125  C 9.54296875 1.197048611111111  9.424479166666668 1.1666666666666672  9.333333333333332 1.1666666666666672  L 9.333333333333332 4.958333333333333  C 9.333333333333332 5.201388888888889  9.24826388888889 5.407986111111111  9.078125 5.578125  C 8.90798611111111 5.748263888888889  8.70138888888889 5.833333333333333  8.458333333333332 5.833333333333333  L 3.208333333333333 5.833333333333333  C 2.965277777777778 5.833333333333333  2.758680555555556 5.748263888888889  2.588541666666667 5.578125  C 2.418402777777778 5.407986111111111  2.333333333333333 5.201388888888889  2.333333333333333 4.958333333333333  L 2.333333333333333 1.1666666666666672  L 1.1666666666666665 1.1666666666666672  L 1.1666666666666665 12.833333333333332  L 2.333333333333333 12.833333333333332  L 2.333333333333333 9.041666666666666  C 2.333333333333333 8.798611111111109  2.418402777777778 8.592013888888888  2.588541666666667 8.421875  C 2.758680555555556 8.251736111111109  2.965277777777778 8.166666666666666  3.208333333333333 8.166666666666666  L 10.791666666666668 8.166666666666666  C 11.034722222222223 8.166666666666666  11.241319444444445 8.251736111111109  11.411458333333332 8.421875  C 11.581597222222223 8.592013888888888  11.666666666666668 8.798611111111109  11.666666666666668 9.041666666666666  Z M 8.080078125 4.580078125  C 8.137803819444445 4.5223524305555545  8.166666666666668 4.4539930555555545  8.166666666666668 4.375  L 8.166666666666668 1.4583333333333328  C 8.166666666666668 1.3793402777777766  8.137803819444445 1.3109809027777766  8.080078125 1.2532552083333328  C 8.022352430555557 1.1955295138888875  7.953993055555556 1.1666666666666672  7.875 1.1666666666666672  L 6.125 1.1666666666666672  C 6.046006944444445 1.1666666666666672  5.977647569444445 1.1955295138888875  5.919921875 1.2532552083333328  C 5.862196180555556 1.3109809027777766  5.833333333333334 1.3793402777777766  5.833333333333334 1.4583333333333328  L 5.833333333333334 4.375  C 5.833333333333334 4.4539930555555545  5.862196180555556 4.5223524305555545  5.919921875 4.580078125  C 5.977647569444445 4.637803819444444  6.046006944444445 4.666666666666667  6.125 4.666666666666667  L 7.875 4.666666666666667  C 7.953993055555556 4.666666666666667  8.022352430555557 4.637803819444444  8.080078125 4.580078125  Z M 13.817708333333332 3.864583333333333  C 13.93923611111111 4.15625  14 4.423611111111111  14 4.666666666666667  L 14 13.125  C 14 13.368055555555557  13.914930555555555 13.574652777777777  13.744791666666668 13.744791666666668  C 13.57465277777778 13.914930555555557  13.368055555555557 14  13.125 14  L 0.875 14  C 0.6319444444444445 14  0.42534722222222227 13.914930555555557  0.25520833333333337 13.744791666666668  C 0.08506944444444443 13.574652777777777  0 13.368055555555557  0 13.125  L 0 0.875  C 0 0.6319444444444438  0.08506944444444443 0.4253472222222203  0.25520833333333337 0.2552083333333328  C 0.42534722222222227 0.08506944444444375  0.6319444444444445 0  0.875 0  L 9.333333333333332 0  C 9.57638888888889 0  9.84375 0.06076388888888751  10.135416666666668 0.18229166666666718  C 10.427083333333332 0.30381944444444375  10.657986111111112 0.44965277777777657  10.828125 0.6197916666666672  L 13.380208333333332 3.171875  C 13.550347222222223 3.3420138888888875  13.696180555555557 3.572916666666667  13.817708333333332 3.864583333333333  Z " fill-rule="evenodd" />
    </mask>
  </defs>
  <g transform="matrix(1 0 0 1 -88 -1036 )">
    <path d="M 3.5 9.333333333333334  L 3.5 12.833333333333332  L 10.5 12.833333333333332  L 10.5 9.333333333333334  L 3.5 9.333333333333334  Z M 11.666666666666668 9.041666666666666  L 11.666666666666668 12.833333333333332  L 12.833333333333332 12.833333333333332  L 12.833333333333332 4.666666666666667  C 12.833333333333332 4.5815972222222205  12.80295138888889 4.464626736111111  12.7421875 4.315755208333333  C 12.681423611111112 4.1668836805555545  12.620659722222223 4.0620659722222205  12.559895833333332 4.001302083333333  L 9.998697916666668 1.4401041666666672  C 9.93793402777778 1.3793402777777766  9.834635416666668 1.3185763888888875  9.688802083333332 1.2578125  C 9.54296875 1.197048611111111  9.424479166666668 1.1666666666666672  9.333333333333332 1.1666666666666672  L 9.333333333333332 4.958333333333333  C 9.333333333333332 5.201388888888889  9.24826388888889 5.407986111111111  9.078125 5.578125  C 8.90798611111111 5.748263888888889  8.70138888888889 5.833333333333333  8.458333333333332 5.833333333333333  L 3.208333333333333 5.833333333333333  C 2.965277777777778 5.833333333333333  2.758680555555556 5.748263888888889  2.588541666666667 5.578125  C 2.418402777777778 5.407986111111111  2.333333333333333 5.201388888888889  2.333333333333333 4.958333333333333  L 2.333333333333333 1.1666666666666672  L 1.1666666666666665 1.1666666666666672  L 1.1666666666666665 12.833333333333332  L 2.333333333333333 12.833333333333332  L 2.333333333333333 9.041666666666666  C 2.333333333333333 8.798611111111109  2.418402777777778 8.592013888888888  2.588541666666667 8.421875  C 2.758680555555556 8.251736111111109  2.965277777777778 8.166666666666666  3.208333333333333 8.166666666666666  L 10.791666666666668 8.166666666666666  C 11.034722222222223 8.166666666666666  11.241319444444445 8.251736111111109  11.411458333333332 8.421875  C 11.581597222222223 8.592013888888888  11.666666666666668 8.798611111111109  11.666666666666668 9.041666666666666  Z M 8.080078125 4.580078125  C 8.137803819444445 4.5223524305555545  8.166666666666668 4.4539930555555545  8.166666666666668 4.375  L 8.166666666666668 1.4583333333333328  C 8.166666666666668 1.3793402777777766  8.137803819444445 1.3109809027777766  8.080078125 1.2532552083333328  C 8.022352430555557 1.1955295138888875  7.953993055555556 1.1666666666666672  7.875 1.1666666666666672  L 6.125 1.1666666666666672  C 6.046006944444445 1.1666666666666672  5.977647569444445 1.1955295138888875  5.919921875 1.2532552083333328  C 5.862196180555556 1.3109809027777766  5.833333333333334 1.3793402777777766  5.833333333333334 1.4583333333333328  L 5.833333333333334 4.375  C 5.833333333333334 4.4539930555555545  5.862196180555556 4.5223524305555545  5.919921875 4.580078125  C 5.977647569444445 4.637803819444444  6.046006944444445 4.666666666666667  6.125 4.666666666666667  L 7.875 4.666666666666667  C 7.953993055555556 4.666666666666667  8.022352430555557 4.637803819444444  8.080078125 4.580078125  Z M 13.817708333333332 3.864583333333333  C 13.93923611111111 4.15625  14 4.423611111111111  14 4.666666666666667  L 14 13.125  C 14 13.368055555555557  13.914930555555555 13.574652777777777  13.744791666666668 13.744791666666668  C 13.57465277777778 13.914930555555557  13.368055555555557 14  13.125 14  L 0.875 14  C 0.6319444444444445 14  0.42534722222222227 13.914930555555557  0.25520833333333337 13.744791666666668  C 0.08506944444444443 13.574652777777777  0 13.368055555555557  0 13.125  L 0 0.875  C 0 0.6319444444444438  0.08506944444444443 0.4253472222222203  0.25520833333333337 0.2552083333333328  C 0.42534722222222227 0.08506944444444375  0.6319444444444445 0  0.875 0  L 9.333333333333332 0  C 9.57638888888889 0  9.84375 0.06076388888888751  10.135416666666668 0.18229166666666718  C 10.427083333333332 0.30381944444444375  10.657986111111112 0.44965277777777657  10.828125 0.6197916666666672  L 13.380208333333332 3.171875  C 13.550347222222223 3.3420138888888875  13.696180555555557 3.572916666666667  13.817708333333332 3.864583333333333  Z " fill-rule="nonzero" fill="rgba(255, 255, 255, 0.9921568627450981)" stroke="none" transform="matrix(1 0 0 1 88 1036 )" class="fill" />
    <path d="M 3.5 9.333333333333334  L 3.5 12.833333333333332  L 10.5 12.833333333333332  L 10.5 9.333333333333334  L 3.5 9.333333333333334  Z " stroke-width="0" stroke-dasharray="0" stroke="rgba(255, 255, 255, 0)" fill="none" transform="matrix(1 0 0 1 88 1036 )" class="stroke" mask="url(#Clip256)" />
    <path d="M 11.666666666666668 9.041666666666666  L 11.666666666666668 12.833333333333332  L 12.833333333333332 12.833333333333332  L 12.833333333333332 4.666666666666667  C 12.833333333333332 4.5815972222222205  12.80295138888889 4.464626736111111  12.7421875 4.315755208333333  C 12.681423611111112 4.1668836805555545  12.620659722222223 4.0620659722222205  12.559895833333332 4.001302083333333  L 9.998697916666668 1.4401041666666672  C 9.93793402777778 1.3793402777777766  9.834635416666668 1.3185763888888875  9.688802083333332 1.2578125  C 9.54296875 1.197048611111111  9.424479166666668 1.1666666666666672  9.333333333333332 1.1666666666666672  L 9.333333333333332 4.958333333333333  C 9.333333333333332 5.201388888888889  9.24826388888889 5.407986111111111  9.078125 5.578125  C 8.90798611111111 5.748263888888889  8.70138888888889 5.833333333333333  8.458333333333332 5.833333333333333  L 3.208333333333333 5.833333333333333  C 2.965277777777778 5.833333333333333  2.758680555555556 5.748263888888889  2.588541666666667 5.578125  C 2.418402777777778 5.407986111111111  2.333333333333333 5.201388888888889  2.333333333333333 4.958333333333333  L 2.333333333333333 1.1666666666666672  L 1.1666666666666665 1.1666666666666672  L 1.1666666666666665 12.833333333333332  L 2.333333333333333 12.833333333333332  L 2.333333333333333 9.041666666666666  C 2.333333333333333 8.798611111111109  2.418402777777778 8.592013888888888  2.588541666666667 8.421875  C 2.758680555555556 8.251736111111109  2.965277777777778 8.166666666666666  3.208333333333333 8.166666666666666  L 10.791666666666668 8.166666666666666  C 11.034722222222223 8.166666666666666  11.241319444444445 8.251736111111109  11.411458333333332 8.421875  C 11.581597222222223 8.592013888888888  11.666666666666668 8.798611111111109  11.666666666666668 9.041666666666666  Z " stroke-width="0" stroke-dasharray="0" stroke="rgba(255, 255, 255, 0)" fill="none" transform="matrix(1 0 0 1 88 1036 )" class="stroke" mask="url(#Clip256)" />
    <path d="M 8.080078125 4.580078125  C 8.137803819444445 4.5223524305555545  8.166666666666668 4.4539930555555545  8.166666666666668 4.375  L 8.166666666666668 1.4583333333333328  C 8.166666666666668 1.3793402777777766  8.137803819444445 1.3109809027777766  8.080078125 1.2532552083333328  C 8.022352430555557 1.1955295138888875  7.953993055555556 1.1666666666666672  7.875 1.1666666666666672  L 6.125 1.1666666666666672  C 6.046006944444445 1.1666666666666672  5.977647569444445 1.1955295138888875  5.919921875 1.2532552083333328  C 5.862196180555556 1.3109809027777766  5.833333333333334 1.3793402777777766  5.833333333333334 1.4583333333333328  L 5.833333333333334 4.375  C 5.833333333333334 4.4539930555555545  5.862196180555556 4.5223524305555545  5.919921875 4.580078125  C 5.977647569444445 4.637803819444444  6.046006944444445 4.666666666666667  6.125 4.666666666666667  L 7.875 4.666666666666667  C 7.953993055555556 4.666666666666667  8.022352430555557 4.637803819444444  8.080078125 4.580078125  Z " stroke-width="0" stroke-dasharray="0" stroke="rgba(255, 255, 255, 0)" fill="none" transform="matrix(1 0 0 1 88 1036 )" class="stroke" mask="url(#Clip256)" />
    <path d="M 13.817708333333332 3.864583333333333  C 13.93923611111111 4.15625  14 4.423611111111111  14 4.666666666666667  L 14 13.125  C 14 13.368055555555557  13.914930555555555 13.574652777777777  13.744791666666668 13.744791666666668  C 13.57465277777778 13.914930555555557  13.368055555555557 14  13.125 14  L 0.875 14  C 0.6319444444444445 14  0.42534722222222227 13.914930555555557  0.25520833333333337 13.744791666666668  C 0.08506944444444443 13.574652777777777  0 13.368055555555557  0 13.125  L 0 0.875  C 0 0.6319444444444438  0.08506944444444443 0.4253472222222203  0.25520833333333337 0.2552083333333328  C 0.42534722222222227 0.08506944444444375  0.6319444444444445 0  0.875 0  L 9.333333333333332 0  C 9.57638888888889 0  9.84375 0.06076388888888751  10.135416666666668 0.18229166666666718  C 10.427083333333332 0.30381944444444375  10.657986111111112 0.44965277777777657  10.828125 0.6197916666666672  L 13.380208333333332 3.171875  C 13.550347222222223 3.3420138888888875  13.696180555555557 3.572916666666667  13.817708333333332 3.864583333333333  Z " stroke-width="0" stroke-dasharray="0" stroke="rgba(255, 255, 255, 0)" fill="none" transform="matrix(1 0 0 1 88 1036 )" class="stroke" mask="url(#Clip256)" />
  </g>
</svg>