<!-- Generator: Adobe Illustrator 23.1.0, SVG Export Plug-In  -->
<svg version="1.1" xmlns="http://www.w3.org/2000/svg" xmlns:xlink="http://www.w3.org/1999/xlink" x="0px" y="0px"
	 width="471.63px" height="479.29px" viewBox="0 0 471.63 479.29" style="enable-background:new 0 0 471.63 479.29;"
	 xml:space="preserve">
<style type="text/css">
	.st0{fill:#FFFFFF;}
</style>
<defs>
</defs>
<path d="M183.75,413.14c-2.48,0-4.44,0-6.39,0c-44.5,0.03-88.99,0.06-133.49,0.09c-12.55,0.01-23.58-3.78-32.5-12.9
	c-8.75-8.94-11.37-20.06-11.37-32.1C0,337.57,0,306.91,0,276.25c0-64.66,0-129.32,0.01-193.98c0.01-27.78,17.11-44.82,44.95-44.83
	c29.33-0.01,58.66,0,87.99,0c1.79,0,3.58,0,5.65,0c0,3.26,0,6.03,0,9.61c-1.94,0-3.85,0-5.77,0c-30.5,0.02-61-0.12-91.49,0.14
	c-16.27,0.14-28.19,10.55-31.13,26.38c-0.39,2.11-0.47,4.31-0.47,6.46c-0.02,96.32-0.03,192.65,0.01,288.97
	c0.01,21.64,12.96,34.49,34.62,34.49c108.82-0.02,217.65-0.06,326.47-0.09c19.16-0.01,38.33,0.03,57.49-0.02
	c20.48-0.05,33.5-12.97,33.51-33.45c0.05-96.32,0.05-192.65,0.01-288.97c-0.01-20.87-12.93-33.72-33.71-33.77
	c-30.66-0.08-61.33-0.09-91.99-0.13c-1.81,0-3.62,0-5.8,0c0-3.24,0-6.11,0-9.37c1.68-0.08,3.3-0.24,4.91-0.24
	c30.66-0.02,61.33-0.05,91.99-0.01c27.39,0.03,44.32,16.87,44.34,44.34c0.06,95.99,0.05,191.98,0.01,287.97
	c-0.01,26.04-17.25,43.34-43.27,43.39c-43.83,0.08-87.66,0.02-131.49,0.02c-2.14,0-4.28,0-6.89,0c-0.44,8.07,1.34,15.2,5.25,21.71
	c7.81,13,19.51,19.8,34.6,20.34c9.65,0.34,19.33,0.07,28.99,0.07c1.5,0,3-0.03,4.5,0.05c7.82,0.41,12.95,5.01,13.06,11.7
	c0.12,6.94-5.12,11.97-13.07,12.18c-6.83,0.18-13.66,0.03-20.49,0.03c-76.66,0-153.31,0-229.97-0.01c-1.67,0-3.34,0.09-5-0.07
	c-6.88-0.68-11.73-5.8-11.58-12.13c0.15-6.5,4.95-11.4,12.02-11.55c11.33-0.24,22.66-0.06,33.99-0.13
	c12.85-0.07,23.76-4.54,32.15-14.51C180.92,433.1,183.64,424.05,183.75,413.14z M193.81,413.41c-0.26,2.21-0.5,4.17-0.72,6.13
	c-2.83,25.22-19.9,42.65-45.16,44.89c-12.08,1.07-24.31,0.4-36.46,0.74c-1.79,0.05-3.55,1.38-5.32,2.12c1.8,0.76,3.6,1.53,5.42,2.25
	c0.29,0.11,0.66,0.02,0.99,0.02c82.33,0,164.66-0.01,247-0.02c1.5,0,3.06,0.14,4.47-0.24c0.91-0.25,1.59-1.34,2.38-2.05
	c-0.81-0.69-1.52-1.71-2.46-2c-1.23-0.39-2.63-0.25-3.96-0.26c-9.5-0.02-19,0.09-28.5-0.03c-25.2-0.31-45.27-16.19-50.24-39.8
	c-0.81-3.84-1.1-7.79-1.64-11.76C250.83,413.41,222.4,413.41,193.81,413.41z"/>
<path d="M440.41,83.95c-36.85,0-73.43,0-110.22,0c0-3.35,0-6.12,0-9.27c39.85,0,79.59,0,119.77,0c0,93.27,0,186.63,0,280.24
	c-143.11,0-286.04,0-429.41,0c0-93.37,0-186.73,0-280.35c39.27,0,78.38,0,117.91,0c0,2.87,0,5.76,0,9.34c-35.95,0-71.99,0-108.33,0
	c0,87.42,0,174.16,0,261.26c136.76,0,273.32,0,410.28,0C440.41,258.38,440.41,171.65,440.41,83.95z"/>
<path d="M297.34,40.71c-7.99,1.21-8.01,1.21-7.99,8.29c0.03,12.99-0.11,25.98,0.25,38.96c0.12,4.21-1.55,6.33-5.21,7.05
	c-7.01,1.39-14.02,3.02-21.12,3.63c-24.77,2.13-49.55,2.49-74.23-1.27c-0.66-0.1-1.32-0.2-1.97-0.34
	c-9.74-2.19-10.34-2.95-10.35-12.86c-0.02-12.32-0.16-24.65-0.05-36.97c0.03-2.97-0.84-4.42-3.79-5.36
	c-8.84-2.84-17.57-6.04-27.27-9.42c1.83-0.88,2.86-1.47,3.95-1.88c26.49-9.92,52.97-19.85,79.49-29.67
	c1.74-0.65,4.03-1.21,5.64-0.62c28.45,10.34,56.83,20.85,86.22,31.7c-3.82,1.34-6.68,2.67-9.68,3.31c-3.71,0.8-4.65,2.86-4.43,6.37
	c0.27,4.31-0.26,8.69,0.17,12.98c0.35,3.48,1.3,6.98,2.55,10.26c1.85,4.84,1.88,9.48-0.68,13.92c-3.28,5.69-9.79,5.75-13.39,0.28
	c-3.11-4.73-2.84-11.87,0.56-16.38c0.56-0.74,1.25-1.66,1.26-2.5C297.39,53.72,297.34,47.26,297.34,40.71z M279.76,46.11
	c-2.25,0.65-3.67,1.01-5.06,1.47c-12.94,4.33-25.83,8.82-38.85,12.91c-2.6,0.82-5.9,0.88-8.49,0.06
	c-10.79-3.41-21.42-7.29-32.12-10.98c-2.76-0.95-5.56-1.79-8.83-2.84c0,11.77,0.36,22.9-0.15,33.99c-0.25,5.56,1.95,7.39,6.89,7.61
	c14.29,0.65,28.59,2.02,42.87,1.88c13.11-0.12,26.21-1.73,39.29-2.99c1.57-0.15,4.21-2.16,4.24-3.36
	C279.88,71.57,279.76,59.26,279.76,46.11z M174.47,31.62c1.18,0.7,1.69,1.14,2.29,1.34c17.45,6.06,34.89,12.16,52.4,18.04
	c1.7,0.57,3.95,0.21,5.75-0.36c9.04-2.87,18.02-5.95,27.01-8.97c9.51-3.19,19-6.4,29.54-9.95c-2.39-1.06-3.69-1.72-5.05-2.22
	c-10.92-4.06-22.33-7.14-32.66-12.35c-14.43-7.28-27.69-6.69-42.02,0.21C199.94,23.03,187.27,26.81,174.47,31.62z"/>
<path d="M351.7,223.95c-3.47,3.66-6.33,6.92-9.45,9.91c-6.86,6.57-14.82,4.26-16.66-5.06c-3.41-17.32-6.61-34.68-9.6-52.08
	c-1.46-8.47,3.27-12.87,11.94-11.82c15.71,1.9,31.43,3.7,47.13,5.72c5.05,0.65,10.85,0.79,12.87,6.79c2.01,5.96-1.86,10.14-5.64,14
	c-1.74,1.78-3.85,3.18-5.8,4.75c-0.23,0.78-0.47,1.56-0.7,2.35c1.62,0.88,3.48,1.47,4.81,2.67c8.03,7.27,16.01,14.59,23.84,22.07
	c5.49,5.25,5.6,9.54,0.63,15.19c-3.19,3.63-6.53,7.13-9.87,10.61c-5.31,5.54-10.33,5.7-16.08,0.41
	C370.08,241.13,361.11,232.71,351.7,223.95z M398.61,231.17c-9.57-8.95-18.77-17.37-27.76-26.03c-5.47-5.27-5.48-9.54-0.52-15.22
	c2.45-2.8,5.03-5.49,8.32-9.05c-18.26-2.23-35.34-4.32-53.34-6.52c3.26,17.76,6.39,34.8,9.74,53.04c2.43-2.6,4.1-4.37,5.75-6.15
	c8.55-9.21,12.23-9.33,21.52-0.71c8.16,7.58,16.33,15.15,24.75,22.96C390.93,239.36,394.54,235.52,398.61,231.17z"/>
<path d="M163.98,301.17c0,7.15,0.17,14.31-0.04,21.46c-0.24,8.05-4.05,11.89-12.17,12c-14.14,0.19-28.28,0.23-42.42,0.04
	c-8.59-0.12-12.4-4.18-12.45-12.76c-0.09-13.81-0.1-27.62,0.01-41.43c0.07-8.65,4.34-12.86,12.97-12.91
	c13.81-0.08,27.62-0.09,41.43,0c8.23,0.05,12.34,3.95,12.62,12.15C164.17,286.85,163.98,294.01,163.98,301.17z M106.6,300.96
	c0,6.82,0.08,13.64-0.04,20.45c-0.05,2.81,1.09,3.83,3.83,3.82c13.3-0.06,26.61-0.07,39.91,0.01c2.96,0.02,4.21-1.16,4.2-4.12
	c-0.05-13.3-0.03-26.61,0.01-39.91c0.01-2.94-1.25-4.09-4.23-4.07c-13.14,0.1-26.28,0.1-39.41,0c-3.2-0.02-4.43,1.1-4.33,4.37
	C106.73,287.99,106.6,294.48,106.6,300.96z"/>
<path d="M130.09,252.47c-7.16,0-14.33,0.16-21.48-0.05c-7.42-0.22-11.51-4.12-11.63-11.53c-0.23-14.49-0.22-28.98-0.01-43.47
	c0.11-7.5,4.44-11.81,11.94-11.92c14.32-0.21,28.65-0.21,42.97-0.02c7.9,0.11,11.97,4.35,12.03,12.23c0.12,14.32,0.12,28.64,0,42.96
	c-0.06,7.45-3.97,11.51-11.35,11.74C145.08,252.65,137.58,252.47,130.09,252.47z M130.3,195.11c-6.5,0-13,0.08-19.49-0.04
	c-2.87-0.05-4.27,0.79-4.25,3.94c0.1,13.33,0.09,26.65,0.01,39.98c-0.02,2.64,0.7,4.03,3.62,4.01c13.49-0.06,26.99-0.05,40.48,0.01
	c2.79,0.01,3.85-1.21,3.84-3.91c-0.04-13.33-0.04-26.66,0.01-39.99c0.01-2.96-1.23-4.11-4.23-4.05
	C143.63,195.22,136.97,195.12,130.3,195.11z"/>
<path d="M199.1,132.54c0-3.15,0-5.79,0-8.85c52.78,0,105.43,0,158.35,0c0,2.88,0,5.65,0,8.85
	C304.79,132.54,252.14,132.54,199.1,132.54z"/>
<path d="M199.21,288.99c0-3.27,0-6.04,0-9.1c47.64,0,95.01,0,142.79,0c0,2.93,0,5.82,0,9.1
	C294.51,288.99,247.03,288.99,199.21,288.99z"/>
<path d="M342.2,313.39c0,3.14,0,5.75,0,8.76c-47.73,0-95.24,0-142.98,0c0-2.98,0-5.71,0-8.76
	C246.9,313.39,294.31,313.39,342.2,313.39z"/>
<path d="M305.29,190.15c0,3.16,0,5.93,0,9c-35.45,0-70.64,0-106.09,0c0-3.05,0-5.82,0-9C234.44,190.15,269.63,190.15,305.29,190.15z
	"/>
<path d="M199.1,232.58c0-3.26,0-5.89,0-8.95c35.34,0,70.52,0,106.09,0c0,2.84,0,5.72,0,8.95
	C269.88,232.58,234.68,232.58,199.1,232.58z"/>
<path d="M255.8,378.72c0.06,11.06-8.84,20.06-19.9,20.13c-11.02,0.07-20.05-8.89-20.09-19.94c-0.04-11.08,8.84-20.07,19.9-20.15
	C246.72,358.69,255.74,367.66,255.8,378.72z M225.56,378.73c-0.04,5.78,4.69,10.52,10.4,10.42c5.53-0.1,10.04-4.68,10.08-10.25
	c0.04-5.74-4.76-10.56-10.41-10.45C230.15,368.54,225.6,373.18,225.56,378.73z"/>
<path class="st0" d="M193.81,413.41c28.59,0,57.03,0,85.79,0c0.54,3.97,0.83,7.92,1.64,11.76c4.98,23.61,25.04,39.5,50.24,39.8
	c9.5,0.12,19,0.01,28.5,0.03c1.33,0,2.74-0.13,3.96,0.26c0.94,0.29,1.65,1.31,2.46,2c-0.79,0.71-1.47,1.8-2.38,2.05
	c-1.41,0.38-2.97,0.24-4.47,0.24c-82.33,0.01-164.66,0.01-247,0.02c-0.33,0-0.71,0.1-0.99-0.02c-1.82-0.73-3.61-1.5-5.42-2.25
	c1.77-0.74,3.53-2.07,5.32-2.12c12.15-0.35,24.38,0.32,36.46-0.74c25.26-2.23,42.33-19.66,45.16-44.89
	C193.31,417.58,193.55,415.62,193.81,413.41z"/>
<path class="st0" d="M279.76,46.11c0,13.15,0.12,25.46-0.19,37.77c-0.03,1.2-2.67,3.21-4.24,3.36c-13.08,1.26-26.18,2.87-39.29,2.99
	c-14.28,0.14-28.58-1.23-42.87-1.88c-4.94-0.23-7.15-2.05-6.89-7.61c0.51-11.09,0.15-22.22,0.15-33.99
	c3.26,1.04,6.06,1.89,8.83,2.84c10.7,3.68,21.33,7.57,32.12,10.98c2.59,0.82,5.88,0.76,8.49-0.06c13.01-4.09,25.91-8.58,38.85-12.91
	C276.09,47.12,277.51,46.76,279.76,46.11z"/>
<path class="st0" d="M174.47,31.62c12.8-4.81,25.48-8.59,37.25-14.26c14.33-6.9,27.59-7.48,42.02-0.21
	c10.33,5.21,21.74,8.29,32.66,12.35c1.36,0.5,2.66,1.16,5.05,2.22c-10.53,3.55-20.03,6.76-29.54,9.95
	c-8.99,3.02-17.97,6.1-27.01,8.97c-1.79,0.57-4.05,0.93-5.75,0.36c-17.51-5.89-34.95-11.98-52.4-18.04
	C176.16,32.76,175.64,32.32,174.47,31.62z"/>
<path class="st0" d="M398.61,231.17c-4.08,4.35-7.68,8.19-11.54,12.31c-8.42-7.81-16.59-15.38-24.75-22.96
	c-9.28-8.62-12.97-8.51-21.52,0.71c-1.65,1.78-3.32,3.55-5.75,6.15c-3.35-18.24-6.48-35.28-9.74-53.04c18,2.2,35.07,4.29,53.34,6.52
	c-3.28,3.56-5.87,6.25-8.32,9.05c-4.96,5.68-4.95,9.95,0.52,15.22C379.84,213.79,389.05,222.22,398.61,231.17z"/>
<path class="st0" d="M106.6,300.96c0-6.49,0.13-12.97-0.06-19.45c-0.1-3.27,1.13-4.39,4.33-4.37c13.14,0.1,26.28,0.1,39.41,0
	c2.98-0.02,4.24,1.13,4.23,4.07c-0.04,13.3-0.06,26.61-0.01,39.91c0.01,2.97-1.24,4.14-4.2,4.12c-13.3-0.07-26.61-0.07-39.91-0.01
	c-2.74,0.01-3.88-1-3.83-3.82C106.68,314.6,106.6,307.78,106.6,300.96z"/>
<path class="st0" d="M130.3,195.11c6.66,0,13.33,0.11,19.99-0.04c3-0.07,4.24,1.08,4.23,4.05c-0.05,13.33-0.05,26.66-0.01,39.99
	c0.01,2.7-1.05,3.92-3.84,3.91c-13.49-0.07-26.99-0.08-40.48-0.01c-2.91,0.01-3.63-1.37-3.62-4.01c0.08-13.33,0.09-26.65-0.01-39.98
	c-0.02-3.15,1.37-3.99,4.25-3.94C117.31,195.19,123.8,195.11,130.3,195.11z"/>
<path class="st0" d="M225.56,378.73c0.04-5.54,4.58-10.18,10.07-10.28c5.65-0.11,10.45,4.71,10.41,10.45
	c-0.04,5.57-4.55,10.16-10.08,10.25C230.26,389.25,225.52,384.5,225.56,378.73z"/>
</svg>
