<?xml version="1.0" encoding="utf-8"?>
<svg version="1.1" xmlns:xlink="http://www.w3.org/1999/xlink" width="22px" height="24px" xmlns="http://www.w3.org/2000/svg">
  <g transform="matrix(1 0 0 1 -67 -12 )">
    <path d="M 13.0625 16.333333333333336  L 19 16.333333333333336  C 19 16.333333333333336  17.33156168460846 14.694166978200277  17.33156168460846 14.694166978200277  C 17.107505555264648 14.473992928862572  16.92978857131675 14.212615795433521  16.808555960655212 13.924960454305012  C 16.687323349993676 13.637305113176506  16.624950401365822 13.329005315899849  16.625 13.017666657765707  C 16.625 13.017666657765707  16.625 9.333333333333334  16.625 9.333333333333334  C 16.625179665072206 7.885425249735515  16.16850170120597 6.473064402739207  15.31783902645111 5.290702978769938  C 14.467176351696253 4.10834155480067  13.264361925423145 3.2141244510809583  11.875 2.73116676012675  C 11.875 2.73116676012675  11.875 2.3333333333333335  11.875 2.3333333333333335  C 11.875 1.7144948343435924  11.624777039512992 1.121002271771431  11.179378151893616 0.6834173997243246  C 10.73397926427424 0.24583252767721814  10.1298891864717 0  9.5 0  C 8.8701108135283 0  8.26602073572576 0.24583252767721814  7.820621848106384 0.6834173997243246  C 7.375222960487008 1.121002271771431  7.125 1.7144948343435924  7.125 2.3333333333333335  C 7.125 2.3333333333333335  7.125 2.73116676012675  7.125 2.73116676012675  C 4.35812509059906 3.6925000945727033  2.375 6.28600001335144  2.375 9.333333333333334  C 2.375 9.333333333333334  2.375 13.01883379618327  2.375 13.01883379618327  C 2.375 13.646500448385876  2.1208752635866404 14.249666964014372  1.6684377491474152 14.694166978200277  C 1.6684377491474152 14.694166978200277  0 16.333333333333336  0 16.333333333333336  L 5.9375 16.333333333333336  M 13.0625 16.333333333333336  C 13.0625 16.333333333333336  13.0625 17.5  13.0625 17.5  C 13.0625 18.428257713715237  12.687166709452868 19.318496853113174  12.019068360328674 19.974874178568523  C 11.350970011204481 20.631251504023872  10.444833744317293 20.999999999999996  9.5 21  C 8.555166255682707 20.999999999999996  7.649029988795519 20.631251504023872  6.980931639671326 19.974874178568523  C 6.3128332905471325 19.318496853113174  5.9375 18.428257713715237  5.9375 17.5  C 5.9375 17.5  5.9375 16.333333333333336  5.9375 16.333333333333336  M 13.0625 16.333333333333336  L 5.9375 16.333333333333336  " stroke-width="2.3333332538604736" stroke-dasharray="0" stroke="rgba(34, 211, 238, 1)" fill="none" transform="matrix(1 0 0 1 68 13 )" class="stroke" />
  </g>
</svg>