<?xml version="1.0" encoding="utf-8"?>
<svg version="1.1" xmlns:xlink="http://www.w3.org/1999/xlink" width="21px" height="21px" xmlns="http://www.w3.org/2000/svg">
  <defs>
    <pattern id="BGPattern" patternUnits="userSpaceOnUse" alignment="0 0" imageRepeat="None" />
    <mask fill="white" id="Clip252">
      <path d="M 5.545166412989299 2.778999964396159  C 6.707166403532028 3.488333274920782  8.223833118875822 2.8606666922569275  8.545833110809326 1.5365000367164612  C 9.042833109696707 -0.5121666789054871  11.957166890303295 -0.5121666789054871  12.454166889190674 1.5365000367164612  C 12.528737517694633 1.844265898068746  12.674924299120903 2.130075437327226  12.880828857421875 2.3706661860148115  C 13.086733415722847 2.611256934702397  13.346537078420322 2.7998300716280937  13.63909387588501 2.921037038167318  C 13.931650673349699 3.042244004706542  14.248692969481151 3.0926594610015554  14.564416567484539 3.0681804815928144  C 14.880140165487926 3.0437015021840734  15.185621331135433 2.945019493500392  15.45599905649821 2.780166546503703  C 17.256165703137718 1.6834998826185867  19.31766669948896 3.7438330451647444  18.221000035603844 5.545166412989299  C 18.056381868819397 5.815431468188763  17.957856559194624 6.12072646121184  17.93343448638916 6.436235427856445  C 17.909012413583696 6.75174439450105  17.95938286309441 7.06856427093347  18.080449422200523 7.360942840576173  C 18.201515981306635 7.653321410218876  18.389862899978958 7.913007587194443  18.630181630452476 8.118894100189209  C 18.870500360925995 8.324780613183975  19.156009510159492 8.47105655198296  19.463500658671062 8.545833110809326  C 21.51216737429301 9.042833109696707  21.51216737429301 11.957166890303295  19.463500658671062 12.454166889190674  C 19.15573479731878 12.528737517694633  18.869924562672775 12.674924299120903  18.62933381398519 12.880828857421875  C 18.388743065297607 13.086733415722847  18.200169928371906 13.346537078420322  18.078962961832683 13.63909387588501  C 17.95775599529346 13.931650673349699  17.907339982688427 14.248692969481151  17.931818962097168 14.564416567484539  C 17.95629794150591 14.880140165487926  18.054981062809627 15.185621331135433  18.219834009806316 15.45599905649821  C 19.316500673691433 17.256165703137718  17.25616639852524 19.31766669948896  15.454833030700685 18.221000035603844  C 15.18456797550122 18.056381868819397  14.879273538788162 17.957856559194624  14.563764572143556 17.93343448638916  C 14.24825560549895 17.909012413583696  13.93143572906653 17.95938286309441  13.639057159423828 18.080449422200523  C 13.346678589781126 18.201515981306635  13.086992412805557 18.389862899978958  12.881105899810791 18.630181630452476  C 12.675219386816025 18.870500360925995  12.52894344801704 19.156009510159492  12.454166889190674 19.463500658671062  C 11.957166890303295 21.51216737429301  9.042833109696707 21.51216737429301  8.545833110809326 19.463500658671062  C 8.471262482305368 19.15573479731878  8.325075700879097 18.869924562672775  8.119171142578125 18.62933381398519  C 7.913266584277153 18.388743065297607  7.6534629215796794 18.200169928371906  7.36090612411499 18.078962961832683  C 7.068349326650303 17.95775599529346  6.75130703051885 17.907339982688427  6.435583432515463 17.931818962097168  C 6.119859834512075 17.95629794150591  5.814377556244532 18.054981062809627  5.543999830881755 18.219834009806316  C 3.7438331842422485 19.316500673691433  1.6823333005110428 17.25616639852524  2.778999964396159 15.454833030700685  C 2.9436181311806044 15.18456797550122  3.0421423281853395 14.879273538788162  3.066564400990804 14.563764572143556  C 3.0909864737962685 14.24825560549895  3.040617136905591 13.93143572906653  2.9195505777994795 13.639057159423828  C 2.798484018693368 13.346678589781126  2.6101371000210447 13.086992412805557  2.3698183695475263 12.881105899810791  C 2.129499639074008 12.675219386816025  1.8439911852280297 12.52894344801704  1.5365000367164612 12.454166889190674  C -0.5121666789054871 11.957166890303295  -0.5121666789054871 9.042833109696707  1.5365000367164612 8.545833110809326  C 1.844265898068746 8.471262482305368  2.130075437327226 8.325075700879097  2.3706661860148115 8.119171142578125  C 2.611256934702397 7.913266584277153  2.7998300716280937 7.6534629215796794  2.921037038167318 7.36090612411499  C 3.042244004706542 7.068349326650303  3.0926594610015554 6.75130703051885  3.0681804815928144 6.435583432515463  C 3.0437015021840734 6.119859834512075  2.945019493500392 5.814377556244532  2.780166546503703 5.543999830881755  C 1.6834998826185867 3.7438331842422485  3.7438330451647444 1.6823333005110428  5.545166412989299 2.778999964396159  Z " fill-rule="evenodd" />
    </mask>
  </defs>
  <g transform="matrix(1 0 0 1 -171 -13 )">
    <path d="M 5.545166412989299 2.778999964396159  C 6.707166403532028 3.488333274920782  8.223833118875822 2.8606666922569275  8.545833110809326 1.5365000367164612  C 9.042833109696707 -0.5121666789054871  11.957166890303295 -0.5121666789054871  12.454166889190674 1.5365000367164612  C 12.528737517694633 1.844265898068746  12.674924299120903 2.130075437327226  12.880828857421875 2.3706661860148115  C 13.086733415722847 2.611256934702397  13.346537078420322 2.7998300716280937  13.63909387588501 2.921037038167318  C 13.931650673349699 3.042244004706542  14.248692969481151 3.0926594610015554  14.564416567484539 3.0681804815928144  C 14.880140165487926 3.0437015021840734  15.185621331135433 2.945019493500392  15.45599905649821 2.780166546503703  C 17.256165703137718 1.6834998826185867  19.31766669948896 3.7438330451647444  18.221000035603844 5.545166412989299  C 18.056381868819397 5.815431468188763  17.957856559194624 6.12072646121184  17.93343448638916 6.436235427856445  C 17.909012413583696 6.75174439450105  17.95938286309441 7.06856427093347  18.080449422200523 7.360942840576173  C 18.201515981306635 7.653321410218876  18.389862899978958 7.913007587194443  18.630181630452476 8.118894100189209  C 18.870500360925995 8.324780613183975  19.156009510159492 8.47105655198296  19.463500658671062 8.545833110809326  C 21.51216737429301 9.042833109696707  21.51216737429301 11.957166890303295  19.463500658671062 12.454166889190674  C 19.15573479731878 12.528737517694633  18.869924562672775 12.674924299120903  18.62933381398519 12.880828857421875  C 18.388743065297607 13.086733415722847  18.200169928371906 13.346537078420322  18.078962961832683 13.63909387588501  C 17.95775599529346 13.931650673349699  17.907339982688427 14.248692969481151  17.931818962097168 14.564416567484539  C 17.95629794150591 14.880140165487926  18.054981062809627 15.185621331135433  18.219834009806316 15.45599905649821  C 19.316500673691433 17.256165703137718  17.25616639852524 19.31766669948896  15.454833030700685 18.221000035603844  C 15.18456797550122 18.056381868819397  14.879273538788162 17.957856559194624  14.563764572143556 17.93343448638916  C 14.24825560549895 17.909012413583696  13.93143572906653 17.95938286309441  13.639057159423828 18.080449422200523  C 13.346678589781126 18.201515981306635  13.086992412805557 18.389862899978958  12.881105899810791 18.630181630452476  C 12.675219386816025 18.870500360925995  12.52894344801704 19.156009510159492  12.454166889190674 19.463500658671062  C 11.957166890303295 21.51216737429301  9.042833109696707 21.51216737429301  8.545833110809326 19.463500658671062  C 8.471262482305368 19.15573479731878  8.325075700879097 18.869924562672775  8.119171142578125 18.62933381398519  C 7.913266584277153 18.388743065297607  7.6534629215796794 18.200169928371906  7.36090612411499 18.078962961832683  C 7.068349326650303 17.95775599529346  6.75130703051885 17.907339982688427  6.435583432515463 17.931818962097168  C 6.119859834512075 17.95629794150591  5.814377556244532 18.054981062809627  5.543999830881755 18.219834009806316  C 3.7438331842422485 19.316500673691433  1.6823333005110428 17.25616639852524  2.778999964396159 15.454833030700685  C 2.9436181311806044 15.18456797550122  3.0421423281853395 14.879273538788162  3.066564400990804 14.563764572143556  C 3.0909864737962685 14.24825560549895  3.040617136905591 13.93143572906653  2.9195505777994795 13.639057159423828  C 2.798484018693368 13.346678589781126  2.6101371000210447 13.086992412805557  2.3698183695475263 12.881105899810791  C 2.129499639074008 12.675219386816025  1.8439911852280297 12.52894344801704  1.5365000367164612 12.454166889190674  C -0.5121666789054871 11.957166890303295  -0.5121666789054871 9.042833109696707  1.5365000367164612 8.545833110809326  C 1.844265898068746 8.471262482305368  2.130075437327226 8.325075700879097  2.3706661860148115 8.119171142578125  C 2.611256934702397 7.913266584277153  2.7998300716280937 7.6534629215796794  2.921037038167318 7.36090612411499  C 3.042244004706542 7.068349326650303  3.0926594610015554 6.75130703051885  3.0681804815928144 6.435583432515463  C 3.0437015021840734 6.119859834512075  2.945019493500392 5.814377556244532  2.780166546503703 5.543999830881755  C 1.6834998826185867 3.7438331842422485  3.7438330451647444 1.6823333005110428  5.545166412989299 2.778999964396159  Z " fill-rule="nonzero" fill="rgba(255, 255, 255, 0)" stroke="none" transform="matrix(1 0 0 1 171 13 )" class="fill" />
    <path d="M 5.545166412989299 2.778999964396159  C 6.707166403532028 3.488333274920782  8.223833118875822 2.8606666922569275  8.545833110809326 1.5365000367164612  C 9.042833109696707 -0.5121666789054871  11.957166890303295 -0.5121666789054871  12.454166889190674 1.5365000367164612  C 12.528737517694633 1.844265898068746  12.674924299120903 2.130075437327226  12.880828857421875 2.3706661860148115  C 13.086733415722847 2.611256934702397  13.346537078420322 2.7998300716280937  13.63909387588501 2.921037038167318  C 13.931650673349699 3.042244004706542  14.248692969481151 3.0926594610015554  14.564416567484539 3.0681804815928144  C 14.880140165487926 3.0437015021840734  15.185621331135433 2.945019493500392  15.45599905649821 2.780166546503703  C 17.256165703137718 1.6834998826185867  19.31766669948896 3.7438330451647444  18.221000035603844 5.545166412989299  C 18.056381868819397 5.815431468188763  17.957856559194624 6.12072646121184  17.93343448638916 6.436235427856445  C 17.909012413583696 6.75174439450105  17.95938286309441 7.06856427093347  18.080449422200523 7.360942840576173  C 18.201515981306635 7.653321410218876  18.389862899978958 7.913007587194443  18.630181630452476 8.118894100189209  C 18.870500360925995 8.324780613183975  19.156009510159492 8.47105655198296  19.463500658671062 8.545833110809326  C 21.51216737429301 9.042833109696707  21.51216737429301 11.957166890303295  19.463500658671062 12.454166889190674  C 19.15573479731878 12.528737517694633  18.869924562672775 12.674924299120903  18.62933381398519 12.880828857421875  C 18.388743065297607 13.086733415722847  18.200169928371906 13.346537078420322  18.078962961832683 13.63909387588501  C 17.95775599529346 13.931650673349699  17.907339982688427 14.248692969481151  17.931818962097168 14.564416567484539  C 17.95629794150591 14.880140165487926  18.054981062809627 15.185621331135433  18.219834009806316 15.45599905649821  C 19.316500673691433 17.256165703137718  17.25616639852524 19.31766669948896  15.454833030700685 18.221000035603844  C 15.18456797550122 18.056381868819397  14.879273538788162 17.957856559194624  14.563764572143556 17.93343448638916  C 14.24825560549895 17.909012413583696  13.93143572906653 17.95938286309441  13.639057159423828 18.080449422200523  C 13.346678589781126 18.201515981306635  13.086992412805557 18.389862899978958  12.881105899810791 18.630181630452476  C 12.675219386816025 18.870500360925995  12.52894344801704 19.156009510159492  12.454166889190674 19.463500658671062  C 11.957166890303295 21.51216737429301  9.042833109696707 21.51216737429301  8.545833110809326 19.463500658671062  C 8.471262482305368 19.15573479731878  8.325075700879097 18.869924562672775  8.119171142578125 18.62933381398519  C 7.913266584277153 18.388743065297607  7.6534629215796794 18.200169928371906  7.36090612411499 18.078962961832683  C 7.068349326650303 17.95775599529346  6.75130703051885 17.907339982688427  6.435583432515463 17.931818962097168  C 6.119859834512075 17.95629794150591  5.814377556244532 18.054981062809627  5.543999830881755 18.219834009806316  C 3.7438331842422485 19.316500673691433  1.6823333005110428 17.25616639852524  2.778999964396159 15.454833030700685  C 2.9436181311806044 15.18456797550122  3.0421423281853395 14.879273538788162  3.066564400990804 14.563764572143556  C 3.0909864737962685 14.24825560549895  3.040617136905591 13.93143572906653  2.9195505777994795 13.639057159423828  C 2.798484018693368 13.346678589781126  2.6101371000210447 13.086992412805557  2.3698183695475263 12.881105899810791  C 2.129499639074008 12.675219386816025  1.8439911852280297 12.52894344801704  1.5365000367164612 12.454166889190674  C -0.5121666789054871 11.957166890303295  -0.5121666789054871 9.042833109696707  1.5365000367164612 8.545833110809326  C 1.844265898068746 8.471262482305368  2.130075437327226 8.325075700879097  2.3706661860148115 8.119171142578125  C 2.611256934702397 7.913266584277153  2.7998300716280937 7.6534629215796794  2.921037038167318 7.36090612411499  C 3.042244004706542 7.068349326650303  3.0926594610015554 6.75130703051885  3.0681804815928144 6.435583432515463  C 3.0437015021840734 6.119859834512075  2.945019493500392 5.814377556244532  2.780166546503703 5.543999830881755  C 1.6834998826185867 3.7438331842422485  3.7438330451647444 1.6823333005110428  5.545166412989299 2.778999964396159  Z " stroke-width="4.666666507720947" stroke-dasharray="0" stroke="rgba(34, 211, 238, 1)" fill="none" transform="matrix(1 0 0 1 171 13 )" class="stroke" mask="url(#Clip252)" />
  </g>
</svg>