<?xml version="1.0" encoding="utf-8"?>
<svg version="1.1" xmlns:xlink="http://www.w3.org/1999/xlink" width="94px" height="20px" xmlns="http://www.w3.org/2000/svg">
  <defs>
    <pattern id="BGPattern" patternUnits="userSpaceOnUse" alignment="0 0" imageRepeat="None" />
    <mask fill="white" id="Clip271">
      <path d="M 0 3  C 0 1.343145728111267  1.343145728111267 0  2.9999999999999996 0  C 2.9999999999999996 0  91 0  91 0  C 92.65685427188873 0  94 1.343145728111267  94 3  C 94 3  94 17  94 17  C 94 18.656854271888733  92.65685427188873 20  91 20  C 91 20  2.9999999999999996 20  2.9999999999999996 20  C 1.343145728111267 20  0 18.656854271888733  0 17  C 0 17  0 3  0 3  Z " fill-rule="evenodd" />
    </mask>
  </defs>
  <g>
    <path d="M 0 3  C 0 1.343145728111267  1.343145728111267 0  2.9999999999999996 0  C 2.9999999999999996 0  91 0  91 0  C 92.65685427188873 0  94 1.343145728111267  94 3  C 94 3  94 17  94 17  C 94 18.656854271888733  92.65685427188873 20  91 20  C 91 20  2.9999999999999996 20  2.9999999999999996 20  C 1.343145728111267 20  0 18.656854271888733  0 17  C 0 17  0 3  0 3  Z " fill-rule="nonzero" fill="rgba(0, 0, 0, 1)" stroke="none" class="fill" />
    <path d="M 0 3  C 0 1.343145728111267  1.343145728111267 0  2.9999999999999996 0  C 2.9999999999999996 0  91 0  91 0  C 92.65685427188873 0  94 1.343145728111267  94 3  C 94 3  94 17  94 17  C 94 18.656854271888733  92.65685427188873 20  91 20  C 91 20  2.9999999999999996 20  2.9999999999999996 20  C 1.343145728111267 20  0 18.656854271888733  0 17  C 0 17  0 3  0 3  Z " stroke-width="0" stroke-dasharray="0" stroke="rgba(121, 121, 121, 1)" fill="none" class="stroke" mask="url(#Clip271)" />
  </g>
</svg>