<?xml version="1.0" encoding="utf-8"?>
<svg version="1.1" xmlns:xlink="http://www.w3.org/1999/xlink" width="7px" height="1px" xmlns="http://www.w3.org/2000/svg">
  <defs>
    <pattern id="BGPattern" patternUnits="userSpaceOnUse" alignment="0 0" imageRepeat="None" />
    <mask fill="white" id="Clip266">
      <path d="M 0.48611111111111116 0.6945819991280686  C 0.4375 0.7241386683222087  0.3743054072062174 0.7389167004915889  0.3013887405395508 0.7389167004915889  C 0.3013887405395508 0.7389167004915889  0.08750014834933811 0.7389167004915889  0.08750014834933811 0.7389167004915889  L 0.08750014834933811 0.024630556683052963  C 0.08750014834933811 0.024630556683052963  0.31111081441243493 0.024630556683052963  0.31111081441243493 0.024630556683052963  C 0.38402748107910156 0.024630556683052963  0.4423614078097873 0.03448217684984741  0.49097251892089844 0.06403884604398744  C 0.5395836300320096 0.09359551523812745  0.5736108132534556 0.13300440358205926  0.6027774810791016 0.18719162945925225  C 0.6270830366346571 0.24137885533644524  0.6416665183173285 0.305419504201807  0.6416665183173285 0.3793111742509659  C 0.6416665183173285 0.45320284430012475  0.6270830366346571 0.5172422893271096  0.6027774810791016 0.5763556277153896  C 0.5736108132534556 0.6256167410814956  0.5347222222222223 0.6650253299339286  0.48611111111111116 0.6945819991280686  Z M 0.1701388888888889 0.09852222673221185  L 0.1701388888888889 0.6600986184398443  C 0.1701388888888889 0.6600986184398443  0.296528074476454 0.6600986184398443  0.296528074476454 0.6600986184398443  C 0.35486141012774575 0.6600986184398443  0.40347251834140885 0.6502472977645485  0.4423614078097873 0.6256167410814956  C 0.4812502972781658 0.605912295441434  0.5104163696782456 0.5763556277153896  0.5298608144124348 0.5270945143492837  C 0.5493052591466241 0.4876856230691607  0.5590277777777777 0.4384245126392459  0.5590277777777777 0.3793111742509659  C 0.5590277777777777 0.32019783586268585  0.5493052591466241 0.2709367254327711  0.5298608144124348 0.2315278341526481  C 0.5104163696782456 0.18719283329762926  0.48124985107117224 0.15763616410348924  0.4472220738728841 0.13300560742043627  C 0.4083331844045056 0.10837505073738331  0.3645834840006299 0.09852222673221185  0.30625014834933806 0.09852222673221185  C 0.30625014834933806 0.09852222673221185  0.1701388888888889 0.09852222673221185  0.1701388888888889 0.09852222673221185  Z M 1.113194147745768 0.7192125558111216  C 1.07916637054748 0.7389170014511831  1.0354168150160046 0.7487695244967604  0.9868057039048937 0.7487695244967604  C 0.9381945927937826 0.7487695244967604  0.899305407785707 0.7389167004915889  0.8604165183173285 0.714286143808536  C 0.8243721549709637 0.6898640934004758  0.7957559211386576 0.6557475912662172  0.7777777777777777 0.615763917076324  C 0.7583333330435886 0.5763550257962011  0.7486108144124348 0.527094214857785  0.7486108144124348 0.472906988980592  C 0.7486108144124348 0.41871976310339903  0.7583333330435886 0.3694586497372931  0.7777777777777777 0.32512364888227424  C 0.797222222511967 0.28571475760215126  0.8263887411190405 0.2512319788331154  0.8604165183173285 0.22660142215006238  C 0.899305407785707 0.2068969765100009  0.9430557050638728 0.19211804146183797  0.9868057039048937 0.19211804146183797  C 1.0354168150160046 0.19211804146183797  1.07916637054748 0.20689727746959516  1.113194147745768 0.2315278341526481  C 1.1520830372141466 0.2512322797927096  1.1763887405395508 0.28078894751875405  1.2006942960951061 0.33005006088485994  C 1.2201387408292956 0.3694589521649829  1.2298612594604492 0.41871976310339903  1.2298612594604492 0.472906988980592  C 1.2298612594604492 0.527094214857785  1.2201387408292956 0.5763553282238909  1.2006942960951061 0.6206903290789098  C 1.1763887405395508 0.6600992203590328  1.1520830372141466 0.6945819991280686  1.113194147745768 0.7192125558111216  Z M 0.8993055555555555 0.6453208857619628  C 0.9236111111111112 0.6650253314020242  0.9479168144365152 0.6748778544476014  0.9868057039048937 0.6748778544476014  C 1.025694593373272 0.6748778544476014  1.054860962761773 0.6650253314020242  1.0791665183173285 0.6453208857619628  C 1.1034720738728843 0.6305425511648928  1.118055407061345 0.6059119944818397  1.1277776294284396 0.5714292157128038  C 1.1504190241297088 0.507751468330477  1.1504190241297088 0.43806250963070703  1.1277776294284396 0.3743847622483802  C 1.118055407061345 0.33990198347934425  1.1034720738728843 0.31527112583669703  1.0791665183173285 0.29556668019663557  C 1.054860962761773 0.27586223455657405  1.025694593373272 0.2709361235135826  0.9868057039048937 0.2709361235135826  C 0.9527779267066054 0.2709361235135826  0.9236111111111112 0.27586223455657405  0.8993055555555555 0.29556668019663557  C 0.875 0.31527112583669703  0.8604166668115392 0.3448280930542401  0.8506944444444444 0.3743847622483802  C 0.8276374195184972 0.43798827097333093  0.8276374195184972 0.5078257069878531  0.8506944444444444 0.5714292157128038  C 0.8604166668115392 0.6059119944818397  0.875 0.6305425511648928  0.8993055555555555 0.6453208857619628  Z M 1.5749997033013239 0.7487695244967604  C 1.5749997033013239 0.7487695244967604  1.570139037238227 0.7487695244967604  1.570139037238227 0.7487695244967604  C 1.5215279261271157 0.7487695244967604  1.4729169627858534 0.7389167004915889  1.438889185587565 0.714286143808536  C 1.4026687211460538 0.6900649920041643  1.374003817430801 0.6558913530579609  1.3562497033013239 0.615763917076324  C 1.3368052585671344 0.5763550257962011  1.3270834816826715 0.527094214857785  1.3270834816826715 0.472906988980592  C 1.3270834816826715 0.41871976310339903  1.3368052585671344 0.3743847622483802  1.3562497033013239 0.32512364888227424  C 1.3805552588568792 0.28571475760215126  1.4048609621822834 0.2561580913442024  1.443749851650662 0.22660142215006238  C 1.47777762884895 0.2068969765100009  1.521527630587419 0.19211804146183797  1.5652776294284396 0.19211804146183797  C 1.6041665188968182 0.19211804146183797  1.6381945916348033 0.2019702635478209  1.6673612594604492 0.21674859814489095  C 1.696477050996489 0.22961776986415536  1.721709962313374 0.25007159021294667  1.7404945161607532 0.2760294051323682  C 1.759279070008132 0.30198722005178974  1.7709450149494739 0.3325230326579624  1.7743055555555554 0.36453193824320873  C 1.7743055555555554 0.36453193824320873  1.7013888888888888 0.36453193824320873  1.7013888888888888 0.36453193824320873  C 1.6965277777053416 0.33990138156015576  1.6819447411431208 0.31527112583669703  1.657639185587565 0.29556668019663557  C 1.638194740853376 0.27586223455657405  1.6090274804996119 0.2709361235135826  1.5749997033013239 0.2709361235135826  C 1.5456344501839743 0.27052681511630783  1.5168315453661814 0.27911157784805846  1.492360962761773 0.29556668019663557  C 1.4680554072062173 0.3103450147937056  1.4437500001448722 0.3349752690490687  1.4340277777777777 0.36453193824320873  C 1.419444443864955 0.39408860743734875  1.4145836300320096 0.4285716856978833  1.4145836300320096 0.46798057697800627  C 1.4145836300320096 0.5123155778330252  1.419444443864955 0.5467989585212496  1.4340277777777777 0.5763556277153896  C 1.4486111116906009 0.6108384064844256  1.468055851964487 0.6354689631674785  1.4875002966986761 0.6502472977645485  C 1.511805852254232 0.6650256323616185  1.5409719261030355 0.6748778544476014  1.5749997033013239 0.6748778544476014  C 1.594444148035513 0.6748778544476014  1.61388918529782 0.6748772532624607  1.6333336300320096 0.66502503044243  C 1.6504500100596085 0.6575846045866595  1.6655594669282436 0.6461000437257588  1.6773993174235025 0.6315308408123995  C 1.6892391679187617 0.6169616378990401  1.6974649978284209 0.5997306382269539  1.7013888888888888 0.5812805363880996  C 1.7013888888888888 0.5812805363880996  1.7840276294284398 0.5812805363880996  1.7840276294284398 0.5812805363880996  C 1.7797592680176928 0.6129911425682888  1.7677410756134326 0.6431192885209489  1.7490646574232311 0.6689276747996813  C 1.7303882392330303 0.6947360610784137  1.7056455036832228 0.7154069496356305  1.6770833333333335 0.7290638764864175  C 1.6479166655076876 0.7438422110834875  1.6138885927697024 0.7487695244967604  1.5749997033013239 0.7487695244967604  Z M 2.2069441477457685 0.6009861843984425  C 2.2215274816585913 0.5812817387583811  2.231249703301324 0.5517244691131481  2.231249703301324 0.5172416903441122  C 2.231249703301324 0.5172416903441122  2.231249703301324 0.20197086546700943  2.231249703301324 0.20197086546700943  L 2.3138891855875654 0.20197086546700943  L 2.3138891855875654 0.7389167004915889  L 2.231249703301324 0.7389167004915889  L 2.231249703301324 0.6502472977645485  C 2.231249703301324 0.6502472977645485  2.226389037238227 0.6502472977645485  2.226389037238227 0.6502472977645485  C 2.211805703325404 0.6748778544476014  2.1923614078097877 0.6995081101710602  2.1680558522542315 0.7192125558111216  C 2.138889184428586 0.7339908904081917  2.109722519500388 0.7438431124941746  2.070833630032009 0.7438431124941746  C 2.036805852833721 0.7438431124941746  2.00277762942844 0.7389173024107774  1.978472073872884 0.7241389678137073  C 1.9541665183173285 0.7093606332166373  1.9298611112559836 0.6847288756313985  1.920138888888889 0.6551722064372585  C 1.9055555549760659 0.6256155372431185  1.8958333333333333 0.5911333603932711  1.8958333333333333 0.5418722470271652  C 1.8958333333333333 0.5418722470271652  1.8958333333333333 0.1970444534644237  1.8958333333333333 0.1970444534644237  L 1.978472073872884 0.1970444534644237  C 1.978472073872884 0.1970444534644237  1.978472073872884 0.5418722470271652  1.978472073872884 0.5418722470271652  C 1.978472073872884 0.5763550257962011  1.9881941477457683 0.6059110930711527  2.012499703301324 0.6305416497542056  C 2.031944148035513 0.6551722064372585  2.0611114083892765 0.66502503044243  2.0951391855875654 0.66502503044243  C 2.117536820885208 0.6644996653274259  2.1394597498906984 0.6583803439560032  2.1589635213216143 0.64720906808581  C 2.178467292752531 0.636037792215617  2.194948200136423 0.6201606093630203  2.2069441477457685 0.6009861843984425  Z M 2.4645831849839954 0.7389167004915889  L 2.4597225189208984 0.7389167004915889  L 2.4597225189208984 0.1970444534644237  L 2.542361259460449 0.1970444534644237  C 2.542361259460449 0.1970444534644237  2.542361259460449 0.2857138561914641  2.542361259460449 0.2857138561914641  C 2.556944593373272 0.2561571869973241  2.5763888888888893 0.2364530437849524  2.6006944444444446 0.21674859814489095  C 2.625 0.2019702635478209  2.6541668155954943 0.19211804146183797  2.6881945927937823 0.19211804146183797  C 2.722222369992071 0.19211804146183797  2.7513891855875654 0.2019702635478209  2.7756947411431208 0.21674859814489095  C 2.800000296698676 0.2364530437849524  2.819444295950234 0.2561571869973241  2.8291665183173285 0.2857138561914641  C 2.8291665183173285 0.2857138561914641  2.8388885921902123 0.2857138561914641  2.8388885921902123 0.2857138561914641  C 2.8486108145573077 0.2561571869973241  2.872916963365343 0.23645334474454668  2.8972225189208984 0.22167501014747665  C 2.926389186746544 0.20197056450741518  2.9555558516747418 0.19211804146183797  2.9944447411431208 0.19211804146183797  C 3.0430558522542315 0.19211804146183797  3.0819444432854652 0.21182248563380388  3.1111111111111107 0.2413791548279439  C 3.140277778936757 0.27093582402208394  3.1597222222222223 0.3152717292239811  3.1597222222222223 0.3793111742509659  C 3.1597222222222223 0.3793111742509659  3.1597222222222223 0.7389167004915889  3.1597222222222223 0.7389167004915889  L 3.0770834816826715 0.7389167004915889  C 3.0770834816826715 0.7389167004915889  3.0770834816826715 0.3793111742509659  3.0770834816826715 0.3793111742509659  C 3.0770834816826715 0.3399022829708429  3.0673614078097877 0.3103450147937056  3.0430558522542315 0.29556668019663557  C 3.0236114075200424 0.27586223455657405  2.9944447411431208 0.2709361235135826  2.9701391855875654 0.2709361235135826  C 2.9312502961191864 0.2709361235135826  2.902083481972416 0.28078894751875405  2.882639037238227 0.305419504201807  C 2.863194592504038 0.3251239498418685  2.8486114078097877 0.35467971615722577  2.8486114078097877 0.38916249492626165  C 2.8486114078097877 0.38916249492626165  2.8486114078097877 0.7389167004915889  2.8486114078097877 0.7389167004915889  L 2.770833333333333 0.7389167004915889  C 2.770833333333333 0.7389167004915889  2.770833333333333 0.36945835024579443  2.770833333333333 0.36945835024579443  C 2.7713099824549214 0.3557635406566169  2.7689624152974126 0.34211782711988303  2.7639402813381615 0.3293946090590658  C 2.7589181473789113 0.31667139099824865  2.751331602430178 0.3051504918355094  2.741666369967991 0.29556668019663557  C 2.722221925233801 0.27586223455657405  2.6979163711269694 0.2709361235135826  2.668749703301324 0.2709361235135826  C 2.6444441477457685 0.2709361235135826  2.624999852230151 0.2709355215943941  2.6104165183173285 0.2857138561914641  C 2.5909720735831394 0.29556607901149484  2.5763887411190405 0.31527052391750854  2.5618054072062177 0.33497496955757  C 2.552083184839123 0.3546794151976315  2.547221925523546 0.37438506173987884  2.547221925523546 0.40394173093401886  C 2.547221925523546 0.40394173093401886  2.547221925523546 0.7389167004915889  2.547221925523546 0.7389167004915889  L 2.4645831849839954 0.7389167004915889  Z M 3.626389185587565 0.7339902884890032  C 3.597222517761919 0.7438425113090339  3.563194740563631 0.7487695244967604  3.529166963365343 0.7487695244967604  C 3.4837863879899187 0.7511581778517346  3.438733748677704 0.7397778369126679  3.399767769707574 0.7160856296697184  C 3.360801790737444 0.692393422426769  3.329692702740431 0.6574650898615433  3.310416963365343 0.615763917076324  C 3.290972518631154 0.5763550257962011  3.28125 0.527094214857785  3.28125 0.472906988980592  C 3.28125 0.4236458756144861  3.290972518631154 0.3743847622483802  3.310416963365343 0.32512364888227424  C 3.329861408099532 0.28571475760215126  3.359027926706606 0.2561580913442024  3.393055703904894 0.22660142215006238  C 3.4244701626400156 0.2083331600980547  3.4593915649586258 0.19711871377620963  3.495455318027073 0.19371908777943145  C 3.53151907109552 0.19031946178265327  3.5678830577267537 0.19481435461578647  3.602083630032009 0.20689727746959516  C 3.6313561937875214 0.21713497447627744  3.657947033229801 0.2339852646659225  3.6798439025878906 0.2561749274643335  C 3.70174077194598 0.27836459026274446  3.7183702054123082 0.30531098844878907  3.728472815619575 0.33497496955757  C 3.7430561495323977 0.36945774832660594  3.747916963365343 0.4137930516093146  3.747916963365343 0.46305416497542057  C 3.747916963365343 0.46305416497542057  3.747916963365343 0.497537545663645  3.747916963365343 0.497537545663645  L 3.3395831849839954 0.497537545663645  L 3.3395831849839954 0.42857228761707183  C 3.3395831849839954 0.42857228761707183  3.6652774810791016 0.42857228761707183  3.6652774810791016 0.42857228761707183  C 3.6652774810791016 0.3940895088480359  3.6604166672461567 0.36945835024579443  3.6458333333333335 0.34482779356274146  C 3.6338600075493255 0.3216244137013485  3.615617257646388 0.302354107414329  3.5932360755072703 0.28926923134743454  C 3.5708548933681517 0.27618435528054014  3.5452596793572106 0.2698255226023885  3.519444147745768 0.2709361235135826  C 3.490078894628419 0.27052681511630783  3.461275989810626 0.27911157784805846  3.4368054072062177 0.29556668019663557  C 3.4124998516506615 0.3103450147937056  3.3930558523991046 0.33005006088485994  3.383333630032009 0.3546806175679129  C 3.3687502961191864 0.38423728676205293  3.363888740539551 0.4088669390982276  3.363888740539551 0.4384236082923676  C 3.363888740539551 0.4384236082923676  3.363888740539551 0.48768472165847354  3.363888740539551 0.48768472165847354  C 3.363888740539551 0.5270936129385965  3.3687502961191864 0.5615763917076324  3.383333630032009 0.5862069483906853  C 3.397916963944833 0.6206897271597213  3.417361259460449 0.635467760797197  3.4416668150160046 0.6551722064372585  C 3.46597237057156 0.6699505410343285  3.495139186167055 0.6748778544476014  3.529166963365343 0.6748778544476014  C 3.548611408099532 0.6748778544476014  3.5680549618684587 0.6748772532624607  3.5874994066026478 0.66502503044243  C 3.6020827405154705 0.66502503044243  3.6215271838009357 0.6502466965794078  3.6361105177137585 0.640394473759377  C 3.6361105177137585 0.640394473759377  3.660416073269314 0.5911333603932711  3.660416073269314 0.5911333603932711  C 3.660416073269314 0.5911333603932711  3.738194147745768 0.615763917076324  3.738194147745768 0.615763917076324  C 3.7333330365622213 0.640394473759377  3.7187502969884214 0.6650247294828358  3.699305852254232 0.6847291751228972  C 3.679861407520043 0.7044336207629587  3.6506947411431203 0.7241380656689724  3.626389185587565 0.7339902884890032  Z M 3.9715283711751304 0.33497496955757  C 3.9618061488080354 0.359605526240623  3.9520827399359812 0.3842363824151746  3.9520827399359812 0.4137930516093146  C 3.9520827399359812 0.4137930516093146  3.9520827399359812 0.7389167004915889  3.9520827399359812 0.7389167004915889  L 3.8743061489529076 0.7389167004915889  L 3.8743061489529076 0.1970444534644237  L 3.9520827399359812 0.1970444534644237  L 3.9520827399359812 0.2857138561914641  C 3.9520827399359812 0.2857138561914641  3.956944147745768 0.2857138561914641  3.956944147745768 0.2857138561914641  C 3.971527481658591 0.2561571869973241  3.9909725189208984 0.23645334474454668  4.015278074476454 0.22167501014747665  C 4.039583630032009 0.20197056450741518  4.073611407230297 0.19211804146183797  4.112500296698677 0.19211804146183797  C 4.146474711596966 0.19157897204160243  4.179995426701176 0.20007120703999984  4.209722518920898 0.21674859814489095  C 4.234028074476454 0.23152693274196096  4.258332739791108 0.2561571869973241  4.268054962158203 0.2857138561914641  C 4.282638296071026 0.31527052538560413  4.2923605177137585 0.3497542055653272  4.2923605177137585 0.3990153189314331  C 4.2923605177137585 0.3990153189314331  4.2923605177137585 0.7389167004915889  4.2923605177137585 0.7389167004915889  L 4.209722518920898 0.7389167004915889  C 4.209722518920898 0.7389167004915889  4.209722518920898 0.40394173093401886  4.209722518920898 0.40394173093401886  C 4.209722518920898 0.35960673007899996  4.199999703301323 0.33005006088485994  4.175694147745768 0.305419504201807  C 4.156249703011579 0.28078894751875405  4.1270836306115 0.2709361235135826  4.08819474114312 0.2709361235135826  C 4.064665030895007 0.27022387506111684  4.04131517248849 0.27529378354304784  4.0201394822862415 0.2857138561914641  C 4.0006950375520525 0.29556607901149484  3.9812505935422244 0.31527052391750854  3.9715283711751304 0.33497496955757  Z M 4.394444147745768 0.20197086546700943  L 4.671528074476454 0.20197086546700943  L 4.671528074476454 0.2709361235135826  L 4.394444147745768 0.2709361235135826  L 4.394444147745768 0.20197086546700943  Z M 4.477083630032009 0.6059110930711527  C 4.477083630032009 0.6059110930711527  4.477083630032009 0.07389167004915889  4.477083630032009 0.07389167004915889  L 4.559721628824869 0.07389167004915889  C 4.559721628824869 0.07389167004915889  4.559721628824869 0.5862069483906853  4.559721628824869 0.5862069483906853  C 4.559721628824869 0.6059113940307469  4.559722222077349 0.6256158389367605  4.569444444444445 0.6354680617567913  C 4.574305555627992 0.6502463963538613  4.584027777632905 0.6551725070298289  4.59375 0.6600986184398443  C 4.59375 0.6600986184398443  4.627778371175131 0.66502503044243  4.627778371175131 0.66502503044243  L 4.666666666666666 0.66502503044243  C 4.666666666666666 0.66502503044243  4.681249406602648 0.7339902884890032  4.681249406602648 0.7339902884890032  C 4.661018210566706 0.7414113743876279  4.639552387305432 0.7447586613088225  4.618055555555555 0.7438431124941746  C 4.598611110821366 0.7438431124941718  4.574306149242652 0.7438422110834875  4.554861704508463 0.7290638764864175  C 4.530556148952908 0.7192116536663866  4.511111111690601 0.7044336207629587  4.496527777777779 0.6847291751228972  C 4.481944443864954 0.6650247294828358  4.477083630032009 0.6354677622652927  4.477083630032009 0.6059110930711527  Z M 5.03125 0.7339902884890032  C 5.005472152597374 0.7466464982631842  4.977252764834297 0.7533746968391799  4.9486105177137585 0.7536944331694704  C 4.9145827405154705 0.7536944331694704  4.88541637112697 0.7438425113090339  4.856249703301323 0.7339902884890032  C 4.831944147745768 0.7192119538919332  4.807639186167055 0.6995084111306544  4.793055852254232 0.6748778544476014  C 4.77847251834141 0.6502472977645485  4.768750296698677 0.6256158396708084  4.768750296698677 0.5862069483906853  C 4.768750296698677 0.5566502791965453  4.773611110531622 0.5320197239815879  4.788194444444445 0.5123152783415265  C 4.797916666811538 0.492610832701465  4.817361110821366 0.4778324995724906  4.836805555555555 0.46305416497542057  C 4.836805555555555 0.46305416497542057  4.899999406602648 0.4433500202949533  4.899999406602648 0.4433500202949533  C 4.9509222697880535 0.42995867633918505  5.003028746280405 0.421708267650737  5.055555555555555 0.4187194636119004  C 5.055555555555555 0.4187194636119004  5.09930525885688 0.4088666396067289  5.09930525885688 0.4088666396067289  C 5.109027481223974 0.40394052819671356  5.1138894822862415 0.3940895088480359  5.1138894822862415 0.3793111742509659  C 5.1138894822862415 0.3399022829708429  5.1041669636550875 0.31527112583669703  5.084722518920898 0.29556668019663557  C 5.065278074186709 0.27586223455657405  5.036110813832945 0.26600971151099684  5.002083036634657 0.26600971151099684  C 4.967228597237003 0.2637464270957828  4.932730068763098 0.2742346744327748  4.9048608144124355 0.29556668019663557  C 4.9048608144124355 0.29556668019663557  4.861111111111111 0.34482779356274146  4.861111111111111 0.34482779356274146  C 4.861111111111111 0.34482779356274146  4.783333036634657 0.3201972368796885  4.783333036634657 0.3201972368796885  C 4.794468400172061 0.2919193171077061  4.812243178900745 0.266820158995926  4.835114373101128 0.2470767750567507  C 4.857985567301512 0.22733339111757542  4.885263420641422 0.2135423221713439  4.914583630032009 0.20689727746959516  C 4.962149701184696 0.19374768481326765  5.012092366400692 0.19206036806095814  5.060416963365343 0.20197086546700943  C 5.079861408099532 0.20197086546701223  5.099304961868459 0.21182308755299237  5.118749406602648 0.22660142215006238  C 5.143054962158203 0.23645364497009314  5.1576385916107235 0.2561583908357011  5.172221925523546 0.28078894751875405  C 5.186805259436369 0.31034561671289407  5.191666073269314 0.3399010820686571  5.191666073269314 0.38423608292367595  C 5.191666073269314 0.38423608292367595  5.191666073269314 0.7389167004915889  5.191666073269314 0.7389167004915889  L 5.1138894822862415 0.7389167004915889  L 5.1138894822862415 0.66502503044243  C 5.1138894822862415 0.66502503044243  5.109028074476454 0.66502503044243  5.109028074476454 0.66502503044243  C 5.0913196009480295 0.6960789016812865  5.063973609771994 0.7203260299688811  5.03125 0.7339902884890032  Z M 4.88055525885688 0.6551722064372585  C 4.9048608144124355 0.6699505410343285  4.929166963944832 0.6748778544476014  4.96319474114312 0.6748778544476014  C 4.99722251834141 0.6748778544476014  5.021527184380425 0.6748769530369143  5.045832739935982 0.6600986184398443  C 5.065967607415384 0.6488989180370458  5.082850004753304 0.6325416539823209  5.094792471991646 0.612659540883056  C 5.106734939229986 0.592777427783791  5.1133204819440525 0.570067267845935  5.1138894822862415 0.5467986590297509  C 5.1138894822862415 0.5467986590297509  5.1138894822862415 0.46798057697800627  5.1138894822862415 0.46798057697800627  L 5.089583926730686 0.4827583096558878  C 5.089583926730686 0.4827583096558878  5.050694147745768 0.48768472165847354  5.050694147745768 0.48768472165847354  C 5.0040259175002575 0.4976891984691404  4.957002005229393 0.5059052309654948  4.909722222222221 0.5123152783415265  C 4.909722222222221 0.5123152783415265  4.865972518920898 0.5418722470271652  4.865972518920898 0.5418722470271652  C 4.856250296553803 0.5517244698471959  4.851388295491537 0.5714289147532096  4.851388295491537 0.5911333603932711  C 4.851388295491537 0.6206900295874112  4.861110814122689 0.6403938718401885  4.88055525885688 0.6551722064372585  Z M 5.298611111111111 0.20197086546700943  L 5.570833630032009 0.20197086546700943  L 5.570833630032009 0.2709361235135826  L 5.298611111111111 0.2709361235135826  L 5.298611111111111 0.20197086546700943  Z M 5.3763891855875645 0.6059110930711527  C 5.3763891855875645 0.6059110930711527  5.3763891855875645 0.07389167004915889  5.3763891855875645 0.07389167004915889  L 5.459027184380425 0.07389167004915889  C 5.459027184380425 0.07389167004915889  5.459027184380425 0.5862069483906853  5.459027184380425 0.5862069483906853  C 5.459027184380425 0.6059113940307469  5.459027777632905 0.6256158389367605  5.46875 0.6354680617567913  C 5.478472222367095 0.6502463963538613  5.48333362945252 0.6551725070298289  5.497916963365343 0.6600986184398443  C 5.497916963365343 0.6600986184398443  5.531943851047092 0.66502503044243  5.531943851047092 0.66502503044243  L 5.565972222222221 0.66502503044243  C 5.565972222222221 0.66502503044243  5.580554962158203 0.7339902884890032  5.580554962158203 0.7339902884890032  C 5.56185314638747 0.7408015436320355  5.542093331822091 0.7441396336684585  5.522222518920898 0.7438431124941746  C 5.497916963365343 0.7438431124941718  5.473611704798209 0.7438422110834875  5.454167260064018 0.7290638764864175  C 5.429861704508463 0.7192116536663866  5.415278075055944 0.7044336207629587  5.40069474114312 0.6847291751228972  C 5.386111407230297 0.6650247294828358  5.3763891855875645 0.6354677622652927  5.3763891855875645 0.6059110930711527  Z M 5.774999406602648 0.7389167004915889  L 5.697222815619575 0.7389167004915889  L 5.697222815619575 0.1970444534644237  L 5.774999406602648 0.1970444534644237  L 5.774999406602648 0.7389167004915889  Z M 5.774999406602648 0.09359581472962612  C 5.765277184235552 0.10837414932669613  5.7506944450239335 0.11329995941009335  5.736111111111111 0.11329995941009335  C 5.721527777198288 0.11329995941009335  5.706945037986669 0.10837414932669613  5.697222815619575 0.09359581472962612  C 5.691185506422901 0.08900728712731512  5.686285029786328 0.08305749432258076  5.68291007147895 0.07621732136682752  C 5.679535113171571 0.06937714841107429  5.677777184380425 0.06183507161722591  5.677777184380425 0.054187525368691654  C 5.677777184380425 0.039409190771621645  5.682639481706751 0.029556067274951518  5.697222815619575 0.014777732677881508  C 5.706945037986669 0.004925509857850764  5.721527777198288 0  5.736111111111111 0  C 5.7506944450239335 0  5.765277184235552 0.004925509857850764  5.774999406602648 0.014777732677881508  C 5.7895827405154705 0.029556067274951518  5.794445037841797 0.039409190771621645  5.794445037841797 0.054187525368691654  C 5.794445037841797 0.06896585996576166  5.7895827405154705 0.08374359190959538  5.774999406602648 0.09359581472962612  Z M 6.139582739935982 0.7487695244967604  C 6.139582739935982 0.7487695244967604  6.139582739935982 0.7536944331694704  6.139582739935982 0.7536944331694704  C 6.090971628824869 0.7536944331694704  6.052083927310175 0.7389167004915889  6.013195037841797 0.714286143808536  C 5.977150674495432 0.6898640934004758  5.948533698916435 0.6557475912662172  5.930555555555555 0.615763917076324  C 5.911111110821366 0.5763550257962011  5.901388592190212 0.527094214857785  5.901388592190212 0.472906988980592  C 5.901388592190212 0.41871976310339903  5.911111110821366 0.3694586497372931  5.930555555555555 0.32512364888227424  C 5.950000000289744 0.28571475760215126  5.979167260643509 0.2512319788331154  6.013195037841797 0.22660142215006238  C 6.052083927310175 0.2068969765100009  6.095832741094959 0.19211804146183797  6.139582739935982 0.19211804146183797  C 6.188193851047092 0.19211804146183797  6.231944148325258 0.20689727746959516  6.265971925523546 0.2315278341526481  C 6.304860814991924 0.2512322797927096  6.329167260064018 0.28078894751875405  6.353472815619575 0.33005006088485994  C 6.3729172603537645 0.3694589521649829  6.382638295491537 0.41871976310339903  6.382638295491537 0.472906988980592  C 6.382638295491537 0.527094214857785  6.3729172603537645 0.5763553282238909  6.353472815619575 0.6206903290789098  C 6.329167260064018 0.6600992203590328  6.304860814991924 0.6945819991280686  6.265971925523546 0.7192125558111216  C 6.231944148325258 0.7389170014511831  6.188193851047092 0.7487695244967604  6.139582739935982 0.7487695244967604  Z M 6.052083333333334 0.6453208857619628  C 6.076388888888889 0.6650253314020242  6.100693850467602 0.6748778544476014  6.139582739935982 0.6748778544476014  C 6.17847162940436 0.6748778544476014  6.2076394822862415 0.6650253314020242  6.231945037841797 0.6453208857619628  C 6.256250593397352 0.6305425511648928  6.270833926585814 0.6059119944818397  6.280556148952908 0.5714292157128038  C 6.303197543654177 0.507751468330477  6.303197543654177 0.43806250963070703  6.280556148952908 0.3743847622483802  C 6.270833926585814 0.33990198347934425  6.256250593397352 0.31527112583669703  6.231945037841797 0.29556668019663557  C 6.2076394822862415 0.27586223455657405  6.17847162940436 0.2709361235135826  6.139582739935982 0.2709361235135826  C 6.105554962737692 0.2709361235135826  6.076388888888889 0.27586223455657405  6.052083333333334 0.29556668019663557  C 6.027777777777779 0.31527112583669703  6.008333333405769 0.3448280930542401  6.003472222222221 0.3743847622483802  C 5.980415197296274 0.43798827097333093  5.980415197296274 0.5078257069878531  6.003472222222221 0.5714292157128038  C 6.008333333405769 0.6059119944818397  6.027777777777779 0.6305425511648928  6.052083333333334 0.6453208857619628  Z M 6.606249703301323 0.33497496955757  C 6.5916663693885 0.359605526240623  6.586805555555555 0.3842363824151746  6.586805555555555 0.4137930516093146  C 6.586805555555555 0.4137930516093146  6.586805555555555 0.7389167004915889  6.586805555555555 0.7389167004915889  L 6.504166073269314 0.7389167004915889  L 6.504166073269314 0.1970444534644237  L 6.586805555555555 0.1970444534644237  L 6.586805555555555 0.2857138561914641  C 6.586805555555555 0.2857138561914641  6.591666963365343 0.2857138561914641  6.591666963365343 0.2857138561914641  C 6.606250297278166 0.2561571869973241  6.620832738777002 0.23645334474454668  6.649999406602648 0.22167501014747665  C 6.674304962158203 0.20197056450741518  6.708332739356491 0.19211804146183797  6.747221628824869 0.19211804146183797  C 6.78119604372316 0.19157897204160243  6.814716758827368 0.20007120703999984  6.844443851047092 0.21674859814489095  C 6.868749406602648 0.23152693274196096  6.888194443864954 0.2561571869973241  6.902777777777779 0.2857138561914641  C 6.917361111690601 0.31527052538560413  6.927083333333334 0.3497542055653272  6.927083333333334 0.3990153189314331  C 6.927083333333334 0.3990153189314331  6.927083333333334 0.7389167004915889  6.927083333333334 0.7389167004915889  L 6.844443851047092 0.7389167004915889  C 6.844443851047092 0.7389167004915889  6.844443851047092 0.40394173093401886  6.844443851047092 0.40394173093401886  C 6.844443851047092 0.35960673007899996  6.834722518920898 0.33005006088485994  6.810416963365343 0.305419504201807  C 6.790972518631154 0.28078894751875405  6.761804962737692 0.2709361235135826  6.722916073269314 0.2709361235135826  C 6.699386363021201 0.27022387506111684  6.676036504614684 0.27529378354304784  6.6548608144124355 0.2857138561914641  C 6.63055525885688 0.29556607901149484  6.615971925668418 0.31527052391750854  6.606249703301323 0.33497496955757  Z M 0 1  L 0 0.9359611539560125  L 7 0.9359611539560125  L 7 1  L 0 1  Z " fill-rule="evenodd" />
    </mask>
  </defs>
  <g transform="matrix(1 0 0 1 -9 -22 )">
    <path d="M 0.48611111111111116 0.6945819991280686  C 0.4375 0.7241386683222087  0.3743054072062174 0.7389167004915889  0.3013887405395508 0.7389167004915889  C 0.3013887405395508 0.7389167004915889  0.08750014834933811 0.7389167004915889  0.08750014834933811 0.7389167004915889  L 0.08750014834933811 0.024630556683052963  C 0.08750014834933811 0.024630556683052963  0.31111081441243493 0.024630556683052963  0.31111081441243493 0.024630556683052963  C 0.38402748107910156 0.024630556683052963  0.4423614078097873 0.03448217684984741  0.49097251892089844 0.06403884604398744  C 0.5395836300320096 0.09359551523812745  0.5736108132534556 0.13300440358205926  0.6027774810791016 0.18719162945925225  C 0.6270830366346571 0.24137885533644524  0.6416665183173285 0.305419504201807  0.6416665183173285 0.3793111742509659  C 0.6416665183173285 0.45320284430012475  0.6270830366346571 0.5172422893271096  0.6027774810791016 0.5763556277153896  C 0.5736108132534556 0.6256167410814956  0.5347222222222223 0.6650253299339286  0.48611111111111116 0.6945819991280686  Z M 0.1701388888888889 0.09852222673221185  L 0.1701388888888889 0.6600986184398443  C 0.1701388888888889 0.6600986184398443  0.296528074476454 0.6600986184398443  0.296528074476454 0.6600986184398443  C 0.35486141012774575 0.6600986184398443  0.40347251834140885 0.6502472977645485  0.4423614078097873 0.6256167410814956  C 0.4812502972781658 0.605912295441434  0.5104163696782456 0.5763556277153896  0.5298608144124348 0.5270945143492837  C 0.5493052591466241 0.4876856230691607  0.5590277777777777 0.4384245126392459  0.5590277777777777 0.3793111742509659  C 0.5590277777777777 0.32019783586268585  0.5493052591466241 0.2709367254327711  0.5298608144124348 0.2315278341526481  C 0.5104163696782456 0.18719283329762926  0.48124985107117224 0.15763616410348924  0.4472220738728841 0.13300560742043627  C 0.4083331844045056 0.10837505073738331  0.3645834840006299 0.09852222673221185  0.30625014834933806 0.09852222673221185  C 0.30625014834933806 0.09852222673221185  0.1701388888888889 0.09852222673221185  0.1701388888888889 0.09852222673221185  Z M 1.113194147745768 0.7192125558111216  C 1.07916637054748 0.7389170014511831  1.0354168150160046 0.7487695244967604  0.9868057039048937 0.7487695244967604  C 0.9381945927937826 0.7487695244967604  0.899305407785707 0.7389167004915889  0.8604165183173285 0.714286143808536  C 0.8243721549709637 0.6898640934004758  0.7957559211386576 0.6557475912662172  0.7777777777777777 0.615763917076324  C 0.7583333330435886 0.5763550257962011  0.7486108144124348 0.527094214857785  0.7486108144124348 0.472906988980592  C 0.7486108144124348 0.41871976310339903  0.7583333330435886 0.3694586497372931  0.7777777777777777 0.32512364888227424  C 0.797222222511967 0.28571475760215126  0.8263887411190405 0.2512319788331154  0.8604165183173285 0.22660142215006238  C 0.899305407785707 0.2068969765100009  0.9430557050638728 0.19211804146183797  0.9868057039048937 0.19211804146183797  C 1.0354168150160046 0.19211804146183797  1.07916637054748 0.20689727746959516  1.113194147745768 0.2315278341526481  C 1.1520830372141466 0.2512322797927096  1.1763887405395508 0.28078894751875405  1.2006942960951061 0.33005006088485994  C 1.2201387408292956 0.3694589521649829  1.2298612594604492 0.41871976310339903  1.2298612594604492 0.472906988980592  C 1.2298612594604492 0.527094214857785  1.2201387408292956 0.5763553282238909  1.2006942960951061 0.6206903290789098  C 1.1763887405395508 0.6600992203590328  1.1520830372141466 0.6945819991280686  1.113194147745768 0.7192125558111216  Z M 0.8993055555555555 0.6453208857619628  C 0.9236111111111112 0.6650253314020242  0.9479168144365152 0.6748778544476014  0.9868057039048937 0.6748778544476014  C 1.025694593373272 0.6748778544476014  1.054860962761773 0.6650253314020242  1.0791665183173285 0.6453208857619628  C 1.1034720738728843 0.6305425511648928  1.118055407061345 0.6059119944818397  1.1277776294284396 0.5714292157128038  C 1.1504190241297088 0.507751468330477  1.1504190241297088 0.43806250963070703  1.1277776294284396 0.3743847622483802  C 1.118055407061345 0.33990198347934425  1.1034720738728843 0.31527112583669703  1.0791665183173285 0.29556668019663557  C 1.054860962761773 0.27586223455657405  1.025694593373272 0.2709361235135826  0.9868057039048937 0.2709361235135826  C 0.9527779267066054 0.2709361235135826  0.9236111111111112 0.27586223455657405  0.8993055555555555 0.29556668019663557  C 0.875 0.31527112583669703  0.8604166668115392 0.3448280930542401  0.8506944444444444 0.3743847622483802  C 0.8276374195184972 0.43798827097333093  0.8276374195184972 0.5078257069878531  0.8506944444444444 0.5714292157128038  C 0.8604166668115392 0.6059119944818397  0.875 0.6305425511648928  0.8993055555555555 0.6453208857619628  Z M 1.5749997033013239 0.7487695244967604  C 1.5749997033013239 0.7487695244967604  1.570139037238227 0.7487695244967604  1.570139037238227 0.7487695244967604  C 1.5215279261271157 0.7487695244967604  1.4729169627858534 0.7389167004915889  1.438889185587565 0.714286143808536  C 1.4026687211460538 0.6900649920041643  1.374003817430801 0.6558913530579609  1.3562497033013239 0.615763917076324  C 1.3368052585671344 0.5763550257962011  1.3270834816826715 0.527094214857785  1.3270834816826715 0.472906988980592  C 1.3270834816826715 0.41871976310339903  1.3368052585671344 0.3743847622483802  1.3562497033013239 0.32512364888227424  C 1.3805552588568792 0.28571475760215126  1.4048609621822834 0.2561580913442024  1.443749851650662 0.22660142215006238  C 1.47777762884895 0.2068969765100009  1.521527630587419 0.19211804146183797  1.5652776294284396 0.19211804146183797  C 1.6041665188968182 0.19211804146183797  1.6381945916348033 0.2019702635478209  1.6673612594604492 0.21674859814489095  C 1.696477050996489 0.22961776986415536  1.721709962313374 0.25007159021294667  1.7404945161607532 0.2760294051323682  C 1.759279070008132 0.30198722005178974  1.7709450149494739 0.3325230326579624  1.7743055555555554 0.36453193824320873  C 1.7743055555555554 0.36453193824320873  1.7013888888888888 0.36453193824320873  1.7013888888888888 0.36453193824320873  C 1.6965277777053416 0.33990138156015576  1.6819447411431208 0.31527112583669703  1.657639185587565 0.29556668019663557  C 1.638194740853376 0.27586223455657405  1.6090274804996119 0.2709361235135826  1.5749997033013239 0.2709361235135826  C 1.5456344501839743 0.27052681511630783  1.5168315453661814 0.27911157784805846  1.492360962761773 0.29556668019663557  C 1.4680554072062173 0.3103450147937056  1.4437500001448722 0.3349752690490687  1.4340277777777777 0.36453193824320873  C 1.419444443864955 0.39408860743734875  1.4145836300320096 0.4285716856978833  1.4145836300320096 0.46798057697800627  C 1.4145836300320096 0.5123155778330252  1.419444443864955 0.5467989585212496  1.4340277777777777 0.5763556277153896  C 1.4486111116906009 0.6108384064844256  1.468055851964487 0.6354689631674785  1.4875002966986761 0.6502472977645485  C 1.511805852254232 0.6650256323616185  1.5409719261030355 0.6748778544476014  1.5749997033013239 0.6748778544476014  C 1.594444148035513 0.6748778544476014  1.61388918529782 0.6748772532624607  1.6333336300320096 0.66502503044243  C 1.6504500100596085 0.6575846045866595  1.6655594669282436 0.6461000437257588  1.6773993174235025 0.6315308408123995  C 1.6892391679187617 0.6169616378990401  1.6974649978284209 0.5997306382269539  1.7013888888888888 0.5812805363880996  C 1.7013888888888888 0.5812805363880996  1.7840276294284398 0.5812805363880996  1.7840276294284398 0.5812805363880996  C 1.7797592680176928 0.6129911425682888  1.7677410756134326 0.6431192885209489  1.7490646574232311 0.6689276747996813  C 1.7303882392330303 0.6947360610784137  1.7056455036832228 0.7154069496356305  1.6770833333333335 0.7290638764864175  C 1.6479166655076876 0.7438422110834875  1.6138885927697024 0.7487695244967604  1.5749997033013239 0.7487695244967604  Z M 2.2069441477457685 0.6009861843984425  C 2.2215274816585913 0.5812817387583811  2.231249703301324 0.5517244691131481  2.231249703301324 0.5172416903441122  C 2.231249703301324 0.5172416903441122  2.231249703301324 0.20197086546700943  2.231249703301324 0.20197086546700943  L 2.3138891855875654 0.20197086546700943  L 2.3138891855875654 0.7389167004915889  L 2.231249703301324 0.7389167004915889  L 2.231249703301324 0.6502472977645485  C 2.231249703301324 0.6502472977645485  2.226389037238227 0.6502472977645485  2.226389037238227 0.6502472977645485  C 2.211805703325404 0.6748778544476014  2.1923614078097877 0.6995081101710602  2.1680558522542315 0.7192125558111216  C 2.138889184428586 0.7339908904081917  2.109722519500388 0.7438431124941746  2.070833630032009 0.7438431124941746  C 2.036805852833721 0.7438431124941746  2.00277762942844 0.7389173024107774  1.978472073872884 0.7241389678137073  C 1.9541665183173285 0.7093606332166373  1.9298611112559836 0.6847288756313985  1.920138888888889 0.6551722064372585  C 1.9055555549760659 0.6256155372431185  1.8958333333333333 0.5911333603932711  1.8958333333333333 0.5418722470271652  C 1.8958333333333333 0.5418722470271652  1.8958333333333333 0.1970444534644237  1.8958333333333333 0.1970444534644237  L 1.978472073872884 0.1970444534644237  C 1.978472073872884 0.1970444534644237  1.978472073872884 0.5418722470271652  1.978472073872884 0.5418722470271652  C 1.978472073872884 0.5763550257962011  1.9881941477457683 0.6059110930711527  2.012499703301324 0.6305416497542056  C 2.031944148035513 0.6551722064372585  2.0611114083892765 0.66502503044243  2.0951391855875654 0.66502503044243  C 2.117536820885208 0.6644996653274259  2.1394597498906984 0.6583803439560032  2.1589635213216143 0.64720906808581  C 2.178467292752531 0.636037792215617  2.194948200136423 0.6201606093630203  2.2069441477457685 0.6009861843984425  Z M 2.4645831849839954 0.7389167004915889  L 2.4597225189208984 0.7389167004915889  L 2.4597225189208984 0.1970444534644237  L 2.542361259460449 0.1970444534644237  C 2.542361259460449 0.1970444534644237  2.542361259460449 0.2857138561914641  2.542361259460449 0.2857138561914641  C 2.556944593373272 0.2561571869973241  2.5763888888888893 0.2364530437849524  2.6006944444444446 0.21674859814489095  C 2.625 0.2019702635478209  2.6541668155954943 0.19211804146183797  2.6881945927937823 0.19211804146183797  C 2.722222369992071 0.19211804146183797  2.7513891855875654 0.2019702635478209  2.7756947411431208 0.21674859814489095  C 2.800000296698676 0.2364530437849524  2.819444295950234 0.2561571869973241  2.8291665183173285 0.2857138561914641  C 2.8291665183173285 0.2857138561914641  2.8388885921902123 0.2857138561914641  2.8388885921902123 0.2857138561914641  C 2.8486108145573077 0.2561571869973241  2.872916963365343 0.23645334474454668  2.8972225189208984 0.22167501014747665  C 2.926389186746544 0.20197056450741518  2.9555558516747418 0.19211804146183797  2.9944447411431208 0.19211804146183797  C 3.0430558522542315 0.19211804146183797  3.0819444432854652 0.21182248563380388  3.1111111111111107 0.2413791548279439  C 3.140277778936757 0.27093582402208394  3.1597222222222223 0.3152717292239811  3.1597222222222223 0.3793111742509659  C 3.1597222222222223 0.3793111742509659  3.1597222222222223 0.7389167004915889  3.1597222222222223 0.7389167004915889  L 3.0770834816826715 0.7389167004915889  C 3.0770834816826715 0.7389167004915889  3.0770834816826715 0.3793111742509659  3.0770834816826715 0.3793111742509659  C 3.0770834816826715 0.3399022829708429  3.0673614078097877 0.3103450147937056  3.0430558522542315 0.29556668019663557  C 3.0236114075200424 0.27586223455657405  2.9944447411431208 0.2709361235135826  2.9701391855875654 0.2709361235135826  C 2.9312502961191864 0.2709361235135826  2.902083481972416 0.28078894751875405  2.882639037238227 0.305419504201807  C 2.863194592504038 0.3251239498418685  2.8486114078097877 0.35467971615722577  2.8486114078097877 0.38916249492626165  C 2.8486114078097877 0.38916249492626165  2.8486114078097877 0.7389167004915889  2.8486114078097877 0.7389167004915889  L 2.770833333333333 0.7389167004915889  C 2.770833333333333 0.7389167004915889  2.770833333333333 0.36945835024579443  2.770833333333333 0.36945835024579443  C 2.7713099824549214 0.3557635406566169  2.7689624152974126 0.34211782711988303  2.7639402813381615 0.3293946090590658  C 2.7589181473789113 0.31667139099824865  2.751331602430178 0.3051504918355094  2.741666369967991 0.29556668019663557  C 2.722221925233801 0.27586223455657405  2.6979163711269694 0.2709361235135826  2.668749703301324 0.2709361235135826  C 2.6444441477457685 0.2709361235135826  2.624999852230151 0.2709355215943941  2.6104165183173285 0.2857138561914641  C 2.5909720735831394 0.29556607901149484  2.5763887411190405 0.31527052391750854  2.5618054072062177 0.33497496955757  C 2.552083184839123 0.3546794151976315  2.547221925523546 0.37438506173987884  2.547221925523546 0.40394173093401886  C 2.547221925523546 0.40394173093401886  2.547221925523546 0.7389167004915889  2.547221925523546 0.7389167004915889  L 2.4645831849839954 0.7389167004915889  Z M 3.626389185587565 0.7339902884890032  C 3.597222517761919 0.7438425113090339  3.563194740563631 0.7487695244967604  3.529166963365343 0.7487695244967604  C 3.4837863879899187 0.7511581778517346  3.438733748677704 0.7397778369126679  3.399767769707574 0.7160856296697184  C 3.360801790737444 0.692393422426769  3.329692702740431 0.6574650898615433  3.310416963365343 0.615763917076324  C 3.290972518631154 0.5763550257962011  3.28125 0.527094214857785  3.28125 0.472906988980592  C 3.28125 0.4236458756144861  3.290972518631154 0.3743847622483802  3.310416963365343 0.32512364888227424  C 3.329861408099532 0.28571475760215126  3.359027926706606 0.2561580913442024  3.393055703904894 0.22660142215006238  C 3.4244701626400156 0.2083331600980547  3.4593915649586258 0.19711871377620963  3.495455318027073 0.19371908777943145  C 3.53151907109552 0.19031946178265327  3.5678830577267537 0.19481435461578647  3.602083630032009 0.20689727746959516  C 3.6313561937875214 0.21713497447627744  3.657947033229801 0.2339852646659225  3.6798439025878906 0.2561749274643335  C 3.70174077194598 0.27836459026274446  3.7183702054123082 0.30531098844878907  3.728472815619575 0.33497496955757  C 3.7430561495323977 0.36945774832660594  3.747916963365343 0.4137930516093146  3.747916963365343 0.46305416497542057  C 3.747916963365343 0.46305416497542057  3.747916963365343 0.497537545663645  3.747916963365343 0.497537545663645  L 3.3395831849839954 0.497537545663645  L 3.3395831849839954 0.42857228761707183  C 3.3395831849839954 0.42857228761707183  3.6652774810791016 0.42857228761707183  3.6652774810791016 0.42857228761707183  C 3.6652774810791016 0.3940895088480359  3.6604166672461567 0.36945835024579443  3.6458333333333335 0.34482779356274146  C 3.6338600075493255 0.3216244137013485  3.615617257646388 0.302354107414329  3.5932360755072703 0.28926923134743454  C 3.5708548933681517 0.27618435528054014  3.5452596793572106 0.2698255226023885  3.519444147745768 0.2709361235135826  C 3.490078894628419 0.27052681511630783  3.461275989810626 0.27911157784805846  3.4368054072062177 0.29556668019663557  C 3.4124998516506615 0.3103450147937056  3.3930558523991046 0.33005006088485994  3.383333630032009 0.3546806175679129  C 3.3687502961191864 0.38423728676205293  3.363888740539551 0.4088669390982276  3.363888740539551 0.4384236082923676  C 3.363888740539551 0.4384236082923676  3.363888740539551 0.48768472165847354  3.363888740539551 0.48768472165847354  C 3.363888740539551 0.5270936129385965  3.3687502961191864 0.5615763917076324  3.383333630032009 0.5862069483906853  C 3.397916963944833 0.6206897271597213  3.417361259460449 0.635467760797197  3.4416668150160046 0.6551722064372585  C 3.46597237057156 0.6699505410343285  3.495139186167055 0.6748778544476014  3.529166963365343 0.6748778544476014  C 3.548611408099532 0.6748778544476014  3.5680549618684587 0.6748772532624607  3.5874994066026478 0.66502503044243  C 3.6020827405154705 0.66502503044243  3.6215271838009357 0.6502466965794078  3.6361105177137585 0.640394473759377  C 3.6361105177137585 0.640394473759377  3.660416073269314 0.5911333603932711  3.660416073269314 0.5911333603932711  C 3.660416073269314 0.5911333603932711  3.738194147745768 0.615763917076324  3.738194147745768 0.615763917076324  C 3.7333330365622213 0.640394473759377  3.7187502969884214 0.6650247294828358  3.699305852254232 0.6847291751228972  C 3.679861407520043 0.7044336207629587  3.6506947411431203 0.7241380656689724  3.626389185587565 0.7339902884890032  Z M 3.9715283711751304 0.33497496955757  C 3.9618061488080354 0.359605526240623  3.9520827399359812 0.3842363824151746  3.9520827399359812 0.4137930516093146  C 3.9520827399359812 0.4137930516093146  3.9520827399359812 0.7389167004915889  3.9520827399359812 0.7389167004915889  L 3.8743061489529076 0.7389167004915889  L 3.8743061489529076 0.1970444534644237  L 3.9520827399359812 0.1970444534644237  L 3.9520827399359812 0.2857138561914641  C 3.9520827399359812 0.2857138561914641  3.956944147745768 0.2857138561914641  3.956944147745768 0.2857138561914641  C 3.971527481658591 0.2561571869973241  3.9909725189208984 0.23645334474454668  4.015278074476454 0.22167501014747665  C 4.039583630032009 0.20197056450741518  4.073611407230297 0.19211804146183797  4.112500296698677 0.19211804146183797  C 4.146474711596966 0.19157897204160243  4.179995426701176 0.20007120703999984  4.209722518920898 0.21674859814489095  C 4.234028074476454 0.23152693274196096  4.258332739791108 0.2561571869973241  4.268054962158203 0.2857138561914641  C 4.282638296071026 0.31527052538560413  4.2923605177137585 0.3497542055653272  4.2923605177137585 0.3990153189314331  C 4.2923605177137585 0.3990153189314331  4.2923605177137585 0.7389167004915889  4.2923605177137585 0.7389167004915889  L 4.209722518920898 0.7389167004915889  C 4.209722518920898 0.7389167004915889  4.209722518920898 0.40394173093401886  4.209722518920898 0.40394173093401886  C 4.209722518920898 0.35960673007899996  4.199999703301323 0.33005006088485994  4.175694147745768 0.305419504201807  C 4.156249703011579 0.28078894751875405  4.1270836306115 0.2709361235135826  4.08819474114312 0.2709361235135826  C 4.064665030895007 0.27022387506111684  4.04131517248849 0.27529378354304784  4.0201394822862415 0.2857138561914641  C 4.0006950375520525 0.29556607901149484  3.9812505935422244 0.31527052391750854  3.9715283711751304 0.33497496955757  Z M 4.394444147745768 0.20197086546700943  L 4.671528074476454 0.20197086546700943  L 4.671528074476454 0.2709361235135826  L 4.394444147745768 0.2709361235135826  L 4.394444147745768 0.20197086546700943  Z M 4.477083630032009 0.6059110930711527  C 4.477083630032009 0.6059110930711527  4.477083630032009 0.07389167004915889  4.477083630032009 0.07389167004915889  L 4.559721628824869 0.07389167004915889  C 4.559721628824869 0.07389167004915889  4.559721628824869 0.5862069483906853  4.559721628824869 0.5862069483906853  C 4.559721628824869 0.6059113940307469  4.559722222077349 0.6256158389367605  4.569444444444445 0.6354680617567913  C 4.574305555627992 0.6502463963538613  4.584027777632905 0.6551725070298289  4.59375 0.6600986184398443  C 4.59375 0.6600986184398443  4.627778371175131 0.66502503044243  4.627778371175131 0.66502503044243  L 4.666666666666666 0.66502503044243  C 4.666666666666666 0.66502503044243  4.681249406602648 0.7339902884890032  4.681249406602648 0.7339902884890032  C 4.661018210566706 0.7414113743876279  4.639552387305432 0.7447586613088225  4.618055555555555 0.7438431124941746  C 4.598611110821366 0.7438431124941718  4.574306149242652 0.7438422110834875  4.554861704508463 0.7290638764864175  C 4.530556148952908 0.7192116536663866  4.511111111690601 0.7044336207629587  4.496527777777779 0.6847291751228972  C 4.481944443864954 0.6650247294828358  4.477083630032009 0.6354677622652927  4.477083630032009 0.6059110930711527  Z M 5.03125 0.7339902884890032  C 5.005472152597374 0.7466464982631842  4.977252764834297 0.7533746968391799  4.9486105177137585 0.7536944331694704  C 4.9145827405154705 0.7536944331694704  4.88541637112697 0.7438425113090339  4.856249703301323 0.7339902884890032  C 4.831944147745768 0.7192119538919332  4.807639186167055 0.6995084111306544  4.793055852254232 0.6748778544476014  C 4.77847251834141 0.6502472977645485  4.768750296698677 0.6256158396708084  4.768750296698677 0.5862069483906853  C 4.768750296698677 0.5566502791965453  4.773611110531622 0.5320197239815879  4.788194444444445 0.5123152783415265  C 4.797916666811538 0.492610832701465  4.817361110821366 0.4778324995724906  4.836805555555555 0.46305416497542057  C 4.836805555555555 0.46305416497542057  4.899999406602648 0.4433500202949533  4.899999406602648 0.4433500202949533  C 4.9509222697880535 0.42995867633918505  5.003028746280405 0.421708267650737  5.055555555555555 0.4187194636119004  C 5.055555555555555 0.4187194636119004  5.09930525885688 0.4088666396067289  5.09930525885688 0.4088666396067289  C 5.109027481223974 0.40394052819671356  5.1138894822862415 0.3940895088480359  5.1138894822862415 0.3793111742509659  C 5.1138894822862415 0.3399022829708429  5.1041669636550875 0.31527112583669703  5.084722518920898 0.29556668019663557  C 5.065278074186709 0.27586223455657405  5.036110813832945 0.26600971151099684  5.002083036634657 0.26600971151099684  C 4.967228597237003 0.2637464270957828  4.932730068763098 0.2742346744327748  4.9048608144124355 0.29556668019663557  C 4.9048608144124355 0.29556668019663557  4.861111111111111 0.34482779356274146  4.861111111111111 0.34482779356274146  C 4.861111111111111 0.34482779356274146  4.783333036634657 0.3201972368796885  4.783333036634657 0.3201972368796885  C 4.794468400172061 0.2919193171077061  4.812243178900745 0.266820158995926  4.835114373101128 0.2470767750567507  C 4.857985567301512 0.22733339111757542  4.885263420641422 0.2135423221713439  4.914583630032009 0.20689727746959516  C 4.962149701184696 0.19374768481326765  5.012092366400692 0.19206036806095814  5.060416963365343 0.20197086546700943  C 5.079861408099532 0.20197086546701223  5.099304961868459 0.21182308755299237  5.118749406602648 0.22660142215006238  C 5.143054962158203 0.23645364497009314  5.1576385916107235 0.2561583908357011  5.172221925523546 0.28078894751875405  C 5.186805259436369 0.31034561671289407  5.191666073269314 0.3399010820686571  5.191666073269314 0.38423608292367595  C 5.191666073269314 0.38423608292367595  5.191666073269314 0.7389167004915889  5.191666073269314 0.7389167004915889  L 5.1138894822862415 0.7389167004915889  L 5.1138894822862415 0.66502503044243  C 5.1138894822862415 0.66502503044243  5.109028074476454 0.66502503044243  5.109028074476454 0.66502503044243  C 5.0913196009480295 0.6960789016812865  5.063973609771994 0.7203260299688811  5.03125 0.7339902884890032  Z M 4.88055525885688 0.6551722064372585  C 4.9048608144124355 0.6699505410343285  4.929166963944832 0.6748778544476014  4.96319474114312 0.6748778544476014  C 4.99722251834141 0.6748778544476014  5.021527184380425 0.6748769530369143  5.045832739935982 0.6600986184398443  C 5.065967607415384 0.6488989180370458  5.082850004753304 0.6325416539823209  5.094792471991646 0.612659540883056  C 5.106734939229986 0.592777427783791  5.1133204819440525 0.570067267845935  5.1138894822862415 0.5467986590297509  C 5.1138894822862415 0.5467986590297509  5.1138894822862415 0.46798057697800627  5.1138894822862415 0.46798057697800627  L 5.089583926730686 0.4827583096558878  C 5.089583926730686 0.4827583096558878  5.050694147745768 0.48768472165847354  5.050694147745768 0.48768472165847354  C 5.0040259175002575 0.4976891984691404  4.957002005229393 0.5059052309654948  4.909722222222221 0.5123152783415265  C 4.909722222222221 0.5123152783415265  4.865972518920898 0.5418722470271652  4.865972518920898 0.5418722470271652  C 4.856250296553803 0.5517244698471959  4.851388295491537 0.5714289147532096  4.851388295491537 0.5911333603932711  C 4.851388295491537 0.6206900295874112  4.861110814122689 0.6403938718401885  4.88055525885688 0.6551722064372585  Z M 5.298611111111111 0.20197086546700943  L 5.570833630032009 0.20197086546700943  L 5.570833630032009 0.2709361235135826  L 5.298611111111111 0.2709361235135826  L 5.298611111111111 0.20197086546700943  Z M 5.3763891855875645 0.6059110930711527  C 5.3763891855875645 0.6059110930711527  5.3763891855875645 0.07389167004915889  5.3763891855875645 0.07389167004915889  L 5.459027184380425 0.07389167004915889  C 5.459027184380425 0.07389167004915889  5.459027184380425 0.5862069483906853  5.459027184380425 0.5862069483906853  C 5.459027184380425 0.6059113940307469  5.459027777632905 0.6256158389367605  5.46875 0.6354680617567913  C 5.478472222367095 0.6502463963538613  5.48333362945252 0.6551725070298289  5.497916963365343 0.6600986184398443  C 5.497916963365343 0.6600986184398443  5.531943851047092 0.66502503044243  5.531943851047092 0.66502503044243  L 5.565972222222221 0.66502503044243  C 5.565972222222221 0.66502503044243  5.580554962158203 0.7339902884890032  5.580554962158203 0.7339902884890032  C 5.56185314638747 0.7408015436320355  5.542093331822091 0.7441396336684585  5.522222518920898 0.7438431124941746  C 5.497916963365343 0.7438431124941718  5.473611704798209 0.7438422110834875  5.454167260064018 0.7290638764864175  C 5.429861704508463 0.7192116536663866  5.415278075055944 0.7044336207629587  5.40069474114312 0.6847291751228972  C 5.386111407230297 0.6650247294828358  5.3763891855875645 0.6354677622652927  5.3763891855875645 0.6059110930711527  Z M 5.774999406602648 0.7389167004915889  L 5.697222815619575 0.7389167004915889  L 5.697222815619575 0.1970444534644237  L 5.774999406602648 0.1970444534644237  L 5.774999406602648 0.7389167004915889  Z M 5.774999406602648 0.09359581472962612  C 5.765277184235552 0.10837414932669613  5.7506944450239335 0.11329995941009335  5.736111111111111 0.11329995941009335  C 5.721527777198288 0.11329995941009335  5.706945037986669 0.10837414932669613  5.697222815619575 0.09359581472962612  C 5.691185506422901 0.08900728712731512  5.686285029786328 0.08305749432258076  5.68291007147895 0.07621732136682752  C 5.679535113171571 0.06937714841107429  5.677777184380425 0.06183507161722591  5.677777184380425 0.054187525368691654  C 5.677777184380425 0.039409190771621645  5.682639481706751 0.029556067274951518  5.697222815619575 0.014777732677881508  C 5.706945037986669 0.004925509857850764  5.721527777198288 0  5.736111111111111 0  C 5.7506944450239335 0  5.765277184235552 0.004925509857850764  5.774999406602648 0.014777732677881508  C 5.7895827405154705 0.029556067274951518  5.794445037841797 0.039409190771621645  5.794445037841797 0.054187525368691654  C 5.794445037841797 0.06896585996576166  5.7895827405154705 0.08374359190959538  5.774999406602648 0.09359581472962612  Z M 6.139582739935982 0.7487695244967604  C 6.139582739935982 0.7487695244967604  6.139582739935982 0.7536944331694704  6.139582739935982 0.7536944331694704  C 6.090971628824869 0.7536944331694704  6.052083927310175 0.7389167004915889  6.013195037841797 0.714286143808536  C 5.977150674495432 0.6898640934004758  5.948533698916435 0.6557475912662172  5.930555555555555 0.615763917076324  C 5.911111110821366 0.5763550257962011  5.901388592190212 0.527094214857785  5.901388592190212 0.472906988980592  C 5.901388592190212 0.41871976310339903  5.911111110821366 0.3694586497372931  5.930555555555555 0.32512364888227424  C 5.950000000289744 0.28571475760215126  5.979167260643509 0.2512319788331154  6.013195037841797 0.22660142215006238  C 6.052083927310175 0.2068969765100009  6.095832741094959 0.19211804146183797  6.139582739935982 0.19211804146183797  C 6.188193851047092 0.19211804146183797  6.231944148325258 0.20689727746959516  6.265971925523546 0.2315278341526481  C 6.304860814991924 0.2512322797927096  6.329167260064018 0.28078894751875405  6.353472815619575 0.33005006088485994  C 6.3729172603537645 0.3694589521649829  6.382638295491537 0.41871976310339903  6.382638295491537 0.472906988980592  C 6.382638295491537 0.527094214857785  6.3729172603537645 0.5763553282238909  6.353472815619575 0.6206903290789098  C 6.329167260064018 0.6600992203590328  6.304860814991924 0.6945819991280686  6.265971925523546 0.7192125558111216  C 6.231944148325258 0.7389170014511831  6.188193851047092 0.7487695244967604  6.139582739935982 0.7487695244967604  Z M 6.052083333333334 0.6453208857619628  C 6.076388888888889 0.6650253314020242  6.100693850467602 0.6748778544476014  6.139582739935982 0.6748778544476014  C 6.17847162940436 0.6748778544476014  6.2076394822862415 0.6650253314020242  6.231945037841797 0.6453208857619628  C 6.256250593397352 0.6305425511648928  6.270833926585814 0.6059119944818397  6.280556148952908 0.5714292157128038  C 6.303197543654177 0.507751468330477  6.303197543654177 0.43806250963070703  6.280556148952908 0.3743847622483802  C 6.270833926585814 0.33990198347934425  6.256250593397352 0.31527112583669703  6.231945037841797 0.29556668019663557  C 6.2076394822862415 0.27586223455657405  6.17847162940436 0.2709361235135826  6.139582739935982 0.2709361235135826  C 6.105554962737692 0.2709361235135826  6.076388888888889 0.27586223455657405  6.052083333333334 0.29556668019663557  C 6.027777777777779 0.31527112583669703  6.008333333405769 0.3448280930542401  6.003472222222221 0.3743847622483802  C 5.980415197296274 0.43798827097333093  5.980415197296274 0.5078257069878531  6.003472222222221 0.5714292157128038  C 6.008333333405769 0.6059119944818397  6.027777777777779 0.6305425511648928  6.052083333333334 0.6453208857619628  Z M 6.606249703301323 0.33497496955757  C 6.5916663693885 0.359605526240623  6.586805555555555 0.3842363824151746  6.586805555555555 0.4137930516093146  C 6.586805555555555 0.4137930516093146  6.586805555555555 0.7389167004915889  6.586805555555555 0.7389167004915889  L 6.504166073269314 0.7389167004915889  L 6.504166073269314 0.1970444534644237  L 6.586805555555555 0.1970444534644237  L 6.586805555555555 0.2857138561914641  C 6.586805555555555 0.2857138561914641  6.591666963365343 0.2857138561914641  6.591666963365343 0.2857138561914641  C 6.606250297278166 0.2561571869973241  6.620832738777002 0.23645334474454668  6.649999406602648 0.22167501014747665  C 6.674304962158203 0.20197056450741518  6.708332739356491 0.19211804146183797  6.747221628824869 0.19211804146183797  C 6.78119604372316 0.19157897204160243  6.814716758827368 0.20007120703999984  6.844443851047092 0.21674859814489095  C 6.868749406602648 0.23152693274196096  6.888194443864954 0.2561571869973241  6.902777777777779 0.2857138561914641  C 6.917361111690601 0.31527052538560413  6.927083333333334 0.3497542055653272  6.927083333333334 0.3990153189314331  C 6.927083333333334 0.3990153189314331  6.927083333333334 0.7389167004915889  6.927083333333334 0.7389167004915889  L 6.844443851047092 0.7389167004915889  C 6.844443851047092 0.7389167004915889  6.844443851047092 0.40394173093401886  6.844443851047092 0.40394173093401886  C 6.844443851047092 0.35960673007899996  6.834722518920898 0.33005006088485994  6.810416963365343 0.305419504201807  C 6.790972518631154 0.28078894751875405  6.761804962737692 0.2709361235135826  6.722916073269314 0.2709361235135826  C 6.699386363021201 0.27022387506111684  6.676036504614684 0.27529378354304784  6.6548608144124355 0.2857138561914641  C 6.63055525885688 0.29556607901149484  6.615971925668418 0.31527052391750854  6.606249703301323 0.33497496955757  Z M 0 1  L 0 0.9359611539560125  L 7 0.9359611539560125  L 7 1  L 0 1  Z " fill-rule="nonzero" fill="rgba(0, 0, 0, 1)" stroke="none" transform="matrix(1 0 0 1 9 22 )" class="fill" />
    <path d="M 0.48611111111111116 0.6945819991280686  C 0.4375 0.7241386683222087  0.3743054072062174 0.7389167004915889  0.3013887405395508 0.7389167004915889  C 0.3013887405395508 0.7389167004915889  0.08750014834933811 0.7389167004915889  0.08750014834933811 0.7389167004915889  L 0.08750014834933811 0.024630556683052963  C 0.08750014834933811 0.024630556683052963  0.31111081441243493 0.024630556683052963  0.31111081441243493 0.024630556683052963  C 0.38402748107910156 0.024630556683052963  0.4423614078097873 0.03448217684984741  0.49097251892089844 0.06403884604398744  C 0.5395836300320096 0.09359551523812745  0.5736108132534556 0.13300440358205926  0.6027774810791016 0.18719162945925225  C 0.6270830366346571 0.24137885533644524  0.6416665183173285 0.305419504201807  0.6416665183173285 0.3793111742509659  C 0.6416665183173285 0.45320284430012475  0.6270830366346571 0.5172422893271096  0.6027774810791016 0.5763556277153896  C 0.5736108132534556 0.6256167410814956  0.5347222222222223 0.6650253299339286  0.48611111111111116 0.6945819991280686  Z " stroke-width="0" stroke-dasharray="0" stroke="rgba(121, 121, 121, 1)" fill="none" transform="matrix(1 0 0 1 9 22 )" class="stroke" mask="url(#Clip266)" />
    <path d="M 0.1701388888888889 0.09852222673221185  L 0.1701388888888889 0.6600986184398443  C 0.1701388888888889 0.6600986184398443  0.296528074476454 0.6600986184398443  0.296528074476454 0.6600986184398443  C 0.35486141012774575 0.6600986184398443  0.40347251834140885 0.6502472977645485  0.4423614078097873 0.6256167410814956  C 0.4812502972781658 0.605912295441434  0.5104163696782456 0.5763556277153896  0.5298608144124348 0.5270945143492837  C 0.5493052591466241 0.4876856230691607  0.5590277777777777 0.4384245126392459  0.5590277777777777 0.3793111742509659  C 0.5590277777777777 0.32019783586268585  0.5493052591466241 0.2709367254327711  0.5298608144124348 0.2315278341526481  C 0.5104163696782456 0.18719283329762926  0.48124985107117224 0.15763616410348924  0.4472220738728841 0.13300560742043627  C 0.4083331844045056 0.10837505073738331  0.3645834840006299 0.09852222673221185  0.30625014834933806 0.09852222673221185  C 0.30625014834933806 0.09852222673221185  0.1701388888888889 0.09852222673221185  0.1701388888888889 0.09852222673221185  Z " stroke-width="0" stroke-dasharray="0" stroke="rgba(121, 121, 121, 1)" fill="none" transform="matrix(1 0 0 1 9 22 )" class="stroke" mask="url(#Clip266)" />
    <path d="M 1.113194147745768 0.7192125558111216  C 1.07916637054748 0.7389170014511831  1.0354168150160046 0.7487695244967604  0.9868057039048937 0.7487695244967604  C 0.9381945927937826 0.7487695244967604  0.899305407785707 0.7389167004915889  0.8604165183173285 0.714286143808536  C 0.8243721549709637 0.6898640934004758  0.7957559211386576 0.6557475912662172  0.7777777777777777 0.615763917076324  C 0.7583333330435886 0.5763550257962011  0.7486108144124348 0.527094214857785  0.7486108144124348 0.472906988980592  C 0.7486108144124348 0.41871976310339903  0.7583333330435886 0.3694586497372931  0.7777777777777777 0.32512364888227424  C 0.797222222511967 0.28571475760215126  0.8263887411190405 0.2512319788331154  0.8604165183173285 0.22660142215006238  C 0.899305407785707 0.2068969765100009  0.9430557050638728 0.19211804146183797  0.9868057039048937 0.19211804146183797  C 1.0354168150160046 0.19211804146183797  1.07916637054748 0.20689727746959516  1.113194147745768 0.2315278341526481  C 1.1520830372141466 0.2512322797927096  1.1763887405395508 0.28078894751875405  1.2006942960951061 0.33005006088485994  C 1.2201387408292956 0.3694589521649829  1.2298612594604492 0.41871976310339903  1.2298612594604492 0.472906988980592  C 1.2298612594604492 0.527094214857785  1.2201387408292956 0.5763553282238909  1.2006942960951061 0.6206903290789098  C 1.1763887405395508 0.6600992203590328  1.1520830372141466 0.6945819991280686  1.113194147745768 0.7192125558111216  Z " stroke-width="0" stroke-dasharray="0" stroke="rgba(121, 121, 121, 1)" fill="none" transform="matrix(1 0 0 1 9 22 )" class="stroke" mask="url(#Clip266)" />
    <path d="M 0.8993055555555555 0.6453208857619628  C 0.9236111111111112 0.6650253314020242  0.9479168144365152 0.6748778544476014  0.9868057039048937 0.6748778544476014  C 1.025694593373272 0.6748778544476014  1.054860962761773 0.6650253314020242  1.0791665183173285 0.6453208857619628  C 1.1034720738728843 0.6305425511648928  1.118055407061345 0.6059119944818397  1.1277776294284396 0.5714292157128038  C 1.1504190241297088 0.507751468330477  1.1504190241297088 0.43806250963070703  1.1277776294284396 0.3743847622483802  C 1.118055407061345 0.33990198347934425  1.1034720738728843 0.31527112583669703  1.0791665183173285 0.29556668019663557  C 1.054860962761773 0.27586223455657405  1.025694593373272 0.2709361235135826  0.9868057039048937 0.2709361235135826  C 0.9527779267066054 0.2709361235135826  0.9236111111111112 0.27586223455657405  0.8993055555555555 0.29556668019663557  C 0.875 0.31527112583669703  0.8604166668115392 0.3448280930542401  0.8506944444444444 0.3743847622483802  C 0.8276374195184972 0.43798827097333093  0.8276374195184972 0.5078257069878531  0.8506944444444444 0.5714292157128038  C 0.8604166668115392 0.6059119944818397  0.875 0.6305425511648928  0.8993055555555555 0.6453208857619628  Z " stroke-width="0" stroke-dasharray="0" stroke="rgba(121, 121, 121, 1)" fill="none" transform="matrix(1 0 0 1 9 22 )" class="stroke" mask="url(#Clip266)" />
    <path d="M 1.5749997033013239 0.7487695244967604  C 1.5749997033013239 0.7487695244967604  1.570139037238227 0.7487695244967604  1.570139037238227 0.7487695244967604  C 1.5215279261271157 0.7487695244967604  1.4729169627858534 0.7389167004915889  1.438889185587565 0.714286143808536  C 1.4026687211460538 0.6900649920041643  1.374003817430801 0.6558913530579609  1.3562497033013239 0.615763917076324  C 1.3368052585671344 0.5763550257962011  1.3270834816826715 0.527094214857785  1.3270834816826715 0.472906988980592  C 1.3270834816826715 0.41871976310339903  1.3368052585671344 0.3743847622483802  1.3562497033013239 0.32512364888227424  C 1.3805552588568792 0.28571475760215126  1.4048609621822834 0.2561580913442024  1.443749851650662 0.22660142215006238  C 1.47777762884895 0.2068969765100009  1.521527630587419 0.19211804146183797  1.5652776294284396 0.19211804146183797  C 1.6041665188968182 0.19211804146183797  1.6381945916348033 0.2019702635478209  1.6673612594604492 0.21674859814489095  C 1.696477050996489 0.22961776986415536  1.721709962313374 0.25007159021294667  1.7404945161607532 0.2760294051323682  C 1.759279070008132 0.30198722005178974  1.7709450149494739 0.3325230326579624  1.7743055555555554 0.36453193824320873  C 1.7743055555555554 0.36453193824320873  1.7013888888888888 0.36453193824320873  1.7013888888888888 0.36453193824320873  C 1.6965277777053416 0.33990138156015576  1.6819447411431208 0.31527112583669703  1.657639185587565 0.29556668019663557  C 1.638194740853376 0.27586223455657405  1.6090274804996119 0.2709361235135826  1.5749997033013239 0.2709361235135826  C 1.5456344501839743 0.27052681511630783  1.5168315453661814 0.27911157784805846  1.492360962761773 0.29556668019663557  C 1.4680554072062173 0.3103450147937056  1.4437500001448722 0.3349752690490687  1.4340277777777777 0.36453193824320873  C 1.419444443864955 0.39408860743734875  1.4145836300320096 0.4285716856978833  1.4145836300320096 0.46798057697800627  C 1.4145836300320096 0.5123155778330252  1.419444443864955 0.5467989585212496  1.4340277777777777 0.5763556277153896  C 1.4486111116906009 0.6108384064844256  1.468055851964487 0.6354689631674785  1.4875002966986761 0.6502472977645485  C 1.511805852254232 0.6650256323616185  1.5409719261030355 0.6748778544476014  1.5749997033013239 0.6748778544476014  C 1.594444148035513 0.6748778544476014  1.61388918529782 0.6748772532624607  1.6333336300320096 0.66502503044243  C 1.6504500100596085 0.6575846045866595  1.6655594669282436 0.6461000437257588  1.6773993174235025 0.6315308408123995  C 1.6892391679187617 0.6169616378990401  1.6974649978284209 0.5997306382269539  1.7013888888888888 0.5812805363880996  C 1.7013888888888888 0.5812805363880996  1.7840276294284398 0.5812805363880996  1.7840276294284398 0.5812805363880996  C 1.7797592680176928 0.6129911425682888  1.7677410756134326 0.6431192885209489  1.7490646574232311 0.6689276747996813  C 1.7303882392330303 0.6947360610784137  1.7056455036832228 0.7154069496356305  1.6770833333333335 0.7290638764864175  C 1.6479166655076876 0.7438422110834875  1.6138885927697024 0.7487695244967604  1.5749997033013239 0.7487695244967604  Z " stroke-width="0" stroke-dasharray="0" stroke="rgba(121, 121, 121, 1)" fill="none" transform="matrix(1 0 0 1 9 22 )" class="stroke" mask="url(#Clip266)" />
    <path d="M 2.2069441477457685 0.6009861843984425  C 2.2215274816585913 0.5812817387583811  2.231249703301324 0.5517244691131481  2.231249703301324 0.5172416903441122  C 2.231249703301324 0.5172416903441122  2.231249703301324 0.20197086546700943  2.231249703301324 0.20197086546700943  L 2.3138891855875654 0.20197086546700943  L 2.3138891855875654 0.7389167004915889  L 2.231249703301324 0.7389167004915889  L 2.231249703301324 0.6502472977645485  C 2.231249703301324 0.6502472977645485  2.226389037238227 0.6502472977645485  2.226389037238227 0.6502472977645485  C 2.211805703325404 0.6748778544476014  2.1923614078097877 0.6995081101710602  2.1680558522542315 0.7192125558111216  C 2.138889184428586 0.7339908904081917  2.109722519500388 0.7438431124941746  2.070833630032009 0.7438431124941746  C 2.036805852833721 0.7438431124941746  2.00277762942844 0.7389173024107774  1.978472073872884 0.7241389678137073  C 1.9541665183173285 0.7093606332166373  1.9298611112559836 0.6847288756313985  1.920138888888889 0.6551722064372585  C 1.9055555549760659 0.6256155372431185  1.8958333333333333 0.5911333603932711  1.8958333333333333 0.5418722470271652  C 1.8958333333333333 0.5418722470271652  1.8958333333333333 0.1970444534644237  1.8958333333333333 0.1970444534644237  L 1.978472073872884 0.1970444534644237  C 1.978472073872884 0.1970444534644237  1.978472073872884 0.5418722470271652  1.978472073872884 0.5418722470271652  C 1.978472073872884 0.5763550257962011  1.9881941477457683 0.6059110930711527  2.012499703301324 0.6305416497542056  C 2.031944148035513 0.6551722064372585  2.0611114083892765 0.66502503044243  2.0951391855875654 0.66502503044243  C 2.117536820885208 0.6644996653274259  2.1394597498906984 0.6583803439560032  2.1589635213216143 0.64720906808581  C 2.178467292752531 0.636037792215617  2.194948200136423 0.6201606093630203  2.2069441477457685 0.6009861843984425  Z " stroke-width="0" stroke-dasharray="0" stroke="rgba(121, 121, 121, 1)" fill="none" transform="matrix(1 0 0 1 9 22 )" class="stroke" mask="url(#Clip266)" />
    <path d="M 2.4645831849839954 0.7389167004915889  L 2.4597225189208984 0.7389167004915889  L 2.4597225189208984 0.1970444534644237  L 2.542361259460449 0.1970444534644237  C 2.542361259460449 0.1970444534644237  2.542361259460449 0.2857138561914641  2.542361259460449 0.2857138561914641  C 2.556944593373272 0.2561571869973241  2.5763888888888893 0.2364530437849524  2.6006944444444446 0.21674859814489095  C 2.625 0.2019702635478209  2.6541668155954943 0.19211804146183797  2.6881945927937823 0.19211804146183797  C 2.722222369992071 0.19211804146183797  2.7513891855875654 0.2019702635478209  2.7756947411431208 0.21674859814489095  C 2.800000296698676 0.2364530437849524  2.819444295950234 0.2561571869973241  2.8291665183173285 0.2857138561914641  C 2.8291665183173285 0.2857138561914641  2.8388885921902123 0.2857138561914641  2.8388885921902123 0.2857138561914641  C 2.8486108145573077 0.2561571869973241  2.872916963365343 0.23645334474454668  2.8972225189208984 0.22167501014747665  C 2.926389186746544 0.20197056450741518  2.9555558516747418 0.19211804146183797  2.9944447411431208 0.19211804146183797  C 3.0430558522542315 0.19211804146183797  3.0819444432854652 0.21182248563380388  3.1111111111111107 0.2413791548279439  C 3.140277778936757 0.27093582402208394  3.1597222222222223 0.3152717292239811  3.1597222222222223 0.3793111742509659  C 3.1597222222222223 0.3793111742509659  3.1597222222222223 0.7389167004915889  3.1597222222222223 0.7389167004915889  L 3.0770834816826715 0.7389167004915889  C 3.0770834816826715 0.7389167004915889  3.0770834816826715 0.3793111742509659  3.0770834816826715 0.3793111742509659  C 3.0770834816826715 0.3399022829708429  3.0673614078097877 0.3103450147937056  3.0430558522542315 0.29556668019663557  C 3.0236114075200424 0.27586223455657405  2.9944447411431208 0.2709361235135826  2.9701391855875654 0.2709361235135826  C 2.9312502961191864 0.2709361235135826  2.902083481972416 0.28078894751875405  2.882639037238227 0.305419504201807  C 2.863194592504038 0.3251239498418685  2.8486114078097877 0.35467971615722577  2.8486114078097877 0.38916249492626165  C 2.8486114078097877 0.38916249492626165  2.8486114078097877 0.7389167004915889  2.8486114078097877 0.7389167004915889  L 2.770833333333333 0.7389167004915889  C 2.770833333333333 0.7389167004915889  2.770833333333333 0.36945835024579443  2.770833333333333 0.36945835024579443  C 2.7713099824549214 0.3557635406566169  2.7689624152974126 0.34211782711988303  2.7639402813381615 0.3293946090590658  C 2.7589181473789113 0.31667139099824865  2.751331602430178 0.3051504918355094  2.741666369967991 0.29556668019663557  C 2.722221925233801 0.27586223455657405  2.6979163711269694 0.2709361235135826  2.668749703301324 0.2709361235135826  C 2.6444441477457685 0.2709361235135826  2.624999852230151 0.2709355215943941  2.6104165183173285 0.2857138561914641  C 2.5909720735831394 0.29556607901149484  2.5763887411190405 0.31527052391750854  2.5618054072062177 0.33497496955757  C 2.552083184839123 0.3546794151976315  2.547221925523546 0.37438506173987884  2.547221925523546 0.40394173093401886  C 2.547221925523546 0.40394173093401886  2.547221925523546 0.7389167004915889  2.547221925523546 0.7389167004915889  L 2.4645831849839954 0.7389167004915889  Z " stroke-width="0" stroke-dasharray="0" stroke="rgba(121, 121, 121, 1)" fill="none" transform="matrix(1 0 0 1 9 22 )" class="stroke" mask="url(#Clip266)" />
    <path d="M 3.626389185587565 0.7339902884890032  C 3.597222517761919 0.7438425113090339  3.563194740563631 0.7487695244967604  3.529166963365343 0.7487695244967604  C 3.4837863879899187 0.7511581778517346  3.438733748677704 0.7397778369126679  3.399767769707574 0.7160856296697184  C 3.360801790737444 0.692393422426769  3.329692702740431 0.6574650898615433  3.310416963365343 0.615763917076324  C 3.290972518631154 0.5763550257962011  3.28125 0.527094214857785  3.28125 0.472906988980592  C 3.28125 0.4236458756144861  3.290972518631154 0.3743847622483802  3.310416963365343 0.32512364888227424  C 3.329861408099532 0.28571475760215126  3.359027926706606 0.2561580913442024  3.393055703904894 0.22660142215006238  C 3.4244701626400156 0.2083331600980547  3.4593915649586258 0.19711871377620963  3.495455318027073 0.19371908777943145  C 3.53151907109552 0.19031946178265327  3.5678830577267537 0.19481435461578647  3.602083630032009 0.20689727746959516  C 3.6313561937875214 0.21713497447627744  3.657947033229801 0.2339852646659225  3.6798439025878906 0.2561749274643335  C 3.70174077194598 0.27836459026274446  3.7183702054123082 0.30531098844878907  3.728472815619575 0.33497496955757  C 3.7430561495323977 0.36945774832660594  3.747916963365343 0.4137930516093146  3.747916963365343 0.46305416497542057  C 3.747916963365343 0.46305416497542057  3.747916963365343 0.497537545663645  3.747916963365343 0.497537545663645  L 3.3395831849839954 0.497537545663645  L 3.3395831849839954 0.42857228761707183  C 3.3395831849839954 0.42857228761707183  3.6652774810791016 0.42857228761707183  3.6652774810791016 0.42857228761707183  C 3.6652774810791016 0.3940895088480359  3.6604166672461567 0.36945835024579443  3.6458333333333335 0.34482779356274146  C 3.6338600075493255 0.3216244137013485  3.615617257646388 0.302354107414329  3.5932360755072703 0.28926923134743454  C 3.5708548933681517 0.27618435528054014  3.5452596793572106 0.2698255226023885  3.519444147745768 0.2709361235135826  C 3.490078894628419 0.27052681511630783  3.461275989810626 0.27911157784805846  3.4368054072062177 0.29556668019663557  C 3.4124998516506615 0.3103450147937056  3.3930558523991046 0.33005006088485994  3.383333630032009 0.3546806175679129  C 3.3687502961191864 0.38423728676205293  3.363888740539551 0.4088669390982276  3.363888740539551 0.4384236082923676  C 3.363888740539551 0.4384236082923676  3.363888740539551 0.48768472165847354  3.363888740539551 0.48768472165847354  C 3.363888740539551 0.5270936129385965  3.3687502961191864 0.5615763917076324  3.383333630032009 0.5862069483906853  C 3.397916963944833 0.6206897271597213  3.417361259460449 0.635467760797197  3.4416668150160046 0.6551722064372585  C 3.46597237057156 0.6699505410343285  3.495139186167055 0.6748778544476014  3.529166963365343 0.6748778544476014  C 3.548611408099532 0.6748778544476014  3.5680549618684587 0.6748772532624607  3.5874994066026478 0.66502503044243  C 3.6020827405154705 0.66502503044243  3.6215271838009357 0.6502466965794078  3.6361105177137585 0.640394473759377  C 3.6361105177137585 0.640394473759377  3.660416073269314 0.5911333603932711  3.660416073269314 0.5911333603932711  C 3.660416073269314 0.5911333603932711  3.738194147745768 0.615763917076324  3.738194147745768 0.615763917076324  C 3.7333330365622213 0.640394473759377  3.7187502969884214 0.6650247294828358  3.699305852254232 0.6847291751228972  C 3.679861407520043 0.7044336207629587  3.6506947411431203 0.7241380656689724  3.626389185587565 0.7339902884890032  Z " stroke-width="0" stroke-dasharray="0" stroke="rgba(121, 121, 121, 1)" fill="none" transform="matrix(1 0 0 1 9 22 )" class="stroke" mask="url(#Clip266)" />
    <path d="M 3.9715283711751304 0.33497496955757  C 3.9618061488080354 0.359605526240623  3.9520827399359812 0.3842363824151746  3.9520827399359812 0.4137930516093146  C 3.9520827399359812 0.4137930516093146  3.9520827399359812 0.7389167004915889  3.9520827399359812 0.7389167004915889  L 3.8743061489529076 0.7389167004915889  L 3.8743061489529076 0.1970444534644237  L 3.9520827399359812 0.1970444534644237  L 3.9520827399359812 0.2857138561914641  C 3.9520827399359812 0.2857138561914641  3.956944147745768 0.2857138561914641  3.956944147745768 0.2857138561914641  C 3.971527481658591 0.2561571869973241  3.9909725189208984 0.23645334474454668  4.015278074476454 0.22167501014747665  C 4.039583630032009 0.20197056450741518  4.073611407230297 0.19211804146183797  4.112500296698677 0.19211804146183797  C 4.146474711596966 0.19157897204160243  4.179995426701176 0.20007120703999984  4.209722518920898 0.21674859814489095  C 4.234028074476454 0.23152693274196096  4.258332739791108 0.2561571869973241  4.268054962158203 0.2857138561914641  C 4.282638296071026 0.31527052538560413  4.2923605177137585 0.3497542055653272  4.2923605177137585 0.3990153189314331  C 4.2923605177137585 0.3990153189314331  4.2923605177137585 0.7389167004915889  4.2923605177137585 0.7389167004915889  L 4.209722518920898 0.7389167004915889  C 4.209722518920898 0.7389167004915889  4.209722518920898 0.40394173093401886  4.209722518920898 0.40394173093401886  C 4.209722518920898 0.35960673007899996  4.199999703301323 0.33005006088485994  4.175694147745768 0.305419504201807  C 4.156249703011579 0.28078894751875405  4.1270836306115 0.2709361235135826  4.08819474114312 0.2709361235135826  C 4.064665030895007 0.27022387506111684  4.04131517248849 0.27529378354304784  4.0201394822862415 0.2857138561914641  C 4.0006950375520525 0.29556607901149484  3.9812505935422244 0.31527052391750854  3.9715283711751304 0.33497496955757  Z " stroke-width="0" stroke-dasharray="0" stroke="rgba(121, 121, 121, 1)" fill="none" transform="matrix(1 0 0 1 9 22 )" class="stroke" mask="url(#Clip266)" />
    <path d="M 4.394444147745768 0.20197086546700943  L 4.671528074476454 0.20197086546700943  L 4.671528074476454 0.2709361235135826  L 4.394444147745768 0.2709361235135826  L 4.394444147745768 0.20197086546700943  Z " stroke-width="0" stroke-dasharray="0" stroke="rgba(121, 121, 121, 1)" fill="none" transform="matrix(1 0 0 1 9 22 )" class="stroke" mask="url(#Clip266)" />
    <path d="M 4.477083630032009 0.6059110930711527  C 4.477083630032009 0.6059110930711527  4.477083630032009 0.07389167004915889  4.477083630032009 0.07389167004915889  L 4.559721628824869 0.07389167004915889  C 4.559721628824869 0.07389167004915889  4.559721628824869 0.5862069483906853  4.559721628824869 0.5862069483906853  C 4.559721628824869 0.6059113940307469  4.559722222077349 0.6256158389367605  4.569444444444445 0.6354680617567913  C 4.574305555627992 0.6502463963538613  4.584027777632905 0.6551725070298289  4.59375 0.6600986184398443  C 4.59375 0.6600986184398443  4.627778371175131 0.66502503044243  4.627778371175131 0.66502503044243  L 4.666666666666666 0.66502503044243  C 4.666666666666666 0.66502503044243  4.681249406602648 0.7339902884890032  4.681249406602648 0.7339902884890032  C 4.661018210566706 0.7414113743876279  4.639552387305432 0.7447586613088225  4.618055555555555 0.7438431124941746  C 4.598611110821366 0.7438431124941718  4.574306149242652 0.7438422110834875  4.554861704508463 0.7290638764864175  C 4.530556148952908 0.7192116536663866  4.511111111690601 0.7044336207629587  4.496527777777779 0.6847291751228972  C 4.481944443864954 0.6650247294828358  4.477083630032009 0.6354677622652927  4.477083630032009 0.6059110930711527  Z " stroke-width="0" stroke-dasharray="0" stroke="rgba(121, 121, 121, 1)" fill="none" transform="matrix(1 0 0 1 9 22 )" class="stroke" mask="url(#Clip266)" />
    <path d="M 5.03125 0.7339902884890032  C 5.005472152597374 0.7466464982631842  4.977252764834297 0.7533746968391799  4.9486105177137585 0.7536944331694704  C 4.9145827405154705 0.7536944331694704  4.88541637112697 0.7438425113090339  4.856249703301323 0.7339902884890032  C 4.831944147745768 0.7192119538919332  4.807639186167055 0.6995084111306544  4.793055852254232 0.6748778544476014  C 4.77847251834141 0.6502472977645485  4.768750296698677 0.6256158396708084  4.768750296698677 0.5862069483906853  C 4.768750296698677 0.5566502791965453  4.773611110531622 0.5320197239815879  4.788194444444445 0.5123152783415265  C 4.797916666811538 0.492610832701465  4.817361110821366 0.4778324995724906  4.836805555555555 0.46305416497542057  C 4.836805555555555 0.46305416497542057  4.899999406602648 0.4433500202949533  4.899999406602648 0.4433500202949533  C 4.9509222697880535 0.42995867633918505  5.003028746280405 0.421708267650737  5.055555555555555 0.4187194636119004  C 5.055555555555555 0.4187194636119004  5.09930525885688 0.4088666396067289  5.09930525885688 0.4088666396067289  C 5.109027481223974 0.40394052819671356  5.1138894822862415 0.3940895088480359  5.1138894822862415 0.3793111742509659  C 5.1138894822862415 0.3399022829708429  5.1041669636550875 0.31527112583669703  5.084722518920898 0.29556668019663557  C 5.065278074186709 0.27586223455657405  5.036110813832945 0.26600971151099684  5.002083036634657 0.26600971151099684  C 4.967228597237003 0.2637464270957828  4.932730068763098 0.2742346744327748  4.9048608144124355 0.29556668019663557  C 4.9048608144124355 0.29556668019663557  4.861111111111111 0.34482779356274146  4.861111111111111 0.34482779356274146  C 4.861111111111111 0.34482779356274146  4.783333036634657 0.3201972368796885  4.783333036634657 0.3201972368796885  C 4.794468400172061 0.2919193171077061  4.812243178900745 0.266820158995926  4.835114373101128 0.2470767750567507  C 4.857985567301512 0.22733339111757542  4.885263420641422 0.2135423221713439  4.914583630032009 0.20689727746959516  C 4.962149701184696 0.19374768481326765  5.012092366400692 0.19206036806095814  5.060416963365343 0.20197086546700943  C 5.079861408099532 0.20197086546701223  5.099304961868459 0.21182308755299237  5.118749406602648 0.22660142215006238  C 5.143054962158203 0.23645364497009314  5.1576385916107235 0.2561583908357011  5.172221925523546 0.28078894751875405  C 5.186805259436369 0.31034561671289407  5.191666073269314 0.3399010820686571  5.191666073269314 0.38423608292367595  C 5.191666073269314 0.38423608292367595  5.191666073269314 0.7389167004915889  5.191666073269314 0.7389167004915889  L 5.1138894822862415 0.7389167004915889  L 5.1138894822862415 0.66502503044243  C 5.1138894822862415 0.66502503044243  5.109028074476454 0.66502503044243  5.109028074476454 0.66502503044243  C 5.0913196009480295 0.6960789016812865  5.063973609771994 0.7203260299688811  5.03125 0.7339902884890032  Z " stroke-width="0" stroke-dasharray="0" stroke="rgba(121, 121, 121, 1)" fill="none" transform="matrix(1 0 0 1 9 22 )" class="stroke" mask="url(#Clip266)" />
    <path d="M 4.88055525885688 0.6551722064372585  C 4.9048608144124355 0.6699505410343285  4.929166963944832 0.6748778544476014  4.96319474114312 0.6748778544476014  C 4.99722251834141 0.6748778544476014  5.021527184380425 0.6748769530369143  5.045832739935982 0.6600986184398443  C 5.065967607415384 0.6488989180370458  5.082850004753304 0.6325416539823209  5.094792471991646 0.612659540883056  C 5.106734939229986 0.592777427783791  5.1133204819440525 0.570067267845935  5.1138894822862415 0.5467986590297509  C 5.1138894822862415 0.5467986590297509  5.1138894822862415 0.46798057697800627  5.1138894822862415 0.46798057697800627  L 5.089583926730686 0.4827583096558878  C 5.089583926730686 0.4827583096558878  5.050694147745768 0.48768472165847354  5.050694147745768 0.48768472165847354  C 5.0040259175002575 0.4976891984691404  4.957002005229393 0.5059052309654948  4.909722222222221 0.5123152783415265  C 4.909722222222221 0.5123152783415265  4.865972518920898 0.5418722470271652  4.865972518920898 0.5418722470271652  C 4.856250296553803 0.5517244698471959  4.851388295491537 0.5714289147532096  4.851388295491537 0.5911333603932711  C 4.851388295491537 0.6206900295874112  4.861110814122689 0.6403938718401885  4.88055525885688 0.6551722064372585  Z " stroke-width="0" stroke-dasharray="0" stroke="rgba(121, 121, 121, 1)" fill="none" transform="matrix(1 0 0 1 9 22 )" class="stroke" mask="url(#Clip266)" />
    <path d="M 5.298611111111111 0.20197086546700943  L 5.570833630032009 0.20197086546700943  L 5.570833630032009 0.2709361235135826  L 5.298611111111111 0.2709361235135826  L 5.298611111111111 0.20197086546700943  Z " stroke-width="0" stroke-dasharray="0" stroke="rgba(121, 121, 121, 1)" fill="none" transform="matrix(1 0 0 1 9 22 )" class="stroke" mask="url(#Clip266)" />
    <path d="M 5.3763891855875645 0.6059110930711527  C 5.3763891855875645 0.6059110930711527  5.3763891855875645 0.07389167004915889  5.3763891855875645 0.07389167004915889  L 5.459027184380425 0.07389167004915889  C 5.459027184380425 0.07389167004915889  5.459027184380425 0.5862069483906853  5.459027184380425 0.5862069483906853  C 5.459027184380425 0.6059113940307469  5.459027777632905 0.6256158389367605  5.46875 0.6354680617567913  C 5.478472222367095 0.6502463963538613  5.48333362945252 0.6551725070298289  5.497916963365343 0.6600986184398443  C 5.497916963365343 0.6600986184398443  5.531943851047092 0.66502503044243  5.531943851047092 0.66502503044243  L 5.565972222222221 0.66502503044243  C 5.565972222222221 0.66502503044243  5.580554962158203 0.7339902884890032  5.580554962158203 0.7339902884890032  C 5.56185314638747 0.7408015436320355  5.542093331822091 0.7441396336684585  5.522222518920898 0.7438431124941746  C 5.497916963365343 0.7438431124941718  5.473611704798209 0.7438422110834875  5.454167260064018 0.7290638764864175  C 5.429861704508463 0.7192116536663866  5.415278075055944 0.7044336207629587  5.40069474114312 0.6847291751228972  C 5.386111407230297 0.6650247294828358  5.3763891855875645 0.6354677622652927  5.3763891855875645 0.6059110930711527  Z " stroke-width="0" stroke-dasharray="0" stroke="rgba(121, 121, 121, 1)" fill="none" transform="matrix(1 0 0 1 9 22 )" class="stroke" mask="url(#Clip266)" />
    <path d="M 5.774999406602648 0.7389167004915889  L 5.697222815619575 0.7389167004915889  L 5.697222815619575 0.1970444534644237  L 5.774999406602648 0.1970444534644237  L 5.774999406602648 0.7389167004915889  Z " stroke-width="0" stroke-dasharray="0" stroke="rgba(121, 121, 121, 1)" fill="none" transform="matrix(1 0 0 1 9 22 )" class="stroke" mask="url(#Clip266)" />
    <path d="M 5.774999406602648 0.09359581472962612  C 5.765277184235552 0.10837414932669613  5.7506944450239335 0.11329995941009335  5.736111111111111 0.11329995941009335  C 5.721527777198288 0.11329995941009335  5.706945037986669 0.10837414932669613  5.697222815619575 0.09359581472962612  C 5.691185506422901 0.08900728712731512  5.686285029786328 0.08305749432258076  5.68291007147895 0.07621732136682752  C 5.679535113171571 0.06937714841107429  5.677777184380425 0.06183507161722591  5.677777184380425 0.054187525368691654  C 5.677777184380425 0.039409190771621645  5.682639481706751 0.029556067274951518  5.697222815619575 0.014777732677881508  C 5.706945037986669 0.004925509857850764  5.721527777198288 0  5.736111111111111 0  C 5.7506944450239335 0  5.765277184235552 0.004925509857850764  5.774999406602648 0.014777732677881508  C 5.7895827405154705 0.029556067274951518  5.794445037841797 0.039409190771621645  5.794445037841797 0.054187525368691654  C 5.794445037841797 0.06896585996576166  5.7895827405154705 0.08374359190959538  5.774999406602648 0.09359581472962612  Z " stroke-width="0" stroke-dasharray="0" stroke="rgba(121, 121, 121, 1)" fill="none" transform="matrix(1 0 0 1 9 22 )" class="stroke" mask="url(#Clip266)" />
    <path d="M 6.139582739935982 0.7487695244967604  C 6.139582739935982 0.7487695244967604  6.139582739935982 0.7536944331694704  6.139582739935982 0.7536944331694704  C 6.090971628824869 0.7536944331694704  6.052083927310175 0.7389167004915889  6.013195037841797 0.714286143808536  C 5.977150674495432 0.6898640934004758  5.948533698916435 0.6557475912662172  5.930555555555555 0.615763917076324  C 5.911111110821366 0.5763550257962011  5.901388592190212 0.527094214857785  5.901388592190212 0.472906988980592  C 5.901388592190212 0.41871976310339903  5.911111110821366 0.3694586497372931  5.930555555555555 0.32512364888227424  C 5.950000000289744 0.28571475760215126  5.979167260643509 0.2512319788331154  6.013195037841797 0.22660142215006238  C 6.052083927310175 0.2068969765100009  6.095832741094959 0.19211804146183797  6.139582739935982 0.19211804146183797  C 6.188193851047092 0.19211804146183797  6.231944148325258 0.20689727746959516  6.265971925523546 0.2315278341526481  C 6.304860814991924 0.2512322797927096  6.329167260064018 0.28078894751875405  6.353472815619575 0.33005006088485994  C 6.3729172603537645 0.3694589521649829  6.382638295491537 0.41871976310339903  6.382638295491537 0.472906988980592  C 6.382638295491537 0.527094214857785  6.3729172603537645 0.5763553282238909  6.353472815619575 0.6206903290789098  C 6.329167260064018 0.6600992203590328  6.304860814991924 0.6945819991280686  6.265971925523546 0.7192125558111216  C 6.231944148325258 0.7389170014511831  6.188193851047092 0.7487695244967604  6.139582739935982 0.7487695244967604  Z " stroke-width="0" stroke-dasharray="0" stroke="rgba(121, 121, 121, 1)" fill="none" transform="matrix(1 0 0 1 9 22 )" class="stroke" mask="url(#Clip266)" />
    <path d="M 6.052083333333334 0.6453208857619628  C 6.076388888888889 0.6650253314020242  6.100693850467602 0.6748778544476014  6.139582739935982 0.6748778544476014  C 6.17847162940436 0.6748778544476014  6.2076394822862415 0.6650253314020242  6.231945037841797 0.6453208857619628  C 6.256250593397352 0.6305425511648928  6.270833926585814 0.6059119944818397  6.280556148952908 0.5714292157128038  C 6.303197543654177 0.507751468330477  6.303197543654177 0.43806250963070703  6.280556148952908 0.3743847622483802  C 6.270833926585814 0.33990198347934425  6.256250593397352 0.31527112583669703  6.231945037841797 0.29556668019663557  C 6.2076394822862415 0.27586223455657405  6.17847162940436 0.2709361235135826  6.139582739935982 0.2709361235135826  C 6.105554962737692 0.2709361235135826  6.076388888888889 0.27586223455657405  6.052083333333334 0.29556668019663557  C 6.027777777777779 0.31527112583669703  6.008333333405769 0.3448280930542401  6.003472222222221 0.3743847622483802  C 5.980415197296274 0.43798827097333093  5.980415197296274 0.5078257069878531  6.003472222222221 0.5714292157128038  C 6.008333333405769 0.6059119944818397  6.027777777777779 0.6305425511648928  6.052083333333334 0.6453208857619628  Z " stroke-width="0" stroke-dasharray="0" stroke="rgba(121, 121, 121, 1)" fill="none" transform="matrix(1 0 0 1 9 22 )" class="stroke" mask="url(#Clip266)" />
    <path d="M 6.606249703301323 0.33497496955757  C 6.5916663693885 0.359605526240623  6.586805555555555 0.3842363824151746  6.586805555555555 0.4137930516093146  C 6.586805555555555 0.4137930516093146  6.586805555555555 0.7389167004915889  6.586805555555555 0.7389167004915889  L 6.504166073269314 0.7389167004915889  L 6.504166073269314 0.1970444534644237  L 6.586805555555555 0.1970444534644237  L 6.586805555555555 0.2857138561914641  C 6.586805555555555 0.2857138561914641  6.591666963365343 0.2857138561914641  6.591666963365343 0.2857138561914641  C 6.606250297278166 0.2561571869973241  6.620832738777002 0.23645334474454668  6.649999406602648 0.22167501014747665  C 6.674304962158203 0.20197056450741518  6.708332739356491 0.19211804146183797  6.747221628824869 0.19211804146183797  C 6.78119604372316 0.19157897204160243  6.814716758827368 0.20007120703999984  6.844443851047092 0.21674859814489095  C 6.868749406602648 0.23152693274196096  6.888194443864954 0.2561571869973241  6.902777777777779 0.2857138561914641  C 6.917361111690601 0.31527052538560413  6.927083333333334 0.3497542055653272  6.927083333333334 0.3990153189314331  C 6.927083333333334 0.3990153189314331  6.927083333333334 0.7389167004915889  6.927083333333334 0.7389167004915889  L 6.844443851047092 0.7389167004915889  C 6.844443851047092 0.7389167004915889  6.844443851047092 0.40394173093401886  6.844443851047092 0.40394173093401886  C 6.844443851047092 0.35960673007899996  6.834722518920898 0.33005006088485994  6.810416963365343 0.305419504201807  C 6.790972518631154 0.28078894751875405  6.761804962737692 0.2709361235135826  6.722916073269314 0.2709361235135826  C 6.699386363021201 0.27022387506111684  6.676036504614684 0.27529378354304784  6.6548608144124355 0.2857138561914641  C 6.63055525885688 0.29556607901149484  6.615971925668418 0.31527052391750854  6.606249703301323 0.33497496955757  Z " stroke-width="0" stroke-dasharray="0" stroke="rgba(121, 121, 121, 1)" fill="none" transform="matrix(1 0 0 1 9 22 )" class="stroke" mask="url(#Clip266)" />
    <path d="M 0 1  L 0 0.9359611539560125  L 7 0.9359611539560125  L 7 1  L 0 1  Z " stroke-width="0" stroke-dasharray="0" stroke="rgba(121, 121, 121, 1)" fill="none" transform="matrix(1 0 0 1 9 22 )" class="stroke" mask="url(#Clip266)" />
  </g>
</svg>