<?xml version="1.0" encoding="utf-8"?>
<svg version="1.1" xmlns:xlink="http://www.w3.org/1999/xlink" width="8px" height="9px" xmlns="http://www.w3.org/2000/svg">
  <defs>
    <pattern id="BGPattern" patternUnits="userSpaceOnUse" alignment="0 0" imageRepeat="None" />
    <mask fill="white" id="Clip269">
      <path d="M 5.497076023391813 9  L 2.502923976608187 9  L 2.502923976608187 8.5078125  L 0 8.5078125  L 0 7.5  L 0.5146198830409356 7.5  C 0.5146198830409356 7.5  0.5146198830409356 1.0078125  0.5146198830409356 1.0078125  C 0.5146198830409356 0.7265625  0.6120857774165639 0.4882812425494194  0.8070175438596491 0.29296875  C 1.0019493103027344 0.0976562574505806  1.2319688183522364 0  1.4970760233918128 0  C 1.4970760233918128 0  6.502923976608187 0  6.502923976608187 0  C 6.768031181647763 0  6.998050689697266 0.0976562574505806  7.192982456140351 0.29296875  C 7.387914222583436 0.4882812425494194  7.485380116959064 0.7265625  7.485380116959064 1.0078125  C 7.485380116959064 1.0078125  7.485380116959064 7.5  7.485380116959064 7.5  L 8 7.5  L 8 8.5078125  L 5.497076023391813 8.5078125  L 5.497076023391813 9  Z M 2.502923976608187 1.9921875  L 2.502923976608187 6.4921875  L 3.508771929824561 6.4921875  L 3.508771929824561 1.9921875  L 2.502923976608187 1.9921875  Z M 4.491228070175438 1.9921875  L 4.491228070175438 6.4921875  L 5.497076023391813 6.4921875  L 5.497076023391813 1.9921875  L 4.491228070175438 1.9921875  Z " fill-rule="evenodd" />
    </mask>
  </defs>
  <g transform="matrix(1 0 0 1 -2 -4 )">
    <path d="M 5.497076023391813 9  L 2.502923976608187 9  L 2.502923976608187 8.5078125  L 0 8.5078125  L 0 7.5  L 0.5146198830409356 7.5  C 0.5146198830409356 7.5  0.5146198830409356 1.0078125  0.5146198830409356 1.0078125  C 0.5146198830409356 0.7265625  0.6120857774165639 0.4882812425494194  0.8070175438596491 0.29296875  C 1.0019493103027344 0.0976562574505806  1.2319688183522364 0  1.4970760233918128 0  C 1.4970760233918128 0  6.502923976608187 0  6.502923976608187 0  C 6.768031181647763 0  6.998050689697266 0.0976562574505806  7.192982456140351 0.29296875  C 7.387914222583436 0.4882812425494194  7.485380116959064 0.7265625  7.485380116959064 1.0078125  C 7.485380116959064 1.0078125  7.485380116959064 7.5  7.485380116959064 7.5  L 8 7.5  L 8 8.5078125  L 5.497076023391813 8.5078125  L 5.497076023391813 9  Z M 2.502923976608187 1.9921875  L 2.502923976608187 6.4921875  L 3.508771929824561 6.4921875  L 3.508771929824561 1.9921875  L 2.502923976608187 1.9921875  Z M 4.491228070175438 1.9921875  L 4.491228070175438 6.4921875  L 5.497076023391813 6.4921875  L 5.497076023391813 1.9921875  L 4.491228070175438 1.9921875  Z " fill-rule="nonzero" fill="rgba(255, 255, 255, 1)" stroke="none" transform="matrix(1 0 0 1 2 4 )" class="fill" />
    <path d="M 5.497076023391813 9  L 2.502923976608187 9  L 2.502923976608187 8.5078125  L 0 8.5078125  L 0 7.5  L 0.5146198830409356 7.5  C 0.5146198830409356 7.5  0.5146198830409356 1.0078125  0.5146198830409356 1.0078125  C 0.5146198830409356 0.7265625  0.6120857774165639 0.4882812425494194  0.8070175438596491 0.29296875  C 1.0019493103027344 0.0976562574505806  1.2319688183522364 0  1.4970760233918128 0  C 1.4970760233918128 0  6.502923976608187 0  6.502923976608187 0  C 6.768031181647763 0  6.998050689697266 0.0976562574505806  7.192982456140351 0.29296875  C 7.387914222583436 0.4882812425494194  7.485380116959064 0.7265625  7.485380116959064 1.0078125  C 7.485380116959064 1.0078125  7.485380116959064 7.5  7.485380116959064 7.5  L 8 7.5  L 8 8.5078125  L 5.497076023391813 8.5078125  L 5.497076023391813 9  Z " stroke-width="0" stroke-dasharray="0" stroke="rgba(121, 121, 121, 1)" fill="none" transform="matrix(1 0 0 1 2 4 )" class="stroke" mask="url(#Clip269)" />
    <path d="M 2.502923976608187 1.9921875  L 2.502923976608187 6.4921875  L 3.508771929824561 6.4921875  L 3.508771929824561 1.9921875  L 2.502923976608187 1.9921875  Z " stroke-width="0" stroke-dasharray="0" stroke="rgba(121, 121, 121, 1)" fill="none" transform="matrix(1 0 0 1 2 4 )" class="stroke" mask="url(#Clip269)" />
    <path d="M 4.491228070175438 1.9921875  L 4.491228070175438 6.4921875  L 5.497076023391813 6.4921875  L 5.497076023391813 1.9921875  L 4.491228070175438 1.9921875  Z " stroke-width="0" stroke-dasharray="0" stroke="rgba(121, 121, 121, 1)" fill="none" transform="matrix(1 0 0 1 2 4 )" class="stroke" mask="url(#Clip269)" />
  </g>
</svg>