<?xml version="1.0" encoding="utf-8"?>
<svg version="1.1" xmlns:xlink="http://www.w3.org/1999/xlink" width="12px" height="12px" xmlns="http://www.w3.org/2000/svg">
  <defs>
    <pattern id="BGPattern" patternUnits="userSpaceOnUse" alignment="0 0" imageRepeat="None" />
    <mask fill="white" id="Clip258">
      <path d="M 6.007802340702211 12  C 6.1638491547464245 12  6.293888168930232 11.979591837951116  6.397919375812744 11.938775510204081  C 7.063719135577099 11.63265306122449  8.06241868593293 11.173469387755102  9.394018205461638 10.561224489795919  C 9.394018205461638 10.561224489795919  11.797139141742523 9.459183673469386  11.797139141742523 9.459183673469386  C 11.921976592977893 9.39795918367347  11.98439531859558 9.331632650628382  11.98439531859558 9.260204081632653  C 11.98439531859558 9.188775512636925  11.921976592977893 9.13265306244091  11.797139141742523 9.091836734693878  C 11.797139141742523 9.091836734693878  6.397919375812744 6.612244897959183  6.397919375812744 6.612244897959183  C 6.1274382215482515 6.4897959183673475  5.856957097047327 6.4897959183673475  5.586475942782835 6.612244897959183  C 5.586475942782835 6.612244897959183  0.18725617685305593 9.091836734693878  0.18725617685305593 9.091836734693878  C 0.06241872561768531 9.13265306244091  0 9.188775512636925  0 9.260204081632653  C 0 9.331632650628382  0.05201560716170173 9.39795918367347  0.15604681404421325 9.459183673469386  C 0.15604681404421325 9.459183673469386  5.617685305591677 11.938775510204081  5.617685305591677 11.938775510204081  C 5.721716512474189 11.979591837951116  5.851755526657997 12  6.007802340702211 12  Z M 6.4291287386215865 0.12244897959183673  C 6.262678798680497 0.0408163240977696  6.11703511053316 0  5.99219765929779 0  C 5.929778933680104 0  5.836150845253576 0.0204081620488848  5.711313394018205 0.061224489795918366  C 5.711313394018205 0.061224489795918366  5.586475942782835 0.12244897959183673  5.586475942782835 0.12244897959183673  C 5.586475942782835 0.12244897959183673  0.15604681404421325 2.571428571428571  0.15604681404421325 2.571428571428571  C 0.05201560716170173 2.63265306122449  0 2.6989795942695776  0 2.770408163265306  C 0 2.8418367322610347  0.06241872561768531 2.897959182457048  0.18725617685305593 2.9387755102040813  C 0.18725617685305593 2.9387755102040813  1.1235370611183355 3.3979591836734695  1.1235370611183355 3.3979591836734695  C 1.414824437413011 3.5204081632653064  1.7061118434712543 3.5102040767669678  1.9973992197659298 3.36734693877551  C 1.9973992197659298 3.36734693877551  5.555266579973992 1.7448979591836733  5.555266579973992 1.7448979591836733  C 5.846553956268668 1.6224489795918369  6.1378413623269115 1.6224489795918369  6.4291287386215865 1.7448979591836733  C 6.4291287386215865 1.7448979591836733  9.986996098829648 3.3979591836734695  9.986996098829648 3.3979591836734695  C 10.278283475124324 3.5204081632653064  10.569570881182567 3.5204081632653064  10.860858257477243 3.3979591836734695  C 10.860858257477243 3.3979591836734695  11.797139141742523 2.9693877551020407  11.797139141742523 2.9693877551020407  C 11.838751626727795 2.9489795912285244  11.880364107992621 2.9183673481551966  11.921976592977893 2.877551020408163  C 11.963589077963166 2.8367346926611297  11.98439531859558 2.79591836856336  11.98439531859558 2.7551020408163267  C 11.98439531859558 2.714285713069293  11.963589077963166 2.678571428571429  11.921976592977893 2.6479591836734695  C 11.880364107992621 2.61734693877551  11.828348504551366 2.5816326542776458  11.76592977893368 2.5408163265306123  C 10.746423887493396 2.071428581159942  9.22756819111163 1.3775510204081634  7.209362808842653 0.45918367346938777  C 7.209362808842653 0.45918367346938777  6.4291287386215865 0.12244897959183673  6.4291287386215865 0.12244897959183673  Z M 6.397919375812744 3.36734693877551  C 6.231469435871655 3.2857142832814428  6.096228866180301 3.2448979591836737  5.99219765929779 3.2448979591836737  C 5.9089726893272445 3.2448979591836737  5.763328993739015 3.2857142832814428  5.555266579973992 3.36734693877551  C 5.555266579973992 3.36734693877551  0.18725617685305593 5.816326530612245  0.18725617685305593 5.816326530612245  C 0.06241872561768531 5.877551020408163  0 5.943877553453251  0 6.01530612244898  C 0 6.086734691444708  0.06241872561768531 6.153061224489796  0.18725617685305593 6.214285714285715  C 0.18725617685305593 6.214285714285715  1.1235370611183355 6.642857142857143  1.1235370611183355 6.642857142857143  C 1.414824437413011 6.76530612244898  1.7061118434712543 6.7551020359506415  1.9973992197659298 6.612244897959183  C 1.9973992197659298 6.612244897959183  5.586475942782835 4.989795918367347  5.586475942782835 4.989795918367347  C 5.856957097047327 4.86734693877551  6.1274382215482515 4.86734693877551  6.397919375812744 4.989795918367347  C 6.397919375812744 4.989795918367347  10.018205461638491 6.642857142857143  10.018205461638491 6.642857142857143  C 10.288686615902984 6.76530612244898  10.569570881182567 6.76530612244898  10.860858257477243 6.642857142857143  C 10.860858257477243 6.642857142857143  11.797139141742523 6.214285714285715  11.797139141742523 6.214285714285715  C 11.797139141742523 6.214285714285715  11.921976592977893 6.153061224489796  11.921976592977893 6.153061224489796  C 12.026007799860405 6.07142856899573  12.026007799860405 5.979591834301852  11.921976592977893 5.877551020408163  C 11.921976592977893 5.877551020408163  11.797139141742523 5.816326530612245  11.797139141742523 5.816326530612245  C 10.36150845253576 5.163265286659708  8.561768609928682 4.346938775510204  6.397919375812744 3.36734693877551  Z " fill-rule="evenodd" />
    </mask>
  </defs>
  <g transform="matrix(1 0 0 1 -2 -6 )">
    <path d="M 6.007802340702211 12  C 6.1638491547464245 12  6.293888168930232 11.979591837951116  6.397919375812744 11.938775510204081  C 7.063719135577099 11.63265306122449  8.06241868593293 11.173469387755102  9.394018205461638 10.561224489795919  C 9.394018205461638 10.561224489795919  11.797139141742523 9.459183673469386  11.797139141742523 9.459183673469386  C 11.921976592977893 9.39795918367347  11.98439531859558 9.331632650628382  11.98439531859558 9.260204081632653  C 11.98439531859558 9.188775512636925  11.921976592977893 9.13265306244091  11.797139141742523 9.091836734693878  C 11.797139141742523 9.091836734693878  6.397919375812744 6.612244897959183  6.397919375812744 6.612244897959183  C 6.1274382215482515 6.4897959183673475  5.856957097047327 6.4897959183673475  5.586475942782835 6.612244897959183  C 5.586475942782835 6.612244897959183  0.18725617685305593 9.091836734693878  0.18725617685305593 9.091836734693878  C 0.06241872561768531 9.13265306244091  0 9.188775512636925  0 9.260204081632653  C 0 9.331632650628382  0.05201560716170173 9.39795918367347  0.15604681404421325 9.459183673469386  C 0.15604681404421325 9.459183673469386  5.617685305591677 11.938775510204081  5.617685305591677 11.938775510204081  C 5.721716512474189 11.979591837951116  5.851755526657997 12  6.007802340702211 12  Z M 6.4291287386215865 0.12244897959183673  C 6.262678798680497 0.0408163240977696  6.11703511053316 0  5.99219765929779 0  C 5.929778933680104 0  5.836150845253576 0.0204081620488848  5.711313394018205 0.061224489795918366  C 5.711313394018205 0.061224489795918366  5.586475942782835 0.12244897959183673  5.586475942782835 0.12244897959183673  C 5.586475942782835 0.12244897959183673  0.15604681404421325 2.571428571428571  0.15604681404421325 2.571428571428571  C 0.05201560716170173 2.63265306122449  0 2.6989795942695776  0 2.770408163265306  C 0 2.8418367322610347  0.06241872561768531 2.897959182457048  0.18725617685305593 2.9387755102040813  C 0.18725617685305593 2.9387755102040813  1.1235370611183355 3.3979591836734695  1.1235370611183355 3.3979591836734695  C 1.414824437413011 3.5204081632653064  1.7061118434712543 3.5102040767669678  1.9973992197659298 3.36734693877551  C 1.9973992197659298 3.36734693877551  5.555266579973992 1.7448979591836733  5.555266579973992 1.7448979591836733  C 5.846553956268668 1.6224489795918369  6.1378413623269115 1.6224489795918369  6.4291287386215865 1.7448979591836733  C 6.4291287386215865 1.7448979591836733  9.986996098829648 3.3979591836734695  9.986996098829648 3.3979591836734695  C 10.278283475124324 3.5204081632653064  10.569570881182567 3.5204081632653064  10.860858257477243 3.3979591836734695  C 10.860858257477243 3.3979591836734695  11.797139141742523 2.9693877551020407  11.797139141742523 2.9693877551020407  C 11.838751626727795 2.9489795912285244  11.880364107992621 2.9183673481551966  11.921976592977893 2.877551020408163  C 11.963589077963166 2.8367346926611297  11.98439531859558 2.79591836856336  11.98439531859558 2.7551020408163267  C 11.98439531859558 2.714285713069293  11.963589077963166 2.678571428571429  11.921976592977893 2.6479591836734695  C 11.880364107992621 2.61734693877551  11.828348504551366 2.5816326542776458  11.76592977893368 2.5408163265306123  C 10.746423887493396 2.071428581159942  9.22756819111163 1.3775510204081634  7.209362808842653 0.45918367346938777  C 7.209362808842653 0.45918367346938777  6.4291287386215865 0.12244897959183673  6.4291287386215865 0.12244897959183673  Z M 6.397919375812744 3.36734693877551  C 6.231469435871655 3.2857142832814428  6.096228866180301 3.2448979591836737  5.99219765929779 3.2448979591836737  C 5.9089726893272445 3.2448979591836737  5.763328993739015 3.2857142832814428  5.555266579973992 3.36734693877551  C 5.555266579973992 3.36734693877551  0.18725617685305593 5.816326530612245  0.18725617685305593 5.816326530612245  C 0.06241872561768531 5.877551020408163  0 5.943877553453251  0 6.01530612244898  C 0 6.086734691444708  0.06241872561768531 6.153061224489796  0.18725617685305593 6.214285714285715  C 0.18725617685305593 6.214285714285715  1.1235370611183355 6.642857142857143  1.1235370611183355 6.642857142857143  C 1.414824437413011 6.76530612244898  1.7061118434712543 6.7551020359506415  1.9973992197659298 6.612244897959183  C 1.9973992197659298 6.612244897959183  5.586475942782835 4.989795918367347  5.586475942782835 4.989795918367347  C 5.856957097047327 4.86734693877551  6.1274382215482515 4.86734693877551  6.397919375812744 4.989795918367347  C 6.397919375812744 4.989795918367347  10.018205461638491 6.642857142857143  10.018205461638491 6.642857142857143  C 10.288686615902984 6.76530612244898  10.569570881182567 6.76530612244898  10.860858257477243 6.642857142857143  C 10.860858257477243 6.642857142857143  11.797139141742523 6.214285714285715  11.797139141742523 6.214285714285715  C 11.797139141742523 6.214285714285715  11.921976592977893 6.153061224489796  11.921976592977893 6.153061224489796  C 12.026007799860405 6.07142856899573  12.026007799860405 5.979591834301852  11.921976592977893 5.877551020408163  C 11.921976592977893 5.877551020408163  11.797139141742523 5.816326530612245  11.797139141742523 5.816326530612245  C 10.36150845253576 5.163265286659708  8.561768609928682 4.346938775510204  6.397919375812744 3.36734693877551  Z " fill-rule="nonzero" fill="rgba(255, 255, 255, 1)" stroke="none" transform="matrix(1 0 0 1 2 6 )" class="fill" />
    <path d="M 6.007802340702211 12  C 6.1638491547464245 12  6.293888168930232 11.979591837951116  6.397919375812744 11.938775510204081  C 7.063719135577099 11.63265306122449  8.06241868593293 11.173469387755102  9.394018205461638 10.561224489795919  C 9.394018205461638 10.561224489795919  11.797139141742523 9.459183673469386  11.797139141742523 9.459183673469386  C 11.921976592977893 9.39795918367347  11.98439531859558 9.331632650628382  11.98439531859558 9.260204081632653  C 11.98439531859558 9.188775512636925  11.921976592977893 9.13265306244091  11.797139141742523 9.091836734693878  C 11.797139141742523 9.091836734693878  6.397919375812744 6.612244897959183  6.397919375812744 6.612244897959183  C 6.1274382215482515 6.4897959183673475  5.856957097047327 6.4897959183673475  5.586475942782835 6.612244897959183  C 5.586475942782835 6.612244897959183  0.18725617685305593 9.091836734693878  0.18725617685305593 9.091836734693878  C 0.06241872561768531 9.13265306244091  0 9.188775512636925  0 9.260204081632653  C 0 9.331632650628382  0.05201560716170173 9.39795918367347  0.15604681404421325 9.459183673469386  C 0.15604681404421325 9.459183673469386  5.617685305591677 11.938775510204081  5.617685305591677 11.938775510204081  C 5.721716512474189 11.979591837951116  5.851755526657997 12  6.007802340702211 12  Z " stroke-width="0" stroke-dasharray="0" stroke="rgba(121, 121, 121, 1)" fill="none" transform="matrix(1 0 0 1 2 6 )" class="stroke" mask="url(#Clip258)" />
    <path d="M 6.4291287386215865 0.12244897959183673  C 6.262678798680497 0.0408163240977696  6.11703511053316 0  5.99219765929779 0  C 5.929778933680104 0  5.836150845253576 0.0204081620488848  5.711313394018205 0.061224489795918366  C 5.711313394018205 0.061224489795918366  5.586475942782835 0.12244897959183673  5.586475942782835 0.12244897959183673  C 5.586475942782835 0.12244897959183673  0.15604681404421325 2.571428571428571  0.15604681404421325 2.571428571428571  C 0.05201560716170173 2.63265306122449  0 2.6989795942695776  0 2.770408163265306  C 0 2.8418367322610347  0.06241872561768531 2.897959182457048  0.18725617685305593 2.9387755102040813  C 0.18725617685305593 2.9387755102040813  1.1235370611183355 3.3979591836734695  1.1235370611183355 3.3979591836734695  C 1.414824437413011 3.5204081632653064  1.7061118434712543 3.5102040767669678  1.9973992197659298 3.36734693877551  C 1.9973992197659298 3.36734693877551  5.555266579973992 1.7448979591836733  5.555266579973992 1.7448979591836733  C 5.846553956268668 1.6224489795918369  6.1378413623269115 1.6224489795918369  6.4291287386215865 1.7448979591836733  C 6.4291287386215865 1.7448979591836733  9.986996098829648 3.3979591836734695  9.986996098829648 3.3979591836734695  C 10.278283475124324 3.5204081632653064  10.569570881182567 3.5204081632653064  10.860858257477243 3.3979591836734695  C 10.860858257477243 3.3979591836734695  11.797139141742523 2.9693877551020407  11.797139141742523 2.9693877551020407  C 11.838751626727795 2.9489795912285244  11.880364107992621 2.9183673481551966  11.921976592977893 2.877551020408163  C 11.963589077963166 2.8367346926611297  11.98439531859558 2.79591836856336  11.98439531859558 2.7551020408163267  C 11.98439531859558 2.714285713069293  11.963589077963166 2.678571428571429  11.921976592977893 2.6479591836734695  C 11.880364107992621 2.61734693877551  11.828348504551366 2.5816326542776458  11.76592977893368 2.5408163265306123  C 10.746423887493396 2.071428581159942  9.22756819111163 1.3775510204081634  7.209362808842653 0.45918367346938777  C 7.209362808842653 0.45918367346938777  6.4291287386215865 0.12244897959183673  6.4291287386215865 0.12244897959183673  Z " stroke-width="0" stroke-dasharray="0" stroke="rgba(121, 121, 121, 1)" fill="none" transform="matrix(1 0 0 1 2 6 )" class="stroke" mask="url(#Clip258)" />
    <path d="M 6.397919375812744 3.36734693877551  C 6.231469435871655 3.2857142832814428  6.096228866180301 3.2448979591836737  5.99219765929779 3.2448979591836737  C 5.9089726893272445 3.2448979591836737  5.763328993739015 3.2857142832814428  5.555266579973992 3.36734693877551  C 5.555266579973992 3.36734693877551  0.18725617685305593 5.816326530612245  0.18725617685305593 5.816326530612245  C 0.06241872561768531 5.877551020408163  0 5.943877553453251  0 6.01530612244898  C 0 6.086734691444708  0.06241872561768531 6.153061224489796  0.18725617685305593 6.214285714285715  C 0.18725617685305593 6.214285714285715  1.1235370611183355 6.642857142857143  1.1235370611183355 6.642857142857143  C 1.414824437413011 6.76530612244898  1.7061118434712543 6.7551020359506415  1.9973992197659298 6.612244897959183  C 1.9973992197659298 6.612244897959183  5.586475942782835 4.989795918367347  5.586475942782835 4.989795918367347  C 5.856957097047327 4.86734693877551  6.1274382215482515 4.86734693877551  6.397919375812744 4.989795918367347  C 6.397919375812744 4.989795918367347  10.018205461638491 6.642857142857143  10.018205461638491 6.642857142857143  C 10.288686615902984 6.76530612244898  10.569570881182567 6.76530612244898  10.860858257477243 6.642857142857143  C 10.860858257477243 6.642857142857143  11.797139141742523 6.214285714285715  11.797139141742523 6.214285714285715  C 11.797139141742523 6.214285714285715  11.921976592977893 6.153061224489796  11.921976592977893 6.153061224489796  C 12.026007799860405 6.07142856899573  12.026007799860405 5.979591834301852  11.921976592977893 5.877551020408163  C 11.921976592977893 5.877551020408163  11.797139141742523 5.816326530612245  11.797139141742523 5.816326530612245  C 10.36150845253576 5.163265286659708  8.561768609928682 4.346938775510204  6.397919375812744 3.36734693877551  Z " stroke-width="0" stroke-dasharray="0" stroke="rgba(121, 121, 121, 1)" fill="none" transform="matrix(1 0 0 1 2 6 )" class="stroke" mask="url(#Clip258)" />
  </g>
</svg>