<?xml version="1.0" encoding="utf-8"?>
<svg version="1.1" xmlns:xlink="http://www.w3.org/1999/xlink" width="20px" height="20px" xmlns="http://www.w3.org/2000/svg">
  <defs>
    <pattern id="BGPattern" patternUnits="userSpaceOnUse" alignment="0 0" imageRepeat="None" />
    <mask fill="white" id="Clip263">
      <path d="M 0 2.0962363639562236  C 0 0.9385169648806491  0.9385169648806491 0  2.0962363639562236 0  C 2.0962363639562236 0  17.903763636043774 0  17.903763636043774 0  C 19.06148303511935 0  20 0.9385169648806491  20 2.0962363639562236  C 20 2.0962363639562236  20 17.903763636043774  20 17.903763636043774  C 20 19.06148303511935  19.06148303511935 20  17.903763636043774 20  C 17.903763636043774 20  2.0962363639562236 20  2.0962363639562236 20  C 0.9385169648806491 20  0 19.06148303511935  0 17.903763636043774  C 0 17.903763636043774  0 2.0962363639562236  0 2.0962363639562236  Z " fill-rule="evenodd" />
    </mask>
  </defs>
  <g transform="matrix(1 0 0 1 -2 -17 )">
    <path d="M 0 2.0962363639562236  C 0 0.9385169648806491  0.9385169648806491 0  2.0962363639562236 0  C 2.0962363639562236 0  17.903763636043774 0  17.903763636043774 0  C 19.06148303511935 0  20 0.9385169648806491  20 2.0962363639562236  C 20 2.0962363639562236  20 17.903763636043774  20 17.903763636043774  C 20 19.06148303511935  19.06148303511935 20  17.903763636043774 20  C 17.903763636043774 20  2.0962363639562236 20  2.0962363639562236 20  C 0.9385169648806491 20  0 19.06148303511935  0 17.903763636043774  C 0 17.903763636043774  0 2.0962363639562236  0 2.0962363639562236  Z " fill-rule="nonzero" fill="rgba(186, 186, 186, 1)" stroke="none" transform="matrix(1 0 0 1 2 17 )" class="fill" />
    <path d="M 0 2.0962363639562236  C 0 0.9385169648806491  0.9385169648806491 0  2.0962363639562236 0  C 2.0962363639562236 0  17.903763636043774 0  17.903763636043774 0  C 19.06148303511935 0  20 0.9385169648806491  20 2.0962363639562236  C 20 2.0962363639562236  20 17.903763636043774  20 17.903763636043774  C 20 19.06148303511935  19.06148303511935 20  17.903763636043774 20  C 17.903763636043774 20  2.0962363639562236 20  2.0962363639562236 20  C 0.9385169648806491 20  0 19.06148303511935  0 17.903763636043774  C 0 17.903763636043774  0 2.0962363639562236  0 2.0962363639562236  Z " stroke-width="0" stroke-dasharray="0" stroke="rgba(121, 121, 121, 1)" fill="none" transform="matrix(1 0 0 1 2 17 )" class="stroke" mask="url(#Clip263)" />
  </g>
</svg>