<?xml version="1.0" encoding="utf-8"?>
<svg version="1.1" xmlns:xlink="http://www.w3.org/1999/xlink" width="14px" height="12px" xmlns="http://www.w3.org/2000/svg">
  <defs>
    <pattern id="BGPattern" patternUnits="userSpaceOnUse" alignment="0 0" imageRepeat="None" />
    <mask fill="white" id="Clip260">
      <path d="M 0.796875 9  C 0.265625 8.083333313465118  0 7.083333373069763  0 6  C 0 4.916666626930237  0.265625 3.9166666865348816  0.796875 3  C 1.328125 2.0833333134651184  2.0572916865348816 1.3541666865348816  2.984375 0.8125  C 3.9114583134651184 0.2708333134651184  4.916666626930237 0  6 0  C 6.791666686534882 0  7.557291686534882 0.1510416567325592  8.296875 0.453125  C 9.036458313465118 0.7552083432674408  9.6875 1.1770833134651184  10.25 1.71875  C 10.25 1.71875  9.25 2.71875  9.25 2.71875  C 8.83333334326744 2.28125  8.34375 1.9427083283662796  7.78125 1.703125  C 7.21875 1.4635416716337204  6.625 1.34375  6 1.34375  C 5 1.34375  4.104166686534882 1.6145833134651184  3.3125 2.15625  C 2.5833333134651184 2.6770833134651184  2.041666656732559 3.3645833134651184  1.6875 4.21875  C 1.3333333432674408 5.072916686534882  1.2291666716337204 5.9375  1.375 6.8125  C 1.5416666716337204 7.770833313465118  1.9791666865348816 8.604166686534882  2.6875 9.3125  C 3.3958333134651184 10.020833313465118  4.229166686534882 10.44791667163372  5.1875 10.59375  C 6.0625 10.76041667163372  6.927083313465118 10.66666665673256  7.78125 10.3125  C 8.635416686534882 9.95833334326744  9.3125 9.416666686534882  9.8125 8.6875  C 10.375 7.895833313465118  10.65625 7  10.65625 6  C 10.65625 6  8.65625 6  8.65625 6  L 11.3125 3.34375  L 11.375 3.34375  L 14 6  C 14 6  12 6  12 6  C 12 7.083333373069763  11.729166686534882 8.083333313465118  11.1875 9  C 10.645833313465118 9.916666686534882  9.916666686534882 10.645833313465118  9 11.1875  C 8.083333313465118 11.729166686534882  7.083333373069763 12  6 12  C 4.916666626930237 12  3.9114583134651184 11.729166686534882  2.984375 11.1875  C 2.0572916865348816 10.645833313465118  1.328125 9.916666686534882  0.796875 9  Z " fill-rule="evenodd" />
    </mask>
  </defs>
  <g transform="matrix(1 0 0 1 -1 -6 )">
    <path d="M 0.796875 9  C 0.265625 8.083333313465118  0 7.083333373069763  0 6  C 0 4.916666626930237  0.265625 3.9166666865348816  0.796875 3  C 1.328125 2.0833333134651184  2.0572916865348816 1.3541666865348816  2.984375 0.8125  C 3.9114583134651184 0.2708333134651184  4.916666626930237 0  6 0  C 6.791666686534882 0  7.557291686534882 0.1510416567325592  8.296875 0.453125  C 9.036458313465118 0.7552083432674408  9.6875 1.1770833134651184  10.25 1.71875  C 10.25 1.71875  9.25 2.71875  9.25 2.71875  C 8.83333334326744 2.28125  8.34375 1.9427083283662796  7.78125 1.703125  C 7.21875 1.4635416716337204  6.625 1.34375  6 1.34375  C 5 1.34375  4.104166686534882 1.6145833134651184  3.3125 2.15625  C 2.5833333134651184 2.6770833134651184  2.041666656732559 3.3645833134651184  1.6875 4.21875  C 1.3333333432674408 5.072916686534882  1.2291666716337204 5.9375  1.375 6.8125  C 1.5416666716337204 7.770833313465118  1.9791666865348816 8.604166686534882  2.6875 9.3125  C 3.3958333134651184 10.020833313465118  4.229166686534882 10.44791667163372  5.1875 10.59375  C 6.0625 10.76041667163372  6.927083313465118 10.66666665673256  7.78125 10.3125  C 8.635416686534882 9.95833334326744  9.3125 9.416666686534882  9.8125 8.6875  C 10.375 7.895833313465118  10.65625 7  10.65625 6  C 10.65625 6  8.65625 6  8.65625 6  L 11.3125 3.34375  L 11.375 3.34375  L 14 6  C 14 6  12 6  12 6  C 12 7.083333373069763  11.729166686534882 8.083333313465118  11.1875 9  C 10.645833313465118 9.916666686534882  9.916666686534882 10.645833313465118  9 11.1875  C 8.083333313465118 11.729166686534882  7.083333373069763 12  6 12  C 4.916666626930237 12  3.9114583134651184 11.729166686534882  2.984375 11.1875  C 2.0572916865348816 10.645833313465118  1.328125 9.916666686534882  0.796875 9  Z " fill-rule="nonzero" fill="rgba(0, 0, 0, 1)" stroke="none" transform="matrix(1 0 0 1 1 6 )" class="fill" />
    <path d="M 0.796875 9  C 0.265625 8.083333313465118  0 7.083333373069763  0 6  C 0 4.916666626930237  0.265625 3.9166666865348816  0.796875 3  C 1.328125 2.0833333134651184  2.0572916865348816 1.3541666865348816  2.984375 0.8125  C 3.9114583134651184 0.2708333134651184  4.916666626930237 0  6 0  C 6.791666686534882 0  7.557291686534882 0.1510416567325592  8.296875 0.453125  C 9.036458313465118 0.7552083432674408  9.6875 1.1770833134651184  10.25 1.71875  C 10.25 1.71875  9.25 2.71875  9.25 2.71875  C 8.83333334326744 2.28125  8.34375 1.9427083283662796  7.78125 1.703125  C 7.21875 1.4635416716337204  6.625 1.34375  6 1.34375  C 5 1.34375  4.104166686534882 1.6145833134651184  3.3125 2.15625  C 2.5833333134651184 2.6770833134651184  2.041666656732559 3.3645833134651184  1.6875 4.21875  C 1.3333333432674408 5.072916686534882  1.2291666716337204 5.9375  1.375 6.8125  C 1.5416666716337204 7.770833313465118  1.9791666865348816 8.604166686534882  2.6875 9.3125  C 3.3958333134651184 10.020833313465118  4.229166686534882 10.44791667163372  5.1875 10.59375  C 6.0625 10.76041667163372  6.927083313465118 10.66666665673256  7.78125 10.3125  C 8.635416686534882 9.95833334326744  9.3125 9.416666686534882  9.8125 8.6875  C 10.375 7.895833313465118  10.65625 7  10.65625 6  C 10.65625 6  8.65625 6  8.65625 6  L 11.3125 3.34375  L 11.375 3.34375  L 14 6  C 14 6  12 6  12 6  C 12 7.083333373069763  11.729166686534882 8.083333313465118  11.1875 9  C 10.645833313465118 9.916666686534882  9.916666686534882 10.645833313465118  9 11.1875  C 8.083333313465118 11.729166686534882  7.083333373069763 12  6 12  C 4.916666626930237 12  3.9114583134651184 11.729166686534882  2.984375 11.1875  C 2.0572916865348816 10.645833313465118  1.328125 9.916666686534882  0.796875 9  Z " stroke-width="0" stroke-dasharray="0" stroke="rgba(121, 121, 121, 1)" fill="none" transform="matrix(1 0 0 1 1 6 )" class="stroke" mask="url(#Clip260)" />
  </g>
</svg>