<?xml version="1.0" encoding="utf-8"?>
<svg version="1.1" xmlns:xlink="http://www.w3.org/1999/xlink" width="14px" height="14px" xmlns="http://www.w3.org/2000/svg">
  <defs>
    <pattern id="BGPattern" patternUnits="userSpaceOnUse" alignment="0 0" imageRepeat="None" />
    <mask fill="white" id="Clip264">
      <path d="M 7 0  C 10.865993221864006 0  14 3.1340067781359946  14 7  C 14 10.865993221864006  10.865993221864006 14  7 14  C 3.1340067781359946 14  0 10.865993221864006  0 7  C 0 3.1340067781359946  3.1340067781359946 0  7 0  Z " fill-rule="evenodd" />
    </mask>
  </defs>
  <g transform="matrix(1 0 0 1 -5 -1 )">
    <path d="M 7 0  C 10.865993221864006 0  14 3.1340067781359946  14 7  C 14 10.865993221864006  10.865993221864006 14  7 14  C 3.1340067781359946 14  0 10.865993221864006  0 7  C 0 3.1340067781359946  3.1340067781359946 0  7 0  Z " fill-rule="nonzero" fill="rgba(186, 186, 186, 1)" stroke="none" transform="matrix(1 0 0 1 5 1 )" class="fill" />
    <path d="M 7 0  C 10.865993221864006 0  14 3.1340067781359946  14 7  C 14 10.865993221864006  10.865993221864006 14  7 14  C 3.1340067781359946 14  0 10.865993221864006  0 7  C 0 3.1340067781359946  3.1340067781359946 0  7 0  Z " stroke-width="0" stroke-dasharray="0" stroke="rgba(121, 121, 121, 1)" fill="none" transform="matrix(1 0 0 1 5 1 )" class="stroke" mask="url(#Clip264)" />
  </g>
</svg>