<?xml version="1.0" encoding="utf-8"?>
<svg version="1.1" xmlns:xlink="http://www.w3.org/1999/xlink" width="11px" height="8px" xmlns="http://www.w3.org/2000/svg">
  <defs>
    <pattern id="BGPattern" patternUnits="userSpaceOnUse" alignment="0 0" imageRepeat="None" />
    <mask fill="white" id="Clip268">
      <path d="M 6.564893617021276 5.1375  C 6.276241142191785 5.445833325386047  5.921276595744682 5.6  5.5 5.6  C 5.078723404255319 5.6  4.723758857808215 5.445833325386047  4.435106382978724 5.1375  C 4.146453908149232 4.829166674613953  4.002127659574469 4.45  4.002127659574469 4  C 4.002127659574469 3.55  4.146453908149232 3.1708333253860475  4.435106382978724 2.8625  C 4.723758857808215 2.5541666746139526  5.078723404255319 2.4  5.5 2.4  C 5.921276595744682 2.4  6.276241142191785 2.5541666746139526  6.564893617021276 2.8625  C 6.853546091850768 3.1708333253860475  6.997872340425531 3.55  6.997872340425531 4  C 6.997872340425531 4.45  6.853546091850768 4.829166674613953  6.564893617021276 5.1375  Z M 6.752127659574469 1.6875  C 6.3698581411483435 1.4458333253860474  5.952482284383571 1.325  5.5 1.325  C 5.047517715616429 1.325  4.630141858851656 1.4458333253860474  4.247872340425531 1.6875  C 3.865602821999408 1.9291666746139526  3.5613475251705085 2.2541666507720945  3.3351063829787235 2.6625  C 3.108865240786938 3.070833349227905  2.9957446808510637 3.5166666507720947  2.9957446808510637 4  C 2.9957446808510637 4.35  3.0620567413086586 4.6875  3.19468085106383 5.0125  C 3.3273049608190006 5.3375  3.5106382978723407 5.625  3.74468085106383 5.875  C 3.9787234042553195 6.125  4.247872340425531 6.3208333373069765  4.552127659574468 6.4625  C 4.8563829787234045 6.604166662693023  5.172340425531915 6.675  5.5 6.675  C 5.827659574468085 6.675  6.1436170212765955 6.604166662693023  6.4478723404255325 6.4625  C 6.752127659574469 6.3208333373069765  7.021276595744681 6.125  7.25531914893617 5.875  C 7.48936170212766 5.625  7.672695039180999 5.3375  7.80531914893617 5.0125  C 7.937943258691341 4.6875  8.004255319148937 4.35  8.004255319148937 4  C 8.004255319148937 3.5166666507720947  7.891134759213062 3.070833349227905  7.664893617021276 2.6625  C 7.4386524748294915 2.2541666507720945  7.134397178000592 1.9291666746139526  6.752127659574469 1.6875  Z M 8.846808510638299 6.8875  C 7.84822692059456 7.6291666507720945  6.732624143235227 8  5.5 8  C 4.267375856764773 8  3.1517730794054395 7.6291666507720945  2.1531914893617023 6.8875  C 1.1546098993179645 6.145833349227905  0.4368794177440887 5.18333330154419  0 4  C 0.4368794177440887 2.8166666984558106  1.1546098993179645 1.8541666507720946  2.1531914893617023 1.1125  C 3.1517730794054395 0.3708333492279053  4.267375856764773 0  5.5 0  C 6.732624143235227 0  7.84822692059456 0.3708333492279053  8.846808510638299 1.1125  C 9.845390100682035 1.8541666507720946  10.56312058225591 2.8166666984558106  11 4  C 10.56312058225591 5.18333330154419  9.845390100682035 6.145833349227905  8.846808510638299 6.8875  Z " fill-rule="evenodd" />
    </mask>
  </defs>
  <g transform="matrix(1 0 0 1 0 -4 )">
    <path d="M 6.564893617021276 5.1375  C 6.276241142191785 5.445833325386047  5.921276595744682 5.6  5.5 5.6  C 5.078723404255319 5.6  4.723758857808215 5.445833325386047  4.435106382978724 5.1375  C 4.146453908149232 4.829166674613953  4.002127659574469 4.45  4.002127659574469 4  C 4.002127659574469 3.55  4.146453908149232 3.1708333253860475  4.435106382978724 2.8625  C 4.723758857808215 2.5541666746139526  5.078723404255319 2.4  5.5 2.4  C 5.921276595744682 2.4  6.276241142191785 2.5541666746139526  6.564893617021276 2.8625  C 6.853546091850768 3.1708333253860475  6.997872340425531 3.55  6.997872340425531 4  C 6.997872340425531 4.45  6.853546091850768 4.829166674613953  6.564893617021276 5.1375  Z M 6.752127659574469 1.6875  C 6.3698581411483435 1.4458333253860474  5.952482284383571 1.325  5.5 1.325  C 5.047517715616429 1.325  4.630141858851656 1.4458333253860474  4.247872340425531 1.6875  C 3.865602821999408 1.9291666746139526  3.5613475251705085 2.2541666507720945  3.3351063829787235 2.6625  C 3.108865240786938 3.070833349227905  2.9957446808510637 3.5166666507720947  2.9957446808510637 4  C 2.9957446808510637 4.35  3.0620567413086586 4.6875  3.19468085106383 5.0125  C 3.3273049608190006 5.3375  3.5106382978723407 5.625  3.74468085106383 5.875  C 3.9787234042553195 6.125  4.247872340425531 6.3208333373069765  4.552127659574468 6.4625  C 4.8563829787234045 6.604166662693023  5.172340425531915 6.675  5.5 6.675  C 5.827659574468085 6.675  6.1436170212765955 6.604166662693023  6.4478723404255325 6.4625  C 6.752127659574469 6.3208333373069765  7.021276595744681 6.125  7.25531914893617 5.875  C 7.48936170212766 5.625  7.672695039180999 5.3375  7.80531914893617 5.0125  C 7.937943258691341 4.6875  8.004255319148937 4.35  8.004255319148937 4  C 8.004255319148937 3.5166666507720947  7.891134759213062 3.070833349227905  7.664893617021276 2.6625  C 7.4386524748294915 2.2541666507720945  7.134397178000592 1.9291666746139526  6.752127659574469 1.6875  Z M 8.846808510638299 6.8875  C 7.84822692059456 7.6291666507720945  6.732624143235227 8  5.5 8  C 4.267375856764773 8  3.1517730794054395 7.6291666507720945  2.1531914893617023 6.8875  C 1.1546098993179645 6.145833349227905  0.4368794177440887 5.18333330154419  0 4  C 0.4368794177440887 2.8166666984558106  1.1546098993179645 1.8541666507720946  2.1531914893617023 1.1125  C 3.1517730794054395 0.3708333492279053  4.267375856764773 0  5.5 0  C 6.732624143235227 0  7.84822692059456 0.3708333492279053  8.846808510638299 1.1125  C 9.845390100682035 1.8541666507720946  10.56312058225591 2.8166666984558106  11 4  C 10.56312058225591 5.18333330154419  9.845390100682035 6.145833349227905  8.846808510638299 6.8875  Z " fill-rule="nonzero" fill="rgba(255, 255, 255, 1)" stroke="none" transform="matrix(1 0 0 1 0 4 )" class="fill" />
    <path d="M 6.564893617021276 5.1375  C 6.276241142191785 5.445833325386047  5.921276595744682 5.6  5.5 5.6  C 5.078723404255319 5.6  4.723758857808215 5.445833325386047  4.435106382978724 5.1375  C 4.146453908149232 4.829166674613953  4.002127659574469 4.45  4.002127659574469 4  C 4.002127659574469 3.55  4.146453908149232 3.1708333253860475  4.435106382978724 2.8625  C 4.723758857808215 2.5541666746139526  5.078723404255319 2.4  5.5 2.4  C 5.921276595744682 2.4  6.276241142191785 2.5541666746139526  6.564893617021276 2.8625  C 6.853546091850768 3.1708333253860475  6.997872340425531 3.55  6.997872340425531 4  C 6.997872340425531 4.45  6.853546091850768 4.829166674613953  6.564893617021276 5.1375  Z " stroke-width="0" stroke-dasharray="0" stroke="rgba(121, 121, 121, 1)" fill="none" transform="matrix(1 0 0 1 0 4 )" class="stroke" mask="url(#Clip268)" />
    <path d="M 6.752127659574469 1.6875  C 6.3698581411483435 1.4458333253860474  5.952482284383571 1.325  5.5 1.325  C 5.047517715616429 1.325  4.630141858851656 1.4458333253860474  4.247872340425531 1.6875  C 3.865602821999408 1.9291666746139526  3.5613475251705085 2.2541666507720945  3.3351063829787235 2.6625  C 3.108865240786938 3.070833349227905  2.9957446808510637 3.5166666507720947  2.9957446808510637 4  C 2.9957446808510637 4.35  3.0620567413086586 4.6875  3.19468085106383 5.0125  C 3.3273049608190006 5.3375  3.5106382978723407 5.625  3.74468085106383 5.875  C 3.9787234042553195 6.125  4.247872340425531 6.3208333373069765  4.552127659574468 6.4625  C 4.8563829787234045 6.604166662693023  5.172340425531915 6.675  5.5 6.675  C 5.827659574468085 6.675  6.1436170212765955 6.604166662693023  6.4478723404255325 6.4625  C 6.752127659574469 6.3208333373069765  7.021276595744681 6.125  7.25531914893617 5.875  C 7.48936170212766 5.625  7.672695039180999 5.3375  7.80531914893617 5.0125  C 7.937943258691341 4.6875  8.004255319148937 4.35  8.004255319148937 4  C 8.004255319148937 3.5166666507720947  7.891134759213062 3.070833349227905  7.664893617021276 2.6625  C 7.4386524748294915 2.2541666507720945  7.134397178000592 1.9291666746139526  6.752127659574469 1.6875  Z " stroke-width="0" stroke-dasharray="0" stroke="rgba(121, 121, 121, 1)" fill="none" transform="matrix(1 0 0 1 0 4 )" class="stroke" mask="url(#Clip268)" />
    <path d="M 8.846808510638299 6.8875  C 7.84822692059456 7.6291666507720945  6.732624143235227 8  5.5 8  C 4.267375856764773 8  3.1517730794054395 7.6291666507720945  2.1531914893617023 6.8875  C 1.1546098993179645 6.145833349227905  0.4368794177440887 5.18333330154419  0 4  C 0.4368794177440887 2.8166666984558106  1.1546098993179645 1.8541666507720946  2.1531914893617023 1.1125  C 3.1517730794054395 0.3708333492279053  4.267375856764773 0  5.5 0  C 6.732624143235227 0  7.84822692059456 0.3708333492279053  8.846808510638299 1.1125  C 9.845390100682035 1.8541666507720946  10.56312058225591 2.8166666984558106  11 4  C 10.56312058225591 5.18333330154419  9.845390100682035 6.145833349227905  8.846808510638299 6.8875  Z " stroke-width="0" stroke-dasharray="0" stroke="rgba(121, 121, 121, 1)" fill="none" transform="matrix(1 0 0 1 0 4 )" class="stroke" mask="url(#Clip268)" />
  </g>
</svg>